<?xml version="1.0" encoding="UTF-8"?>
<!-- netfabb SVG Slice Export -->
<!-- Layer: 6 -->
<!-- Z-Height: 2.400 -->


<svg xmlns="http://www.w3.org/2000/svg"	xmlns:xlink="http://www.w3.org/1999/xlink" xmlns:ev="http://www.w3.org/2001/xml-events" version="1.1" baseProfile="full" width="100.000mm" height="122.943mm" viewBox="-49.999 -61.469 100.000 122.943" style="border: 0px; background-color: #FFFFFF"> 
<line x1="32.000" y1="-12.643" x2="32.000" y2="34.218" stroke="#C0DCC0" stroke-width="0.500mm" />
<line x1="16.000" y1="-22.745" x2="16.000" y2="52.827" stroke="#C0DCC0" stroke-width="0.500mm" />
<line x1="0.000" y1="-46.073" x2="0.000" y2="55.675" stroke="#C0DCC0" stroke-width="0.500mm" />
<line x1="-16.000" y1="-37.125" x2="-16.000" y2="-19.203" stroke="#C0DCC0" stroke-width="0.500mm" />
<line x1="-16.000" y1="-11.205" x2="-16.000" y2="48.570" stroke="#C0DCC0" stroke-width="0.500mm" />
<line x1="-32.000" y1="4.180" x2="-32.000" y2="12.418" stroke="#C0DCC0" stroke-width="0.500mm" />
<polygon points="4.737 58.137  1.239 58.914  -6.463 55.659  -13.001 51.449  -18.481 50.790  -24.463 47.574  -28.925 41.221  -33.013 23.212  -33.851 18.487  -35.422 4.135  -31.117 -0.351  -20.777 -11.073  -15.122 -14.764  -23.006 -22.720  -23.232 -25.727  -28.741 -31.599  -28.727 -31.668  -22.473 -37.254  -14.580 -40.374  -12.216 -39.416  -9.333 -43.207  -3.618 -49.314  3.529 -47.940  7.935 -45.822  11.138 -29.674  16.650 -25.019  22.894 -24.879  32.132 -23.472  34.328 -13.620  36.862 -3.938  41.804 4.757  39.651 20.829  39.152 27.645  36.969 28.648  34.516 34.959  27.379 45.518  18.472 54.697  13.382 56.219  " stroke="#000000" stroke-width="0.500mm" style="fill:none" />
<polygon points="4.304 56.184  4.303 56.185  1.429 56.823  -5.522 53.885  -11.918 49.767  -12.762 49.463  -17.867 48.849  -23.098 46.037  -27.062 40.393  -31.052 22.816  -31.870 18.207  -33.332 4.846  -29.674 1.034  -29.674 1.034  -19.494 -9.522  -14.029 -13.089  -13.281 -13.983  -13.158 -15.141  -13.701 -16.172  -21.067 -23.606  -21.238 -25.877  -21.773 -27.095  -25.909 -31.503  -21.406 -35.525  -14.590 -38.220  -12.967 -37.562  -11.687 -37.487  -10.624 -38.205  -7.802 -41.916  -2.912 -47.142  2.896 -46.025  6.168 -44.452  9.176 -29.285  9.848 -28.146  15.360 -23.491  16.605 -23.020  22.718 -22.883  30.478 -21.701  32.376 -13.185  32.393 -13.114  34.927 -3.432  35.123 -2.950  39.732 5.160  37.669 20.563  37.656 20.683  37.243 26.321  36.134 26.831  35.105 27.923  32.733 34.025  25.821 44.252  17.400 52.930  12.886 54.280  " stroke="#000000" stroke-width="0.500mm" style="fill:none" />
</svg>
