<?xml version="1.0" encoding="UTF-8"?>
<!-- netfabb SVG Slice Export -->
<!-- Layer: 43 -->
<!-- Z-Height: 17.200 -->


<svg xmlns="http://www.w3.org/2000/svg"	xmlns:xlink="http://www.w3.org/1999/xlink" xmlns:ev="http://www.w3.org/2001/xml-events" version="1.1" baseProfile="full" width="100.000mm" height="122.943mm" viewBox="-49.999 -61.469 100.000 122.943" style="border: 0px; background-color: #FFFFFF"> 
<line x1="8.790" y1="-36.465" x2="17.223" y2="-28.032" stroke="#C0DCC0" stroke-width="0.500mm" />
<line x1="30.794" y1="-14.461" x2="41.330" y2="-3.925" stroke="#C0DCC0" stroke-width="0.500mm" />
<line x1="-2.322" y1="-24.950" x2="46.122" y2="23.495" stroke="#C0DCC0" stroke-width="0.500mm" />
<line x1="-14.711" y1="-14.711" x2="35.674" y2="35.674" stroke="#C0DCC0" stroke-width="0.500mm" />
<line x1="-28.570" y1="-5.943" x2="25.114" y2="47.741" stroke="#C0DCC0" stroke-width="0.500mm" />
<line x1="-34.624" y1="10.631" x2="5.089" y2="50.344" stroke="#C0DCC0" stroke-width="0.500mm" />
<line x1="-25.046" y1="42.836" x2="-20.442" y2="47.440" stroke="#C0DCC0" stroke-width="0.500mm" />
<polygon points="48.237 28.846  40.030 32.614  39.368 34.318  36.060 39.960  31.719 44.755  22.358 53.955  12.588 54.109  10.152 55.571  -0.532 50.401  -3.491 51.751  -5.318 55.719  -17.760 52.829  -26.465 45.781  -29.326 39.403  -32.571 32.351  -36.645 21.575  -37.832 13.312  -35.023 1.514  -30.517 -7.647  -30.117 -7.855  -29.763 -8.389  -17.407 -14.136  -16.806 -16.762  -17.055 -23.322  -14.023 -27.464  -13.081 -29.528  -8.122 -28.247  -1.884 -27.413  -0.038 -33.269  1.372 -35.806  1.757 -36.805  8.958 -39.148  10.350 -39.561  13.582 -36.866  19.450 -30.163  20.430 -23.125  25.637 -17.348  29.621 -17.741  36.833 -14.457  41.816 -7.965  48.876 3.765  49.033 5.113  48.792 21.262  " stroke="#000000" stroke-width="0.500mm" style="fill:none" />
<polygon points="39.196 30.796  38.166 31.890  37.563 33.443  34.439 38.770  30.272 43.373  21.527 51.968  12.556 52.109  11.559 52.394  10.050 53.300  0.339 48.601  -0.509 48.401  -1.362 48.581  -4.321 49.931  -5.308 50.915  -6.453 53.402  -16.859 50.985  -24.835 44.527  -27.501 38.584  -27.509 38.567  -30.725 31.579  -34.696 21.074  -35.798 13.405  -33.129 2.196  -28.950 -6.300  -28.450 -6.750  -28.407 -6.814  -16.564 -12.323  -15.852 -12.878  -15.457 -13.690  -14.856 -16.316  -14.807 -16.838  -15.030 -22.703  -12.409 -26.283  -12.204 -26.634  -11.958 -27.173  -8.622 -26.311  -8.387 -26.265  -2.149 -25.431  -0.811 -25.725  0.023 -26.812  1.807 -32.472  3.120 -34.834  3.238 -35.087  3.281 -35.197  9.571 -37.244  9.892 -37.339  12.181 -35.430  17.551 -29.296  18.449 -22.849  18.944 -21.786  24.151 -16.009  24.915 -15.483  25.833 -15.358  29.281 -15.698  35.549 -12.844  40.162 -6.834  46.939 4.426  47.031 5.215  46.793 21.172  46.328 27.521  " stroke="#000000" stroke-width="0.500mm" style="fill:none" />
</svg>
