<?xml version="1.0" encoding="UTF-8"?>
<!-- netfabb SVG Slice Export -->
<!-- Layer: 48 -->
<!-- Z-Height: 19.200 -->


<svg xmlns="http://www.w3.org/2000/svg"	xmlns:xlink="http://www.w3.org/1999/xlink" xmlns:ev="http://www.w3.org/2001/xml-events" version="1.1" baseProfile="full" width="100.000mm" height="122.943mm" viewBox="-49.999 -61.469 100.000 122.943" style="border: 0px; background-color: #FFFFFF"> 
<line x1="2.358" y1="-32.000" x2="15.299" y2="-32.000" stroke="#C0DCC0" stroke-width="0.500mm" />
<line x1="-14.778" y1="-16.000" x2="23.390" y2="-16.000" stroke="#C0DCC0" stroke-width="0.500mm" />
<line x1="-31.154" y1="0.000" x2="44.650" y2="0.000" stroke="#C0DCC0" stroke-width="0.500mm" />
<line x1="-34.860" y1="16.000" x2="46.479" y2="16.000" stroke="#C0DCC0" stroke-width="0.500mm" />
<line x1="-27.767" y1="32.000" x2="38.171" y2="32.000" stroke="#C0DCC0" stroke-width="0.500mm" />
<line x1="-17.812" y1="48.000" x2="-9.964" y2="48.000" stroke="#C0DCC0" stroke-width="0.500mm" />
<line x1="8.254" y1="48.000" x2="25.165" y2="48.000" stroke="#C0DCC0" stroke-width="0.500mm" />
<polygon points="-6.786 47.077  -9.492 52.953  -18.152 50.941  -24.211 46.035  -29.937 33.265  -36.435 19.148  -37.239 17.020  -37.473 15.389  -33.687 -0.514  -30.348 -7.301  -29.269 -7.864  -28.312 -9.305  -17.749 -14.218  -16.881 -18.016  -17.085 -23.389  -14.601 -26.783  -13.326 -29.576  -6.616 -27.842  -2.132 -27.243  -0.805 -31.452  1.358 -35.346  1.949 -36.878  8.755 -39.093  10.693 -39.668  15.194 -35.915  19.565 -30.921  20.709 -22.709  25.252 -17.669  30.960 -18.232  36.987 -15.487  42.820 -7.889  48.797 2.042  49.144 5.019  48.814 27.122  48.612 28.788  40.442 33.022  40.410 33.125  36.584 39.652  31.395 45.383  23.082 53.553  12.906 53.714  11.952 53.739  4.660 48.496  -2.405 45.077  " stroke="#000000" stroke-width="0.500mm" style="fill:none" />
<polygon points="-7.617 45.258  -8.603 46.240  -10.627 50.636  -17.251 49.097  -22.582 44.781  -28.112 32.447  -28.120 32.429  -34.589 18.376  -35.290 16.519  -35.439 15.482  -31.793 0.168  -28.842 -5.831  -28.344 -6.091  -27.603 -6.758  -26.958 -7.730  -16.906 -12.405  -16.194 -12.960  -15.799 -13.772  -14.931 -17.570  -14.882 -18.092  -15.060 -22.770  -12.987 -25.602  -12.782 -25.952  -12.203 -27.221  -7.116 -25.906  -6.881 -25.860  -2.397 -25.261  -1.059 -25.555  -0.225 -26.642  1.041 -30.657  3.106 -34.375  3.224 -34.626  3.473 -35.270  9.368 -37.189  10.235 -37.446  13.793 -34.479  17.666 -30.054  18.728 -22.433  19.223 -21.370  23.766 -16.330  24.530 -15.804  25.448 -15.679  30.620 -16.189  35.705 -13.873  41.162 -6.764  46.860 2.702  47.142 5.122  46.815 26.992  46.754 27.498  39.522 31.246  38.908 31.738  38.699 32.122  38.685 32.114  34.965 38.460  29.948 44.001  22.251 51.566  12.874 51.714  12.854 51.715  12.574 51.722  5.828 46.872  5.531 46.696  -1.534 43.277  -2.383 43.077  -3.236 43.258  " stroke="#000000" stroke-width="0.500mm" style="fill:none" />
</svg>
