<?xml version="1.0" encoding="UTF-8"?>
<!-- netfabb SVG Slice Export -->
<!-- Layer: 33 -->
<!-- Z-Height: 13.200 -->


<svg xmlns="http://www.w3.org/2000/svg"	xmlns:xlink="http://www.w3.org/1999/xlink" xmlns:ev="http://www.w3.org/2001/xml-events" version="1.1" baseProfile="full" width="100.000mm" height="122.943mm" viewBox="-49.999 -61.469 100.000 122.943" style="border: 0px; background-color: #FFFFFF"> 
<line x1="-35.491" y1="12.864" x2="11.285" y2="-33.913" stroke="#C0DCC0" stroke-width="0.500mm" />
<line x1="-32.163" y1="32.163" x2="20.038" y2="-20.038" stroke="#C0DCC0" stroke-width="0.500mm" />
<line x1="-24.197" y1="46.824" x2="33.606" y2="-10.979" stroke="#C0DCC0" stroke-width="0.500mm" />
<line x1="-10.328" y1="55.583" x2="43.082" y2="2.173" stroke="#C0DCC0" stroke-width="0.500mm" />
<line x1="15.539" y1="52.343" x2="36.634" y2="31.248" stroke="#C0DCC0" stroke-width="0.500mm" />
<line x1="38.997" y1="28.885" x2="43.584" y2="24.298" stroke="#C0DCC0" stroke-width="0.500mm" />
<polygon points="47.668 5.114  47.284 7.980  45.782 28.522  39.202 31.542  37.029 37.135  35.013 40.575  32.366 43.498  20.909 54.759  14.263 54.864  3.624 61.247  3.213 61.048  3.099 61.100  3.029 61.253  -16.976 56.605  -21.863 52.649  -28.640 45.943  -28.500 44.301  -34.661 32.791  -35.457 30.684  -38.549 9.157  -37.695 5.570  -35.710 1.534  -29.606 -7.374  -18.683 -13.059  -16.721 -13.972  -16.656 -14.255  -16.924 -21.306  -17.068 -23.219  -17.130 -23.285  -17.084 -23.512  -16.677 -23.620  -12.868 -28.826  -12.591 -29.433  -11.134 -29.056  -1.389 -27.753  1.194 -35.942  1.230 -37.226  2.951 -37.171  9.366 -39.259  9.664 -39.347  10.357 -38.769  19.219 -28.646  19.872 -23.957  26.407 -16.706  26.945 -16.759  36.523 -12.397  39.808 -8.118  45.914 2.028  " stroke="#000000" stroke-width="0.500mm" style="fill:none" />
<polygon points="45.302 7.714  45.289 7.834  43.873 27.197  38.368 29.724  37.338 30.818  35.224 36.258  33.389 39.390  30.928 42.107  20.078 52.772  14.231 52.864  13.234 53.149  3.355 59.076  3.236 59.048  2.785 59.143  -16.075 54.761  -20.525 51.159  -26.567 45.180  -26.507 44.471  -26.737 43.357  -32.835 31.964  -33.508 30.183  -36.515 9.250  -35.801 6.252  -33.978 2.546  -28.238 -5.832  -17.801 -11.264  -15.877 -12.159  -15.166 -12.714  -14.772 -13.524  -14.707 -13.807  -14.657 -14.331  -14.925 -21.382  -14.930 -21.456  -15.009 -22.512  -11.638 -27.121  -11.635 -27.120  -11.399 -27.074  -1.654 -25.771  -0.316 -26.065  0.518 -27.151  3.056 -35.196  3.570 -35.269  9.168 -37.091  17.320 -27.779  17.891 -23.681  18.386 -22.618  24.921 -15.367  25.685 -14.841  26.603 -14.716  26.605 -14.716  35.241 -10.783  38.150 -6.993  44.190 3.042  45.596 5.517  " stroke="#000000" stroke-width="0.500mm" style="fill:none" />
</svg>
