<?xml version="1.0" encoding="UTF-8"?>
<!-- netfabb SVG Slice Export -->
<!-- Layer: 50 -->
<!-- Z-Height: 20.000 -->


<svg xmlns="http://www.w3.org/2000/svg"	xmlns:xlink="http://www.w3.org/1999/xlink" xmlns:ev="http://www.w3.org/2001/xml-events" version="1.1" baseProfile="full" width="100.000mm" height="122.943mm" viewBox="-49.999 -61.469 100.000 122.943" style="border: 0px; background-color: #FFFFFF"> 
<line x1="-32.000" y1="20.794" x2="-32.000" y2="4.626" stroke="#C0DCC0" stroke-width="0.500mm" />
<line x1="-16.000" y1="48.156" x2="-16.000" y2="-12.633" stroke="#C0DCC0" stroke-width="0.500mm" />
<line x1="0.000" y1="42.020" x2="0.000" y2="-26.225" stroke="#C0DCC0" stroke-width="0.500mm" />
<line x1="16.000" y1="51.008" x2="16.000" y2="-31.553" stroke="#C0DCC0" stroke-width="0.500mm" />
<line x1="32.000" y1="41.099" x2="32.000" y2="-15.451" stroke="#C0DCC0" stroke-width="0.500mm" />
<polygon points="-8.104 45.207  -11.161 51.846  -18.308 50.185  -23.309 46.137  -30.182 30.810  -33.989 22.538  -36.846 15.518  -36.942 14.591  -33.153 -1.325  -30.281 -7.163  -28.930 -7.867  -27.731 -9.672  -17.887 -14.250  -16.911 -18.517  -17.097 -23.417  -14.832 -26.511  -13.424 -29.595  -6.013 -27.680  -2.231 -27.175  -1.112 -30.725  1.353 -35.162  2.026 -36.908  8.673 -39.071  10.830 -39.711  15.839 -35.534  19.611 -31.225  20.820 -22.543  25.098 -17.797  31.495 -18.428  37.049 -15.899  43.222 -7.858  48.765 1.353  49.188 4.981  48.875 25.942  48.540 28.707  40.602 32.820  40.470 33.258  36.794 39.529  31.266 45.634  23.372 53.392  13.709 53.545  11.814 53.594  -2.661 43.186  -3.154 42.948  " stroke="#000000" stroke-width="0.500mm" style="fill:none" />
<polygon points="-8.934 43.388  -9.921 44.370  -12.296 49.529  -17.407 48.341  -21.680 44.883  -28.357 29.992  -28.365 29.974  -32.158 21.733  -34.886 15.028  -34.918 14.725  -31.259 -0.643  -28.775 -5.692  -28.006 -6.093  -27.264 -6.760  -26.376 -8.097  -17.044 -12.437  -16.332 -12.992  -15.937 -13.804  -14.961 -18.071  -14.912 -18.593  -15.072 -22.798  -13.218 -25.330  -13.013 -25.680  -12.301 -27.240  -6.513 -25.744  -6.278 -25.698  -2.496 -25.193  -1.158 -25.487  -0.324 -26.574  0.734 -29.930  3.101 -34.191  3.219 -34.443  3.549 -35.300  9.286 -37.167  10.371 -37.489  14.438 -34.098  17.712 -30.358  18.839 -22.267  19.334 -21.204  23.612 -16.458  24.376 -15.932  25.294 -15.807  31.155 -16.385  35.767 -14.285  41.564 -6.733  46.828 2.013  47.186 5.084  46.876 25.813  46.682 27.417  39.682 31.044  39.063 31.543  38.687 32.243  38.623 32.455  35.175 38.337  29.819 44.252  22.541 51.405  13.677 51.545  13.657 51.546  12.436 51.578  -1.493 41.562  -1.792 41.385  -2.285 41.147  -3.132 40.948  -3.984 41.129  " stroke="#000000" stroke-width="0.500mm" style="fill:none" />
</svg>
