<?xml version="1.0" encoding="UTF-8"?>
<!-- netfabb SVG Slice Export -->
<!-- Layer: 11 -->
<!-- Z-Height: 4.400 -->


<svg xmlns="http://www.w3.org/2000/svg"	xmlns:xlink="http://www.w3.org/1999/xlink" xmlns:ev="http://www.w3.org/2001/xml-events" version="1.1" baseProfile="full" width="100.000mm" height="122.943mm" viewBox="-49.999 -61.469 100.000 122.943" style="border: 0px; background-color: #FFFFFF"> 
<line x1="-0.094" y1="-45.349" x2="6.924" y2="-38.331" stroke="#C0DCC0" stroke-width="0.500mm" />
<line x1="22.815" y1="-22.440" x2="32.172" y2="-13.083" stroke="#C0DCC0" stroke-width="0.500mm" />
<line x1="-12.221" y1="-34.849" x2="38.841" y2="16.214" stroke="#C0DCC0" stroke-width="0.500mm" />
<line x1="-13.350" y1="-13.350" x2="33.156" y2="33.156" stroke="#C0DCC0" stroke-width="0.500mm" />
<line x1="-25.822" y1="-3.194" x2="23.876" y2="46.503" stroke="#C0DCC0" stroke-width="0.500mm" />
<line x1="-32.351" y1="12.904" x2="10.190" y2="55.444" stroke="#C0DCC0" stroke-width="0.500mm" />
<line x1="-27.003" y1="40.879" x2="-18.693" y2="49.190" stroke="#C0DCC0" stroke-width="0.500mm" />
<polygon points="1.398 59.958  0.906 60.067  -0.179 59.608  -9.925 53.333  -18.093 52.351  -27.009 47.557  -28.548 45.368  -31.745 31.284  -32.898 24.518  -33.870 22.289  -34.174 20.474  -35.020 11.164  -35.845 3.628  -30.015 -2.447  -23.171 -9.545  -15.416 -14.607  -21.771 -21.020  -22.091 -25.262  -26.591 -30.060  -25.943 -33.255  -21.822 -36.936  -16.621 -38.991  -12.254 -37.222  -6.927 -44.226  -2.976 -48.448  1.965 -47.498  8.253 -44.476  10.796 -31.655  18.149 -25.444  19.952 -25.404  32.408 -23.506  35.371 -10.221  36.250 -6.859  42.890 4.823  41.064 18.450  40.380 27.808  37.382 29.184  34.015 37.849  30.014 43.768  17.908 56.243  17.260 56.437  " stroke="#000000" stroke-width="0.500mm" style="fill:none" />
<polygon points="-8.842 51.651  -9.686 51.347  -17.479 50.410  -25.646 46.019  -26.685 44.540  -29.780 30.908  -30.926 24.182  -31.065 23.719  -31.937 21.719  -32.189 20.215  -33.028 10.983  -33.032 10.946  -33.755 4.339  -28.572 -1.062  -28.572 -1.062  -21.888 -7.994  -14.323 -12.932  -13.575 -13.826  -13.452 -14.984  -13.995 -16.015  -19.833 -21.906  -20.097 -25.412  -20.632 -26.630  -24.426 -30.675  -24.115 -32.206  -20.755 -35.207  -16.631 -36.837  -13.005 -35.368  -11.725 -35.293  -10.662 -36.011  -5.396 -42.935  -2.270 -46.276  1.332 -45.583  6.486 -43.106  8.834 -31.266  9.505 -30.127  16.858 -23.916  18.105 -23.444  19.784 -23.407  30.754 -21.735  33.419 -9.786  33.436 -9.715  34.315 -6.353  34.511 -5.871  40.818 5.226  39.082 18.184  39.069 18.304  38.471 26.483  36.548 27.366  35.518 28.460  32.233 36.914  28.456 42.502  16.836 54.476  16.747 54.503  1.098 57.977  0.762 57.834  " stroke="#000000" stroke-width="0.500mm" style="fill:none" />
</svg>
