<?xml version="1.0" encoding="UTF-8"?>
<!-- netfabb SVG Slice Export -->
<!-- Layer: 30 -->
<!-- Z-Height: 12.000 -->


<svg xmlns="http://www.w3.org/2000/svg"	xmlns:xlink="http://www.w3.org/1999/xlink" xmlns:ev="http://www.w3.org/2001/xml-events" version="1.1" baseProfile="full" width="100.000mm" height="122.943mm" viewBox="-49.999 -61.469 100.000 122.943" style="border: 0px; background-color: #FFFFFF"> 
<line x1="32.000" y1="-11.050" x2="32.000" y2="40.016" stroke="#C0DCC0" stroke-width="0.500mm" />
<line x1="16.000" y1="-27.995" x2="16.000" y2="52.570" stroke="#C0DCC0" stroke-width="0.500mm" />
<line x1="0.000" y1="-25.723" x2="0.000" y2="57.764" stroke="#C0DCC0" stroke-width="0.500mm" />
<line x1="-16.000" y1="-11.371" x2="-16.000" y2="55.120" stroke="#C0DCC0" stroke-width="0.500mm" />
<line x1="-32.000" y1="1.371" x2="-32.000" y2="31.359" stroke="#C0DCC0" stroke-width="0.500mm" />
<polygon points="9.460 -39.362  9.495 -39.182  9.622 -39.075  19.150 -28.191  19.705 -24.206  25.919 -17.311  26.965 -17.116  27.288 -15.942  36.430 -11.779  39.206 -8.163  44.365 0.408  47.017 5.074  46.436 9.408  45.045 28.424  38.954 31.221  36.327 37.981  34.698 40.760  32.560 43.121  20.474 55.000  14.766 55.090  5.165 60.850  3.049 61.322  1.764 60.494  -12.008 58.837  -16.741 57.738  -17.760 56.913  -28.595 46.192  -28.371 43.566  -33.951 33.141  -35.216 30.240  -37.596 16.050  -38.765 7.911  -38.497 6.786  -37.875 5.521  -29.176 -7.172  -18.464 -12.748  -16.533 -14.008  -17.080 -14.561  -17.753 -23.497  -18.420 -24.209  -17.930 -26.626  -13.583 -27.783  -12.521 -29.235  -12.444 -29.404  -12.038 -29.299  -1.240 -27.855  0.256 -32.599  0.462 -39.804  9.109 -39.531  " stroke="#000000" stroke-width="0.500mm" style="fill:none" />
<polygon points="17.251 -27.324  17.724 -23.930  18.219 -22.867  24.433 -15.972  25.346 -15.460  25.360 -15.411  25.766 -14.644  26.459 -14.122  35.148 -10.165  37.548 -7.038  42.641 1.422  44.945 5.477  44.454 9.142  44.441 9.262  43.136 27.099  38.119 29.403  37.090 30.497  34.521 37.109  33.077 39.571  31.122 41.730  19.643 53.013  14.734 53.090  13.737 53.375  4.413 58.969  3.429 59.188  2.847 58.813  2.003 58.508  -11.667 56.863  -15.841 55.894  -16.416 55.428  -26.522 45.429  -26.378 43.736  -26.608 42.622  -32.151 32.265  -33.285 29.666  -35.616 15.766  -35.616 15.766  -36.731 8.004  -36.603 7.466  -36.145 6.535  -27.808 -5.630  -17.541 -10.974  -17.371 -11.073  -15.440 -12.333  -14.692 -13.226  -14.569 -14.384  -15.111 -15.414  -15.141 -15.445  -15.759 -23.647  -16.261 -24.792  -16.217 -25.012  -13.069 -25.850  -11.969 -26.602  -11.522 -27.213  -1.505 -25.873  -0.167 -26.167  0.667 -27.254  2.163 -31.998  2.255 -32.542  2.404 -37.742  8.294 -37.556  " stroke="#000000" stroke-width="0.500mm" style="fill:none" />
</svg>
