<?xml version="1.0" encoding="UTF-8"?>
<!-- netfabb SVG Slice Export -->
<!-- Layer: 21 -->
<!-- Z-Height: 8.400 -->


<svg xmlns="http://www.w3.org/2000/svg"	xmlns:xlink="http://www.w3.org/1999/xlink" xmlns:ev="http://www.w3.org/2001/xml-events" version="1.1" baseProfile="full" width="100.000mm" height="122.943mm" viewBox="-49.999 -61.469 100.000 122.943" style="border: 0px; background-color: #FFFFFF"> 
<line x1="-18.579" y1="-26.676" x2="-14.315" y2="-30.940" stroke="#C0DCC0" stroke-width="0.500mm" />
<line x1="-34.435" y1="11.808" x2="9.897" y2="-32.525" stroke="#C0DCC0" stroke-width="0.500mm" />
<line x1="-30.219" y1="30.219" x2="20.158" y2="-20.158" stroke="#C0DCC0" stroke-width="0.500mm" />
<line x1="-24.607" y1="47.234" x2="31.791" y2="-9.164" stroke="#C0DCC0" stroke-width="0.500mm" />
<line x1="-8.733" y1="53.987" x2="41.502" y2="3.752" stroke="#C0DCC0" stroke-width="0.500mm" />
<line x1="13.162" y1="54.720" x2="34.193" y2="33.689" stroke="#C0DCC0" stroke-width="0.500mm" />
<polygon points="8.888 -41.784  10.111 -35.617  14.467 -31.938  18.942 -26.826  19.203 -24.954  22.121 -21.716  29.706 -20.305  32.045 -11.795  36.152 -9.925  37.399 -8.301  39.716 -4.451  45.062 4.955  43.891 13.691  42.835 28.132  38.210 30.256  34.223 40.516  33.755 41.313  33.142 41.991  19.169 55.724  16.273 55.769  11.402 58.692  1.961 60.794  -3.773 57.102  -17.316 55.473  -22.829 52.510  -28.460 46.938  -27.985 41.361  -28.553 40.300  -34.578 26.474  -36.834 13.025  -37.511 5.570  -28.153 -6.180  -27.888 -6.566  -27.644 -6.693  -16.004 -14.292  -19.302 -17.620  -19.808 -24.333  -22.290 -26.980  -20.468 -35.967  -20.224 -36.032  -12.328 -32.833  -2.114 -46.263  -1.691 -46.716  -1.162 -46.614  " stroke="#000000" stroke-width="0.500mm" style="fill:none" />
<polygon points="7.120 -40.414  8.149 -35.228  8.821 -34.089  13.061 -30.508  17.043 -25.959  17.222 -24.678  17.717 -23.615  20.635 -20.377  21.755 -19.750  28.110 -18.568  30.117 -11.265  30.523 -10.498  31.216 -9.975  34.870 -8.311  35.742 -7.176  37.992 -3.437  42.990 5.358  41.909 13.425  41.896 13.545  40.926 26.807  37.375 28.438  36.346 29.532  32.419 39.637  32.133 40.125  31.694 40.610  18.338 53.736  16.242 53.769  15.244 54.054  10.651 56.810  2.342 58.660  -2.690 55.420  -3.534 55.116  -16.702 53.532  -21.627 50.885  -26.387 46.175  -25.992 41.531  -26.222 40.417  -26.753 39.424  -32.647 25.901  -34.848 12.777  -35.446 6.188  -26.589 -4.934  -26.504 -5.048  -26.503 -5.049  -14.911 -12.617  -14.163 -13.511  -14.040 -14.669  -14.583 -15.700  -17.363 -18.506  -17.814 -24.483  -18.349 -25.701  -20.125 -27.595  -18.956 -33.360  -13.079 -30.979  -11.799 -30.904  -10.736 -31.622  -1.059 -44.345  " stroke="#000000" stroke-width="0.500mm" style="fill:none" />
</svg>
