<?xml version="1.0" encoding="UTF-8"?>
<!-- netfabb SVG Slice Export -->
<!-- Layer: 26 -->
<!-- Z-Height: 10.400 -->


<svg xmlns="http://www.w3.org/2000/svg"	xmlns:xlink="http://www.w3.org/1999/xlink" xmlns:ev="http://www.w3.org/2001/xml-events" version="1.1" baseProfile="full" width="100.000mm" height="122.943mm" viewBox="-49.999 -61.469 100.000 122.943" style="border: 0px; background-color: #FFFFFF"> 
<line x1="-32.000" y1="29.037" x2="-32.000" y2="2.476" stroke="#C0DCC0" stroke-width="0.500mm" />
<line x1="-16.000" y1="54.628" x2="-16.000" y2="-11.344" stroke="#C0DCC0" stroke-width="0.500mm" />
<line x1="-16.000" y1="-21.744" x2="-16.000" y2="-29.004" stroke="#C0DCC0" stroke-width="0.500mm" />
<line x1="0.000" y1="56.647" x2="0.000" y2="-25.816" stroke="#C0DCC0" stroke-width="0.500mm" />
<line x1="16.000" y1="52.883" x2="16.000" y2="-27.280" stroke="#C0DCC0" stroke-width="0.500mm" />
<line x1="32.000" y1="39.798" x2="32.000" y2="-10.169" stroke="#C0DCC0" stroke-width="0.500mm" />
<polygon points="9.206 -40.438  9.769 -37.597  11.776 -35.903  19.057 -27.584  19.481 -24.539  24.231 -19.269  28.183 -18.534  29.402 -14.099  36.307 -10.955  38.403 -8.225  42.299 -1.751  46.148 5.021  45.305 11.311  44.063 28.294  38.623 30.792  35.392 39.107  34.279 41.006  32.818 42.619  19.894 55.322  15.436 55.392  7.937 59.891  2.565 61.087  -0.697 58.986  -16.928 57.034  -19.083 55.875  -28.535 46.524  -28.199 42.586  -31.552 36.323  -34.932 28.566  -38.163 9.301  -38.397 6.731  -35.171 2.681  -28.604 -6.903  -22.544 -10.057  -16.298 -14.134  -18.068 -15.920  -18.666 -23.869  -20.140 -25.441  -19.058 -30.777  -15.226 -31.798  -12.366 -30.639  -7.746 -36.713  -1.532 -28.056  -1.041 -27.991  -0.994 -28.140  -0.563 -43.242  3.649 -43.109  " stroke="#000000" stroke-width="0.500mm" style="fill:none" />
<polygon points="7.438 -39.068  7.807 -37.208  8.479 -36.069  10.370 -34.473  17.158 -26.717  17.500 -24.263  17.995 -23.200  22.745 -17.930  23.865 -17.303  26.587 -16.797  27.474 -13.569  27.880 -12.802  28.573 -12.279  35.025 -9.341  36.745 -7.100  40.575 -0.737  44.076 5.424  43.323 11.045  43.310 11.165  42.154 26.969  37.788 28.974  36.759 30.068  33.585 38.235  32.660 39.814  31.372 41.236  19.063 53.335  15.405 53.392  14.407 53.677  7.186 58.009  2.945 58.953  0.386 57.305  -0.458 57.000  -16.316 55.093  -17.879 54.252  -26.462 45.761  -26.206 42.756  -26.436 41.642  -29.747 35.457  -33.001 27.989  -36.177 9.053  -36.332 7.348  -33.607 3.927  -33.521 3.811  -27.237 -5.360  -21.621 -8.283  -21.451 -8.382  -15.205 -12.459  -14.457 -13.353  -14.334 -14.511  -14.877 -15.542  -16.129 -16.806  -16.672 -24.019  -17.207 -25.237  -17.975 -26.056  -17.345 -29.163  -15.357 -29.693  -13.117 -28.785  -11.837 -28.710  -10.774 -29.428  -7.792 -33.348  -3.157 -26.890  -2.560 -26.341  -1.794 -26.073  -1.303 -26.008  0.033 -26.304  0.866 -27.389  0.913 -27.538  1.005 -28.083  1.379 -41.180  3.163 -41.123  " stroke="#000000" stroke-width="0.500mm" style="fill:none" />
</svg>
