<?xml version="1.0" encoding="UTF-8"?>
<!-- netfabb SVG Slice Export -->
<!-- Layer: 10 -->
<!-- Z-Height: 4.000 -->


<svg xmlns="http://www.w3.org/2000/svg"	xmlns:xlink="http://www.w3.org/1999/xlink" xmlns:ev="http://www.w3.org/2001/xml-events" version="1.1" baseProfile="full" width="100.000mm" height="122.943mm" viewBox="-49.999 -61.469 100.000 122.943" style="border: 0px; background-color: #FFFFFF"> 
<line x1="-32.000" y1="15.113" x2="-32.000" y2="3.421" stroke="#C0DCC0" stroke-width="0.500mm" />
<line x1="-16.000" y1="49.782" x2="-16.000" y2="-11.233" stroke="#C0DCC0" stroke-width="0.500mm" />
<line x1="-16.000" y1="-18.838" x2="-16.000" y2="-36.484" stroke="#C0DCC0" stroke-width="0.500mm" />
<line x1="0.000" y1="56.711" x2="0.000" y2="-45.478" stroke="#C0DCC0" stroke-width="0.500mm" />
<line x1="16.000" y1="53.929" x2="16.000" y2="-23.647" stroke="#C0DCC0" stroke-width="0.500mm" />
<line x1="32.000" y1="35.812" x2="32.000" y2="-13.595" stroke="#C0DCC0" stroke-width="0.500mm" />
<polygon points="2.066 59.593  0.972 59.836  -1.436 58.818  -10.540 52.956  -18.170 52.039  -26.500 47.561  -28.623 44.538  -33.036 25.099  -33.450 22.671  -33.799 21.870  -33.908 21.219  -34.212 17.877  -35.761 3.729  -30.236 -2.028  -22.692 -9.850  -15.357 -14.638  -22.018 -21.360  -22.319 -25.355  -27.021 -30.367  -26.500 -32.937  -21.952 -36.999  -16.213 -39.268  -12.246 -37.661  -7.408 -44.022  -3.104 -48.621  2.278 -47.586  8.190 -44.745  10.864 -31.259  17.849 -25.359  20.541 -25.299  32.353 -23.499  35.162 -10.901  36.373 -6.275  42.673 4.810  40.781 18.926  40.134 27.775  37.299 29.077  34.115 37.271  29.487 44.118  18.021 55.934  16.484 56.393  " stroke="#000000" stroke-width="0.500mm" style="fill:none" />
<polygon points="1.633 57.641  1.632 57.641  1.163 57.745  -0.495 57.044  -9.457 51.274  -10.301 50.970  -17.556 50.098  -25.136 46.023  -26.760 43.710  -31.071 24.722  -31.478 22.335  -31.616 21.872  -31.867 21.296  -31.923 20.960  -32.220 17.696  -32.224 17.659  -33.671 4.440  -28.793 -0.643  -28.793 -0.643  -21.409 -8.299  -14.264 -12.963  -13.516 -13.857  -13.393 -15.015  -13.936 -16.046  -20.079 -22.246  -20.325 -25.505  -20.860 -26.723  -24.856 -30.982  -24.672 -31.888  -20.885 -35.270  -16.223 -37.114  -12.997 -35.807  -11.717 -35.732  -10.654 -36.450  -5.877 -42.731  -2.398 -46.449  1.645 -45.671  6.422 -43.375  8.902 -30.870  9.573 -29.731  16.558 -23.831  17.804 -23.359  20.373 -23.302  30.699 -21.728  33.210 -10.466  33.227 -10.395  34.438 -5.769  34.634 -5.287  40.601 5.213  38.799 18.660  38.786 18.780  38.225 26.451  36.464 27.260  35.435 28.353  32.333 36.336  27.929 42.852  16.948 54.167  15.979 54.457  " stroke="#000000" stroke-width="0.500mm" style="fill:none" />
</svg>
