<?xml version="1.0" encoding="UTF-8"?>
<!-- netfabb SVG Slice Export -->
<!-- Layer: 28 -->
<!-- Z-Height: 11.200 -->


<svg xmlns="http://www.w3.org/2000/svg"	xmlns:xlink="http://www.w3.org/1999/xlink" xmlns:ev="http://www.w3.org/2001/xml-events" version="1.1" baseProfile="full" width="100.000mm" height="122.943mm" viewBox="-49.999 -61.469 100.000 122.943" style="border: 0px; background-color: #FFFFFF"> 
<line x1="2.178" y1="-32.000" x2="12.181" y2="-32.000" stroke="#C0DCC0" stroke-width="0.500mm" />
<line x1="-14.807" y1="-16.000" x2="24.319" y2="-16.000" stroke="#C0DCC0" stroke-width="0.500mm" />
<line x1="-30.684" y1="0.000" x2="40.819" y2="0.000" stroke="#C0DCC0" stroke-width="0.500mm" />
<line x1="-34.786" y1="16.000" x2="42.952" y2="16.000" stroke="#C0DCC0" stroke-width="0.500mm" />
<line x1="-31.215" y1="32.000" x2="35.721" y2="32.000" stroke="#C0DCC0" stroke-width="0.500mm" />
<line x1="-23.351" y1="48.000" x2="23.902" y2="48.000" stroke="#C0DCC0" stroke-width="0.500mm" />
<polygon points="9.333 -39.900  9.632 -38.390  10.699 -37.489  19.103 -27.888  19.593 -24.372  25.075 -18.290  27.574 -17.825  28.345 -15.021  36.369 -11.367  38.804 -8.194  43.332 -0.672  46.582 5.048  45.871 10.359  44.554 28.359  38.789 31.006  35.860 38.544  34.489 40.883  32.689 42.870  20.184 55.161  15.101 55.241  6.551 60.371  2.807 61.204  0.533 59.740  -16.773 57.658  -17.585 57.222  -28.565 46.358  -28.285 43.076  -32.752 34.732  -35.074 29.403  -38.695 7.811  -38.751 7.196  -37.979 6.226  -28.890 -7.038  -20.504 -11.402  -16.415 -14.071  -17.574 -15.240  -18.209 -23.683  -19.280 -24.825  -18.494 -28.701  -13.227 -30.104  -12.381 -29.762  -11.014 -31.558  -9.176 -28.998  -1.141 -27.923  -0.369 -30.369  -0.051 -41.523  6.379 -41.320  " stroke="#000000" stroke-width="0.500mm" style="fill:none" />
<polygon points="7.565 -38.530  7.670 -38.002  8.342 -36.862  9.293 -36.059  17.204 -27.021  17.612 -24.096  18.107 -23.033  23.589 -16.951  24.709 -16.324  25.978 -16.088  26.417 -14.491  26.823 -13.724  27.516 -13.201  35.085 -9.754  37.155 -7.057  41.593 0.316  41.593 0.316  44.511 5.451  43.889 10.094  43.876 10.213  42.645 27.034  37.954 29.188  36.925 30.282  34.053 37.672  32.870 39.691  31.243 41.487  19.353 53.174  15.070 53.241  14.072 53.526  5.799 58.490  3.189 59.071  1.616 58.058  0.772 57.754  -16.160 55.717  -16.382 55.598  -26.492 45.595  -26.292 43.246  -26.522 42.132  -30.947 33.866  -33.143 28.826  -36.670 7.793  -36.414 7.471  -36.329 7.357  -27.522 -5.496  -19.581 -9.628  -19.411 -9.727  -15.322 -12.396  -14.574 -13.290  -14.451 -14.449  -14.995 -15.479  -15.635 -16.125  -16.215 -23.833  -16.750 -25.051  -17.115 -25.440  -16.781 -27.087  -13.357 -27.999  -13.131 -27.908  -11.851 -27.833  -11.145 -28.311  -10.801 -27.832  -10.205 -27.283  -9.441 -27.016  -1.406 -25.941  -0.068 -26.235  0.766 -27.321  1.538 -29.767  1.630 -30.312  1.891 -39.461  5.893 -39.334  " stroke="#000000" stroke-width="0.500mm" style="fill:none" />
</svg>
