<?xml version="1.0" encoding="UTF-8"?>
<!-- netfabb SVG Slice Export -->
<!-- Layer: 47 -->
<!-- Z-Height: 18.800 -->


<svg xmlns="http://www.w3.org/2000/svg"	xmlns:xlink="http://www.w3.org/1999/xlink" xmlns:ev="http://www.w3.org/2001/xml-events" version="1.1" baseProfile="full" width="100.000mm" height="122.943mm" viewBox="-49.999 -61.469 100.000 122.943" style="border: 0px; background-color: #FFFFFF"> 
<line x1="8.783" y1="-36.472" x2="17.427" y2="-27.827" stroke="#C0DCC0" stroke-width="0.500mm" />
<line x1="29.728" y1="-15.527" x2="43.256" y2="-1.999" stroke="#C0DCC0" stroke-width="0.500mm" />
<line x1="-2.216" y1="-24.843" x2="46.342" y2="23.715" stroke="#C0DCC0" stroke-width="0.500mm" />
<line x1="-14.946" y1="-14.946" x2="35.848" y2="35.848" stroke="#C0DCC0" stroke-width="0.500mm" />
<line x1="-28.278" y1="-5.651" x2="25.238" y2="47.866" stroke="#C0DCC0" stroke-width="0.500mm" />
<line x1="-34.073" y1="11.182" x2="-1.494" y2="43.761" stroke="#C0DCC0" stroke-width="0.500mm" />
<polygon points="40.361 33.043  40.303 33.191  36.480 39.714  31.460 45.257  22.937 53.634  12.505 53.798  12.020 53.811  8.321 51.151  -2.030 46.142  -6.127 48.012  -8.657 53.506  -18.073 51.318  -24.662 45.985  -29.815 34.493  -35.662 21.789  -37.120 17.931  -37.545 14.974  -33.954 -0.108  -30.382 -7.370  -29.439 -7.862  -28.602 -9.122  -17.681 -14.201  -16.866 -17.765  -17.079 -23.376  -14.486 -26.920  -13.277 -29.566  -6.917 -27.923  -2.083 -27.277  -0.652 -31.816  1.361 -35.438  1.910 -36.863  8.796 -39.104  10.624 -39.646  14.872 -36.105  19.542 -30.770  20.653 -22.793  25.329 -17.605  30.692 -18.133  36.956 -15.281  42.619 -7.904  48.813 2.387  49.121 5.038  48.783 27.712  48.648 28.828  41.705 32.426  " stroke="#000000" stroke-width="0.500mm" style="fill:none" />
<polygon points="39.527 31.225  38.608 32.198  38.578 32.180  38.502 32.310  38.499 32.313  38.497 32.318  34.861 38.523  30.014 43.874  22.106 51.647  12.643 51.795  9.489 49.527  9.192 49.351  -1.159 44.342  -2.007 44.142  -2.860 44.323  -6.957 46.193  -7.944 47.175  -9.792 51.189  -17.172 49.474  -23.033 44.731  -27.990 33.675  -27.998 33.657  -33.816 21.017  -35.171 17.430  -35.511 15.066  -32.060 0.574  -28.876 -5.900  -28.514 -6.089  -27.773 -6.755  -27.247 -7.547  -16.838 -12.388  -16.126 -12.943  -15.731 -13.755  -14.916 -17.319  -14.867 -17.841  -15.054 -22.757  -12.872 -25.739  -12.667 -26.089  -12.154 -27.211  -7.417 -25.987  -7.182 -25.941  -2.348 -25.295  -1.010 -25.589  -0.176 -26.676  1.193 -31.019  3.109 -34.466  3.227 -34.719  3.434 -35.255  9.409 -37.200  10.166 -37.424  13.472 -34.669  17.643 -29.903  18.672 -22.517  19.167 -21.454  23.843 -16.266  24.607 -15.740  25.525 -15.615  30.352 -16.090  35.674 -13.667  40.961 -6.779  46.876 3.047  47.119 5.140  46.785 27.541  40.828 30.628  " stroke="#000000" stroke-width="0.500mm" style="fill:none" />
</svg>
