<?xml version="1.0" encoding="UTF-8"?>
<!-- netfabb SVG Slice Export -->
<!-- Layer: 40 -->
<!-- Z-Height: 16.000 -->


<svg xmlns="http://www.w3.org/2000/svg"	xmlns:xlink="http://www.w3.org/1999/xlink" xmlns:ev="http://www.w3.org/2001/xml-events" version="1.1" baseProfile="full" width="100.000mm" height="122.943mm" viewBox="-49.999 -61.469 100.000 122.943" style="border: 0px; background-color: #FFFFFF"> 
<line x1="2.299" y1="-32.000" x2="14.051" y2="-32.000" stroke="#C0DCC0" stroke-width="0.500mm" />
<line x1="-14.273" y1="-16.000" x2="23.543" y2="-16.000" stroke="#C0DCC0" stroke-width="0.500mm" />
<line x1="-31.696" y1="0.000" x2="43.117" y2="0.000" stroke="#C0DCC0" stroke-width="0.500mm" />
<line x1="-34.956" y1="16.000" x2="45.926" y2="16.000" stroke="#C0DCC0" stroke-width="0.500mm" />
<line x1="-30.709" y1="32.000" x2="37.212" y2="32.000" stroke="#C0DCC0" stroke-width="0.500mm" />
<line x1="-20.917" y1="48.000" x2="24.660" y2="48.000" stroke="#C0DCC0" stroke-width="0.500mm" />
<polygon points="47.501 28.749  39.781 32.293  38.666 35.163  35.746 40.144  31.913 44.378  21.923 54.196  13.091 54.336  8.194 57.274  0.591 53.595  -1.514 54.556  -2.814 57.379  -17.525 53.962  -27.818 45.629  -28.959 43.085  -30.253 40.273  -36.289 24.308  -38.047 12.066  -35.825 2.731  -30.659 -7.770  -30.607 -7.846  -17.201 -14.087  -16.761 -16.010  -17.037 -23.281  -13.677 -27.873  -12.934 -29.499  -9.025 -28.490  -1.736 -27.515  0.423 -34.359  1.380 -36.082  1.641 -36.760  9.081 -39.181  10.144 -39.497  12.614 -37.437  19.380 -29.708  20.262 -23.375  25.868 -17.155  28.818 -17.446  36.740 -13.839  41.214 -8.011  48.923 4.798  48.966 5.170  48.900 9.616  " stroke="#000000" stroke-width="0.500mm" style="fill:none" />
<polygon points="38.947 30.475  37.917 31.569  36.859 34.291  34.127 38.952  30.466 42.996  21.092 52.209  13.059 52.336  12.062 52.621  8.092 55.003  1.462 51.795  0.613 51.595  -0.240 51.776  -2.345 52.737  -3.331 53.719  -3.949 55.062  -16.626 52.118  -26.188 44.376  -27.134 42.267  -27.142 42.249  -28.407 39.501  -34.340 23.807  -36.013 12.159  -33.931 3.413  -29.142 -6.322  -16.357 -12.274  -15.646 -12.829  -15.251 -13.641  -14.811 -15.564  -14.762 -16.086  -15.012 -22.662  -12.063 -26.692  -11.858 -27.042  -11.812 -27.143  -9.525 -26.553  -9.290 -26.508  -2.001 -25.533  -0.663 -25.827  0.171 -26.913  2.270 -33.566  3.128 -35.111  3.144 -35.146  9.685 -37.274  9.686 -37.274  11.213 -36.001  17.481 -28.841  18.281 -23.099  18.776 -22.036  24.382 -15.816  25.146 -15.290  26.064 -15.165  28.478 -15.403  35.458 -12.225  39.556 -6.886  46.962 5.418  46.901 9.526  45.592 27.424  " stroke="#000000" stroke-width="0.500mm" style="fill:none" />
</svg>
