<?xml version="1.0" encoding="UTF-8"?>
<!-- netfabb SVG Slice Export -->
<!-- Layer: 25 -->
<!-- Z-Height: 10.000 -->


<svg xmlns="http://www.w3.org/2000/svg"	xmlns:xlink="http://www.w3.org/1999/xlink" xmlns:ev="http://www.w3.org/2001/xml-events" version="1.1" baseProfile="full" width="100.000mm" height="122.943mm" viewBox="-49.999 -61.469 100.000 122.943" style="border: 0px; background-color: #FFFFFF"> 
<line x1="-17.642" y1="-27.613" x2="-15.572" y2="-29.682" stroke="#C0DCC0" stroke-width="0.500mm" />
<line x1="-34.977" y1="12.349" x2="10.620" y2="-33.248" stroke="#C0DCC0" stroke-width="0.500mm" />
<line x1="-30.924" y1="30.924" x2="20.118" y2="-20.118" stroke="#C0DCC0" stroke-width="0.500mm" />
<line x1="-24.470" y1="47.098" x2="32.396" y2="-9.769" stroke="#C0DCC0" stroke-width="0.500mm" />
<line x1="-9.815" y1="55.069" x2="42.037" y2="3.218" stroke="#C0DCC0" stroke-width="0.500mm" />
<line x1="14.655" y1="53.227" x2="35.005" y2="32.877" stroke="#C0DCC0" stroke-width="0.500mm" />
<line x1="41.144" y1="26.738" x2="41.444" y2="26.439" stroke="#C0DCC0" stroke-width="0.500mm" />
<polygon points="9.142 -40.708  9.838 -37.201  12.314 -35.110  19.034 -27.433  19.426 -24.622  23.809 -19.758  28.488 -18.888  29.931 -13.638  36.276 -10.749  38.202 -8.240  41.782 -2.291  45.931 5.008  45.022 11.787  43.817 28.262  38.540 30.685  35.158 39.389  34.174 41.067  32.883 42.493  19.749 55.402  15.603 55.468  8.630 59.651  2.444 61.029  -1.312 58.610  -17.006 56.722  -19.832 55.202  -28.520 46.606  -28.156 42.341  -30.952 37.118  -34.861 28.147  -37.898 10.046  -38.220 6.499  -33.768 0.909  -28.461 -6.836  -23.564 -9.384  -16.239 -14.166  -18.315 -16.260  -18.894 -23.962  -20.570 -25.749  -19.340 -31.815  -16.226 -32.645  -12.358 -31.078  -6.112 -39.291  -1.154 -32.384  -0.820 -44.101  2.284 -44.003  " stroke="#000000" stroke-width="0.500mm" style="fill:none" />
<polygon points="7.375 -39.338  7.876 -36.812  8.548 -35.673  10.908 -33.680  17.135 -26.566  17.445 -24.346  17.940 -23.283  22.323 -18.419  23.443 -17.792  26.892 -17.151  28.003 -13.108  28.409 -12.341  29.102 -11.818  34.994 -9.135  36.544 -7.115  40.058 -1.277  43.859 5.411  43.040 11.521  43.027 11.641  41.908 26.937  37.705 28.867  36.676 29.961  33.353 38.514  32.553 39.877  31.436 41.111  18.918 53.415  15.571 53.468  14.574 53.753  7.879 57.769  2.824 58.895  -0.229 56.929  -1.073 56.624  -16.394 54.781  -18.628 53.579  -26.447 45.843  -26.163 42.511  -26.393 41.397  -29.147 36.252  -32.930 27.574  -35.912 9.798  -36.156 7.117  -32.204 2.155  -32.118 2.039  -27.094 -5.293  -22.641 -7.610  -22.471 -7.709  -15.146 -12.491  -14.398 -13.385  -14.275 -14.544  -14.819 -15.574  -16.376 -17.145  -16.900 -24.112  -17.435 -25.330  -18.405 -26.364  -17.627 -30.201  -16.357 -30.540  -13.109 -29.224  -11.829 -29.149  -10.766 -29.867  -6.158 -35.926  -2.779 -31.218  -1.794 -30.489  -0.569 -30.472  0.437 -31.172  0.845 -32.327  1.122 -42.039  1.798 -42.017  " stroke="#000000" stroke-width="0.500mm" style="fill:none" />
</svg>
