<?xml version="1.0" encoding="UTF-8"?>
<!-- netfabb SVG Slice Export -->
<!-- Layer: 23 -->
<!-- Z-Height: 9.200 -->


<svg xmlns="http://www.w3.org/2000/svg"	xmlns:xlink="http://www.w3.org/1999/xlink" xmlns:ev="http://www.w3.org/2001/xml-events" version="1.1" baseProfile="full" width="100.000mm" height="122.943mm" viewBox="-49.999 -61.469 100.000 122.943" style="border: 0px; background-color: #FFFFFF"> 
<line x1="4.715" y1="-40.540" x2="7.075" y2="-38.180" stroke="#C0DCC0" stroke-width="0.500mm" />
<line x1="-9.257" y1="-31.885" x2="41.502" y2="18.874" stroke="#C0DCC0" stroke-width="0.500mm" />
<line x1="-13.765" y1="-13.765" x2="34.231" y2="34.231" stroke="#C0DCC0" stroke-width="0.500mm" />
<line x1="-26.846" y1="-4.218" x2="24.488" y2="47.115" stroke="#C0DCC0" stroke-width="0.500mm" />
<line x1="-34.969" y1="10.286" x2="10.631" y2="55.886" stroke="#C0DCC0" stroke-width="0.500mm" />
<line x1="-25.598" y1="42.284" x2="-13.913" y2="53.969" stroke="#C0DCC0" stroke-width="0.500mm" />
<polygon points="9.015 -41.246  9.975 -36.409  13.391 -33.524  18.988 -27.129  19.314 -24.788  22.965 -20.737  29.097 -19.597  30.988 -12.717  36.214 -10.337  37.800 -8.270  40.749 -3.371  45.496 4.982  44.457 12.739  43.326 28.197  38.375 30.470  34.690 39.953  33.965 41.190  33.012 42.242  19.459 55.563  15.938 55.618  10.016 59.172  2.202 60.911  -2.543 57.856  -17.161 56.097  -21.331 53.856  -28.490 46.772  -28.071 41.851  -29.753 38.709  -34.720 27.311  -37.366 11.536  -37.866 6.034  -30.960 -2.635  -28.174 -6.701  -25.604 -8.039  -16.121 -14.229  -18.808 -16.940  -19.351 -24.148  -21.430 -26.365  -19.904 -33.891  -18.225 -34.338  -12.343 -31.956  -2.844 -44.446  -1.428 -42.472  -1.332 -45.820  -0.445 -45.792  " stroke="#000000" stroke-width="0.500mm" style="fill:none" />
<polygon points="7.248 -39.876  8.013 -36.020  8.685 -34.881  11.985 -32.094  17.089 -26.262  17.333 -24.512  17.828 -23.449  21.479 -19.398  22.599 -18.771  27.501 -17.860  29.060 -12.187  29.466 -11.420  30.159 -10.897  34.931 -8.724  36.143 -7.144  39.025 -2.357  43.424 5.385  42.475 12.473  42.462 12.593  41.417 26.872  37.541 28.652  36.511 29.746  32.883 39.081  32.346 39.998  31.566 40.859  18.628 53.575  15.907 53.618  14.909 53.903  9.264 57.291  2.584 58.777  -1.460 56.174  -2.304 55.870  -16.547 54.156  -20.129 52.231  -26.418 46.009  -26.078 42.021  -26.308 40.907  -27.953 37.833  -32.789 26.738  -35.380 11.288  -35.801 6.652  -29.396 -1.389  -29.310 -1.505  -26.807 -5.157  -24.680 -6.265  -24.511 -6.364  -15.028 -12.554  -14.280 -13.448  -14.157 -14.606  -14.701 -15.637  -16.869 -17.825  -17.357 -24.298  -17.892 -25.516  -19.265 -26.980  -18.212 -32.174  -13.094 -30.102  -11.814 -30.027  -10.751 -30.745  -2.839 -41.148  -2.068 -40.577  -0.843 -40.559  0.163 -41.260  0.571 -42.415  0.590 -43.076  " stroke="#000000" stroke-width="0.500mm" style="fill:none" />
</svg>
