<?xml version="1.0" encoding="UTF-8"?>
<!-- netfabb SVG Slice Export -->
<!-- Layer: 35 -->
<!-- Z-Height: 14.000 -->


<svg xmlns="http://www.w3.org/2000/svg"	xmlns:xlink="http://www.w3.org/1999/xlink" xmlns:ev="http://www.w3.org/2001/xml-events" version="1.1" baseProfile="full" width="100.000mm" height="122.943mm" viewBox="-49.999 -61.469 100.000 122.943" style="border: 0px; background-color: #FFFFFF"> 
<line x1="8.803" y1="-36.452" x2="13.398" y2="-31.856" stroke="#C0DCC0" stroke-width="0.500mm" />
<line x1="34.027" y1="-11.228" x2="36.701" y2="-8.554" stroke="#C0DCC0" stroke-width="0.500mm" />
<line x1="-2.698" y1="-25.325" x2="44.275" y2="21.647" stroke="#C0DCC0" stroke-width="0.500mm" />
<line x1="-14.245" y1="-14.245" x2="35.306" y2="35.306" stroke="#C0DCC0" stroke-width="0.500mm" />
<line x1="-28.194" y1="-5.566" x2="24.863" y2="47.490" stroke="#C0DCC0" stroke-width="0.500mm" />
<line x1="-35.727" y1="9.528" x2="9.312" y2="54.567" stroke="#C0DCC0" stroke-width="0.500mm" />
<line x1="-28.813" y1="39.070" x2="-13.833" y2="54.049" stroke="#C0DCC0" stroke-width="0.500mm" />
<polygon points="48.103 5.140  47.850 7.028  46.273 28.586  39.368 31.757  37.497 36.572  35.222 40.452  32.236 43.750  21.198 54.598  13.928 54.713  4.930 60.112  2.464 58.919  1.781 59.230  1.360 60.146  -17.133 55.850  -24.598 49.806  -28.670 45.778  -28.586 44.791  -32.287 37.876  -35.695 28.862  -38.406 9.988  -37.161 4.759  -34.267 -1.125  -29.892 -7.509  -22.064 -11.584  -16.858 -14.005  -16.686 -14.757  -17.007 -23.213  -13.099 -28.554  -12.689 -29.452  -10.531 -28.894  -1.488 -27.685  1.190 -36.176  1.393 -36.543  1.449 -36.687  9.284 -39.237  9.801 -39.390  11.002 -38.389  19.265 -28.950  19.984 -23.790  26.253 -16.835  27.480 -16.955  36.585 -12.809  40.210 -8.087  46.947 3.107  " stroke="#000000" stroke-width="0.500mm" style="fill:none" />
<polygon points="45.868 6.762  45.855 6.882  44.364 27.261  38.533 29.939  37.504 31.033  35.692 35.697  33.601 39.262  30.789 42.368  20.367 52.611  13.896 52.713  12.899 52.998  4.828 57.841  3.335 57.119  2.487 56.919  1.635 57.099  0.952 57.410  0.474 57.887  -16.232 54.006  -23.259 48.317  -26.598 45.014  -26.593 44.961  -26.823 43.847  -30.461 37.049  -33.746 28.361  -36.372 10.081  -35.267 5.441  -32.535 -0.113  -28.524 -5.967  -21.173 -9.793  -16.015 -12.192  -15.303 -12.747  -14.908 -13.559  -14.736 -14.311  -14.687 -14.833  -14.982 -22.594  -11.668 -27.123  -11.032 -26.958  -10.796 -26.912  -1.753 -25.703  -0.415 -25.997  0.419 -27.083  2.937 -35.068  9.357 -37.157  9.599 -36.956  17.366 -28.083  18.003 -23.514  18.498 -22.451  24.767 -15.496  25.530 -14.970  26.448 -14.844  27.141 -14.912  35.303 -11.195  38.552 -6.962  45.213 4.104  46.031 5.544  " stroke="#000000" stroke-width="0.500mm" style="fill:none" />
</svg>
