<?xml version="1.0" encoding="UTF-8"?>
<!-- netfabb SVG Slice Export -->
<!-- Layer: 45 -->
<!-- Z-Height: 18.000 -->


<svg xmlns="http://www.w3.org/2000/svg"	xmlns:xlink="http://www.w3.org/1999/xlink" xmlns:ev="http://www.w3.org/2001/xml-events" version="1.1" baseProfile="full" width="100.000mm" height="122.943mm" viewBox="-49.999 -61.469 100.000 122.943" style="border: 0px; background-color: #FFFFFF"> 
<line x1="-34.603" y1="11.975" x2="12.251" y2="-34.878" stroke="#C0DCC0" stroke-width="0.500mm" />
<line x1="-30.011" y1="30.011" x2="19.917" y2="-19.917" stroke="#C0DCC0" stroke-width="0.500mm" />
<line x1="-22.512" y1="45.139" x2="35.373" y2="-12.745" stroke="#C0DCC0" stroke-width="0.500mm" />
<line x1="-0.657" y1="45.912" x2="44.518" y2="0.737" stroke="#C0DCC0" stroke-width="0.500mm" />
<line x1="16.492" y1="51.390" x2="46.329" y2="21.554" stroke="#C0DCC0" stroke-width="0.500mm" />
<polygon points="40.195 32.829  39.835 33.755  36.270 39.837  31.589 45.006  22.648 53.794  12.253 53.958  11.458 54.436  -1.281 48.271  -4.809 49.882  -6.987 54.613  -17.917 52.074  -25.564 45.883  -29.570 36.948  -34.116 27.070  -36.883 19.753  -37.688 14.143  -34.489 0.703  -30.449 -7.509  -29.778 -7.859  -29.182 -8.755  -17.544 -14.168  -16.836 -17.264  -17.067 -23.349  -14.255 -27.192  -13.179 -29.547  -7.519 -28.085  -1.984 -27.345  -0.345 -32.542  1.366 -35.622  1.833 -36.834  8.877 -39.126  10.487 -39.604  14.227 -36.486  19.496 -30.466  20.541 -22.959  25.483 -17.476  30.157 -17.937  36.895 -14.869  42.218 -7.934  48.844 3.076  49.077 5.075  48.720 28.909  48.617 28.962  " stroke="#000000" stroke-width="0.500mm" style="fill:none" />
<polygon points="39.360 31.011  38.331 32.104  38.027 32.885  34.651 38.646  30.143 43.623  21.817 51.807  12.221 51.958  11.409 52.191  -0.410 46.471  -1.259 46.271  -2.112 46.452  -5.640 48.063  -6.626 49.046  -8.122 52.296  -17.018 50.230  -23.934 44.630  -27.745 36.130  -27.753 36.112  -32.270 26.298  -34.934 19.252  -35.654 14.236  -32.595 1.385  -28.943 -6.039  -28.853 -6.086  -28.113 -6.751  -27.828 -7.180  -16.701 -12.355  -15.989 -12.910  -15.594 -13.722  -14.886 -16.818  -14.837 -17.340  -15.042 -22.730  -12.641 -26.011  -12.436 -26.361  -12.056 -27.192  -8.019 -26.149  -7.784 -26.103  -2.249 -25.363  -0.911 -25.657  -0.077 -26.743  1.502 -31.749  3.114 -34.651  3.232 -34.903  3.357 -35.226  9.491 -37.222  10.029 -37.382  12.826 -35.050  17.597 -29.599  18.560 -22.683  19.055 -21.620  23.997 -16.137  24.761 -15.611  25.679 -15.486  29.817 -15.894  35.611 -13.256  40.564 -6.803  46.907 3.736  47.075 5.178  46.739 27.623  " stroke="#000000" stroke-width="0.500mm" style="fill:none" />
</svg>
