<?xml version="1.0" encoding="UTF-8"?>
<!-- netfabb SVG Slice Export -->
<!-- Layer: 36 -->
<!-- Z-Height: 14.400 -->


<svg xmlns="http://www.w3.org/2000/svg"	xmlns:xlink="http://www.w3.org/1999/xlink" xmlns:ev="http://www.w3.org/2001/xml-events" version="1.1" baseProfile="full" width="100.000mm" height="122.943mm" viewBox="-49.999 -61.469 100.000 122.943" style="border: 0px; background-color: #FFFFFF"> 
<line x1="2.454" y1="-32.000" x2="13.428" y2="-32.000" stroke="#C0DCC0" stroke-width="0.500mm" />
<line x1="-14.237" y1="-16.000" x2="23.620" y2="-16.000" stroke="#C0DCC0" stroke-width="0.500mm" />
<line x1="-31.967" y1="0.000" x2="42.351" y2="0.000" stroke="#C0DCC0" stroke-width="0.500mm" />
<line x1="-35.005" y1="16.000" x2="44.934" y2="16.000" stroke="#C0DCC0" stroke-width="0.500mm" />
<line x1="-31.612" y1="32.000" x2="36.715" y2="32.000" stroke="#C0DCC0" stroke-width="0.500mm" />
<line x1="-22.468" y1="48.000" x2="24.408" y2="48.000" stroke="#C0DCC0" stroke-width="0.500mm" />
<polygon points="48.320 5.153  48.132 6.552  46.518 28.619  39.451 31.864  37.731 36.290  35.327 40.390  32.172 43.875  21.343 54.518  13.761 54.637  5.583 59.544  2.090 57.854  1.122 58.295  0.525 59.593  -17.211 55.472  -25.966 48.385  -28.685 45.695  -28.629 45.036  -31.101 40.418  -35.814 27.952  -38.334 10.404  -36.894 4.353  -33.545 -2.454  -30.035 -7.577  -23.754 -10.846  -16.927 -14.021  -16.701 -15.007  -17.013 -23.227  -13.214 -28.418  -12.738 -29.461  -10.230 -28.814  -1.537 -27.651  1.036 -35.813  1.391 -36.451  1.487 -36.702  9.244 -39.226  9.870 -39.411  11.325 -38.198  19.288 -29.101  20.039 -23.707  26.176 -16.899  27.748 -17.054  36.616 -13.015  40.411 -8.072  47.464 3.647  " stroke="#000000" stroke-width="0.500mm" style="fill:none" />
<polygon points="46.150 6.286  46.137 6.406  44.609 27.294  38.616 30.046  37.587 31.140  35.926 35.415  33.706 39.200  30.725 42.493  20.512 52.531  13.730 52.637  12.732 52.922  5.481 57.273  2.961 56.054  2.113 55.854  1.261 56.034  0.293 56.475  -0.530 57.295  -16.310 53.628  -24.628 46.895  -26.713 44.832  -26.866 44.092  -29.275 39.591  -33.865 27.451  -36.300 10.497  -35.000 5.035  -31.812 -1.446  -28.668 -6.034  -22.863 -9.055  -16.084 -12.208  -15.372 -12.763  -14.978 -13.574  -14.752 -14.560  -14.702 -15.083  -14.988 -22.608  -11.683 -27.123  -10.730 -26.877  -10.495 -26.832  -1.802 -25.669  -0.464 -25.963  0.370 -27.050  2.881 -35.015  2.906 -35.060  9.422 -37.181  9.924 -36.762  17.389 -28.234  18.058 -23.431  18.553 -22.368  24.690 -15.560  25.454 -15.034  26.372 -14.909  27.408 -15.011  35.334 -11.401  38.753 -6.947  45.740 4.661  46.248 5.555  " stroke="#000000" stroke-width="0.500mm" style="fill:none" />
</svg>
