<?xml version="1.0" encoding="UTF-8"?>
<!-- netfabb SVG Slice Export -->
<!-- Layer: 38 -->
<!-- Z-Height: 15.200 -->


<svg xmlns="http://www.w3.org/2000/svg"	xmlns:xlink="http://www.w3.org/1999/xlink" xmlns:ev="http://www.w3.org/2001/xml-events" version="1.1" baseProfile="full" width="100.000mm" height="122.943mm" viewBox="-49.999 -61.469 100.000 122.943" style="border: 0px; background-color: #FFFFFF"> 
<line x1="-32.000" y1="29.778" x2="-32.000" y2="0.343" stroke="#C0DCC0" stroke-width="0.500mm" />
<line x1="-16.000" y1="52.469" x2="-16.000" y2="-11.795" stroke="#C0DCC0" stroke-width="0.500mm" />
<line x1="0.000" y1="53.588" x2="0.000" y2="-25.858" stroke="#C0DCC0" stroke-width="0.500mm" />
<line x1="16.000" y1="51.945" x2="16.000" y2="-29.417" stroke="#C0DCC0" stroke-width="0.500mm" />
<line x1="32.000" y1="40.448" x2="32.000" y2="-12.810" stroke="#C0DCC0" stroke-width="0.500mm" />
<polygon points="48.754 5.180  48.698 5.600  47.010 28.684  39.616 32.078  38.198 35.727  35.537 40.267  32.042 44.126  21.633 54.357  13.426 54.486  6.888 58.409  1.341 55.724  -0.196 56.426  -1.144 58.486  -17.368 54.717  -28.715 45.529  -36.051 26.130  -38.191 11.235  -36.359 3.542  -32.102 -5.112  -30.321 -7.711  -27.134 -9.370  -17.064 -14.054  -16.731 -15.509  -17.025 -23.254  -13.446 -28.145  -12.836 -29.480  -9.628 -28.652  -1.636 -27.583  0.730 -35.086  1.385 -36.266  1.564 -36.731  9.162 -39.204  10.007 -39.454  11.970 -37.818  19.334 -29.405  20.151 -23.541  26.022 -17.027  28.283 -17.250  36.678 -13.427  40.812 -8.041  48.497 4.727  " stroke="#000000" stroke-width="0.500mm" style="fill:none" />
<polygon points="38.782 30.260  37.752 31.354  36.391 34.855  33.918 39.075  30.596 42.743  20.802 52.370  13.395 52.486  12.397 52.771  6.786 56.138  2.212 53.924  1.363 53.724  0.510 53.905  -1.027 54.607  -2.013 55.590  -2.279 56.169  -16.467 52.873  -27.036 44.315  -34.102 25.629  -36.157 11.328  -34.465 4.224  -30.370 -4.100  -28.953 -6.169  -26.252 -7.575  -16.220 -12.241  -15.509 -12.796  -15.114 -13.608  -14.781 -15.063  -14.732 -15.585  -15.000 -22.635  -11.832 -26.964  -11.735 -27.130  -10.128 -26.715  -9.893 -26.670  -1.901 -25.601  -0.563 -25.895  0.271 -26.982  2.575 -34.287  3.028 -35.104  9.555 -37.228  10.567 -36.385  17.435 -28.538  18.170 -23.265  18.665 -22.202  24.536 -15.688  25.300 -15.162  26.218 -15.037  27.943 -15.207  35.394 -11.814  39.158 -6.910  46.692 5.607  45.101 27.359  " stroke="#000000" stroke-width="0.500mm" style="fill:none" />
</svg>
