<?xml version="1.0" encoding="UTF-8"?>
<!-- netfabb SVG Slice Export -->
<!-- Layer: 42 -->
<!-- Z-Height: 16.800 -->


<svg xmlns="http://www.w3.org/2000/svg"	xmlns:xlink="http://www.w3.org/1999/xlink" xmlns:ev="http://www.w3.org/2001/xml-events" version="1.1" baseProfile="full" width="100.000mm" height="122.943mm" viewBox="-49.999 -61.469 100.000 122.943" style="border: 0px; background-color: #FFFFFF"> 
<line x1="32.000" y1="-13.692" x2="32.000" y2="40.665" stroke="#C0DCC0" stroke-width="0.500mm" />
<line x1="16.000" y1="-30.132" x2="16.000" y2="51.633" stroke="#C0DCC0" stroke-width="0.500mm" />
<line x1="0.000" y1="-25.979" x2="0.000" y2="48.997" stroke="#C0DCC0" stroke-width="0.500mm" />
<line x1="-16.000" y1="-12.074" x2="-16.000" y2="51.030" stroke="#C0DCC0" stroke-width="0.500mm" />
<line x1="-32.000" y1="0.895" x2="-32.000" y2="27.387" stroke="#C0DCC0" stroke-width="0.500mm" />
<polygon points="47.992 28.814  39.947 32.507  39.134 34.600  35.956 40.021  31.783 44.629  22.213 54.036  12.756 54.185  9.499 56.138  -0.158 51.466  -2.832 52.686  -4.483 56.273  -17.681 53.206  -26.916 45.731  -29.203 40.630  -31.798 34.992  -36.526 22.486  -37.904 12.896  -35.290 1.920  -30.551 -7.716  -30.287 -7.853  -30.053 -8.206  -17.338 -14.119  -16.791 -16.512  -17.049 -23.308  -13.908 -27.601  -13.032 -29.519  -8.423 -28.328  -1.835 -27.447  0.116 -33.633  1.374 -35.898  1.718 -36.790  8.999 -39.159  10.281 -39.540  13.259 -37.057  19.427 -30.011  20.374 -23.208  25.714 -17.284  29.354 -17.643  36.802 -14.251  41.615 -7.980  48.892 4.109  49.011 5.132  48.828 17.380  " stroke="#000000" stroke-width="0.500mm" style="fill:none" />
<polygon points="39.113 30.689  38.083 31.783  37.327 33.728  34.337 38.829  30.337 43.246  21.382 52.049  12.724 52.185  11.727 52.470  9.397 53.867  0.713 49.666  -0.135 49.466  -0.988 49.646  -3.662 50.866  -4.649 51.850  -5.618 53.956  -16.780 51.362  -25.287 44.477  -27.378 39.812  -27.386 39.794  -29.952 34.220  -34.577 21.985  -35.870 12.989  -33.396 2.602  -28.938 -6.462  -28.806 -6.581  -16.495 -12.306  -15.783 -12.861  -15.388 -13.673  -14.841 -16.066  -14.792 -16.588  -15.024 -22.689  -12.294 -26.420  -12.089 -26.770  -11.909 -27.164  -8.923 -26.392  -8.688 -26.346  -2.100 -25.465  -0.762 -25.759  0.072 -26.845  1.963 -32.840  3.122 -34.927  3.240 -35.178  3.242 -35.182  9.602 -37.252  9.823 -37.318  11.858 -35.621  17.528 -29.144  18.393 -22.932  18.888 -21.869  24.228 -15.945  24.992 -15.419  25.910 -15.294  29.014 -15.600  35.518 -12.638  39.961 -6.849  46.955 4.769  47.009 5.234  46.829 17.290  46.083 27.489  " stroke="#000000" stroke-width="0.500mm" style="fill:none" />
</svg>
