<?xml version="1.0" encoding="UTF-8"?>
<!-- netfabb SVG Slice Export -->
<!-- Layer: 29 -->
<!-- Z-Height: 11.600 -->


<svg xmlns="http://www.w3.org/2000/svg"	xmlns:xlink="http://www.w3.org/1999/xlink" xmlns:ev="http://www.w3.org/2001/xml-events" version="1.1" baseProfile="full" width="100.000mm" height="122.943mm" viewBox="-49.999 -61.469 100.000 122.943" style="border: 0px; background-color: #FFFFFF"> 
<line x1="-35.460" y1="12.832" x2="10.953" y2="-33.581" stroke="#C0DCC0" stroke-width="0.500mm" />
<line x1="-31.630" y1="31.630" x2="20.078" y2="-20.078" stroke="#C0DCC0" stroke-width="0.500mm" />
<line x1="-24.333" y1="46.961" x2="33.001" y2="-10.374" stroke="#C0DCC0" stroke-width="0.500mm" />
<line x1="-10.895" y1="56.150" x2="42.572" y2="2.683" stroke="#C0DCC0" stroke-width="0.500mm" />
<line x1="15.221" y1="52.661" x2="35.821" y2="32.061" stroke="#C0DCC0" stroke-width="0.500mm" />
<line x1="40.070" y1="27.812" x2="42.514" y2="25.368" stroke="#C0DCC0" stroke-width="0.500mm" />
<polygon points="9.396 -39.631  9.564 -38.786  10.161 -38.282  19.127 -28.039  19.649 -24.289  25.497 -17.800  27.270 -17.471  27.817 -15.482  36.400 -11.573  39.005 -8.179  43.848 -0.132  46.799 5.061  46.153 9.883  44.800 28.392  38.871 31.114  36.094 38.262  34.594 40.821  32.624 42.996  20.329 55.081  14.933 55.166  5.858 60.611  2.928 61.263  1.148 60.117  -16.695 57.970  -16.836 57.895  -28.580 46.275  -28.328 43.321  -33.352 33.936  -35.145 29.821  -38.521 9.694  -38.836 7.496  -38.764 7.192  -38.596 6.850  -29.033 -7.105  -19.484 -12.075  -16.474 -14.040  -17.327 -14.900  -17.981 -23.590  -18.850 -24.517  -18.212 -27.664  -12.552 -29.171  -12.405 -29.371  -12.395 -29.395  -12.339 -29.380  -1.190 -27.889  -0.057 -31.484  0.205 -40.664  7.744 -40.425  " stroke="#000000" stroke-width="0.500mm" style="fill:none" />
<polygon points="7.703 -38.226  8.274 -37.258  8.755 -36.852  17.228 -27.172  17.668 -24.013  18.163 -22.950  24.011 -16.461  25.132 -15.834  25.674 -15.733  25.889 -14.952  26.295 -14.185  26.988 -13.662  35.116 -9.960  37.351 -7.048  42.124 0.882  44.727 5.464  44.171 9.617  44.158 9.737  42.891 27.067  38.037 29.296  37.007 30.390  34.287 37.390  32.975 39.629  31.178 41.613  19.498 53.094  14.901 53.166  13.904 53.451  5.106 58.730  3.310 59.129  2.231 58.435  1.387 58.131  -15.849 56.057  -26.507 45.512  -26.335 43.491  -26.565 42.377  -31.547 33.071  -33.214 29.244  -36.541 9.410  -36.541 9.410  -36.780 7.739  -27.665 -5.563  -18.561 -10.301  -18.391 -10.400  -15.381 -12.365  -14.633 -13.259  -14.510 -14.418  -15.054 -15.448  -15.388 -15.785  -15.987 -23.740  -16.522 -24.958  -16.685 -25.132  -16.499 -26.050  -12.037 -27.238  -11.934 -27.308  -1.455 -25.907  -0.117 -26.201  0.718 -27.288  1.851 -30.883  1.942 -31.427  2.147 -38.601  7.258 -38.439  " stroke="#000000" stroke-width="0.500mm" style="fill:none" />
</svg>
