<?xml version="1.0" encoding="UTF-8"?>
<!-- netfabb SVG Slice Export -->
<!-- Layer: 8 -->
<!-- Z-Height: 3.200 -->


<svg xmlns="http://www.w3.org/2000/svg"	xmlns:xlink="http://www.w3.org/1999/xlink" xmlns:ev="http://www.w3.org/2001/xml-events" version="1.1" baseProfile="full" width="100.000mm" height="122.943mm" viewBox="-49.999 -61.469 100.000 122.943" style="border: 0px; background-color: #FFFFFF"> 
<line x1="-24.201" y1="-32.000" x2="8.148" y2="-32.000" stroke="#C0DCC0" stroke-width="0.500mm" />
<line x1="-13.221" y1="-16.000" x2="31.349" y2="-16.000" stroke="#C0DCC0" stroke-width="0.500mm" />
<line x1="-28.351" y1="0.000" x2="36.644" y2="0.000" stroke="#C0DCC0" stroke-width="0.500mm" />
<line x1="-31.755" y1="16.000" x2="38.212" y2="16.000" stroke="#C0DCC0" stroke-width="0.500mm" />
<line x1="-28.681" y1="32.000" x2="33.233" y2="32.000" stroke="#C0DCC0" stroke-width="0.500mm" />
<line x1="-19.396" y1="48.000" x2="21.860" y2="48.000" stroke="#C0DCC0" stroke-width="0.500mm" />
<polygon points="3.401 58.865  1.106 59.375  -3.949 57.238  -11.771 52.202  -18.326 51.414  -25.482 47.567  -28.774 42.880  -33.447 22.296  -33.797 20.318  -35.591 3.932  -30.676 -1.189  -21.734 -10.462  -15.240 -14.701  -22.512 -22.040  -22.776 -25.541  -27.881 -30.983  -27.613 -32.303  -22.213 -37.127  -15.397 -39.821  -12.231 -38.538  -8.370 -43.615  -3.361 -48.968  2.903 -47.763  8.062 -45.283  11.001 -30.466  17.249 -25.189  21.718 -25.089  32.242 -23.485  34.745 -12.260  36.617 -5.106  42.238 4.784  40.216 19.878  39.643 27.710  37.134 28.863  34.316 36.115  28.433 44.818  18.246 55.315  14.933 56.306  " stroke="#000000" stroke-width="0.500mm" style="fill:none" />
<polygon points="2.968 56.912  2.967 56.913  1.297 57.284  -3.008 55.464  -10.688 50.520  -11.532 50.216  -17.712 49.473  -24.117 46.030  -26.912 42.051  -31.487 21.897  -31.815 20.041  -33.501 4.643  -29.233 0.196  -29.233 0.196  -20.451 -8.911  -14.147 -13.026  -13.399 -13.920  -13.276 -15.078  -13.819 -16.109  -20.573 -22.926  -20.782 -25.691  -21.317 -26.909  -25.572 -31.445  -21.146 -35.398  -15.407 -37.667  -12.982 -36.684  -11.702 -36.609  -10.639 -37.327  -6.839 -42.324  -2.655 -46.795  2.268 -45.848  6.295 -43.913  9.039 -30.077  9.711 -28.938  15.959 -23.661  17.204 -23.190  21.542 -23.093  30.588 -21.714  32.793 -11.825  32.810 -11.754  34.682 -4.600  34.878 -4.118  40.166 5.187  38.234 19.612  38.221 19.732  37.734 26.386  36.299 27.046  35.270 28.139  32.534 35.180  26.875 43.552  17.174 53.548  14.437 54.367  " stroke="#000000" stroke-width="0.500mm" style="fill:none" />
</svg>
