<?xml version="1.0" encoding="UTF-8"?>
<!-- netfabb SVG Slice Export -->
<!-- Layer: 27 -->
<!-- Z-Height: 10.800 -->


<svg xmlns="http://www.w3.org/2000/svg"	xmlns:xlink="http://www.w3.org/1999/xlink" xmlns:ev="http://www.w3.org/2001/xml-events" version="1.1" baseProfile="full" width="100.000mm" height="122.943mm" viewBox="-49.999 -61.469 100.000 122.943" style="border: 0px; background-color: #FFFFFF"> 
<line x1="6.554" y1="-38.701" x2="7.126" y2="-38.129" stroke="#C0DCC0" stroke-width="0.500mm" />
<line x1="-3.073" y1="-25.700" x2="42.426" y2="19.798" stroke="#C0DCC0" stroke-width="0.500mm" />
<line x1="-13.966" y1="-13.966" x2="34.590" y2="34.590" stroke="#C0DCC0" stroke-width="0.500mm" />
<line x1="-27.295" y1="-4.668" x2="24.613" y2="47.241" stroke="#C0DCC0" stroke-width="0.500mm" />
<line x1="-35.731" y1="9.524" x2="10.191" y2="55.446" stroke="#C0DCC0" stroke-width="0.500mm" />
<line x1="-25.988" y1="41.895" x2="-12.536" y2="55.346" stroke="#C0DCC0" stroke-width="0.500mm" />
<polygon points="9.269 -40.169  9.701 -37.994  11.237 -36.696  19.080 -27.736  19.537 -24.455  24.653 -18.779  27.879 -18.179  28.874 -14.560  36.338 -11.161  38.604 -8.209  42.815 -1.212  46.365 5.034  45.588 10.835  44.308 28.327  38.706 30.899  35.626 38.826  34.384 40.944  32.754 42.745  20.039 55.241  15.268 55.317  7.244 60.131  2.686 61.146  -0.082 59.363  -16.851 57.346  -18.334 56.548  -28.550 46.441  -28.242 42.831  -32.152 35.527  -35.003 28.984  -38.429 8.556  -38.574 6.963  -36.575 4.453  -28.747 -6.970  -21.524 -10.730  -16.356 -14.103  -17.821 -15.580  -18.438 -23.776  -19.710 -25.133  -18.776 -29.739  -14.226 -30.951  -12.373 -30.200  -9.380 -34.136  -5.354 -28.527  -1.091 -27.957  -0.682 -29.255  -0.307 -42.383  5.014 -42.214  " stroke="#000000" stroke-width="0.500mm" style="fill:none" />
<polygon points="7.502 -38.799  7.739 -37.604  8.410 -36.466  9.833 -35.263  17.181 -26.869  17.556 -24.179  18.051 -23.116  23.167 -17.440  24.287 -16.813  26.283 -16.442  26.946 -14.030  27.352 -13.263  28.045 -12.740  35.056 -9.547  36.946 -7.084  41.091 -0.198  44.293 5.437  43.606 10.569  43.593 10.689  42.399 27.002  37.872 29.081  36.842 30.175  33.821 37.951  32.763 39.754  31.307 41.363  19.208 53.254  15.236 53.317  14.239 53.602  6.493 58.249  3.066 59.012  1.001 57.682  0.157 57.377  -16.237 55.405  -17.131 54.924  -26.477 45.678  -26.249 43.001  -26.479 41.887  -30.347 34.662  -33.072 28.407  -36.443 8.308  -36.509 7.580  -35.011 5.699  -34.925 5.584  -27.379 -5.428  -20.601 -8.956  -20.431 -9.055  -15.263 -12.428  -14.515 -13.322  -14.392 -14.481  -14.936 -15.511  -15.882 -16.465  -16.444 -23.926  -16.979 -25.144  -17.545 -25.748  -17.063 -28.125  -14.357 -28.846  -13.124 -28.346  -11.844 -28.271  -10.781 -28.989  -9.426 -30.771  -6.979 -27.361  -6.383 -26.812  -5.619 -26.545  -1.356 -25.975  -0.018 -26.269  0.817 -27.356  1.226 -28.654  1.317 -29.198  1.635 -40.320  4.528 -40.228  " stroke="#000000" stroke-width="0.500mm" style="fill:none" />
</svg>
