<?xml version="1.0" encoding="UTF-8"?>
<!-- netfabb SVG Slice Export -->
<!-- Layer: 12 -->
<!-- Z-Height: 4.800 -->


<svg xmlns="http://www.w3.org/2000/svg"	xmlns:xlink="http://www.w3.org/1999/xlink" xmlns:ev="http://www.w3.org/2001/xml-events" version="1.1" baseProfile="full" width="100.000mm" height="122.943mm" viewBox="-49.999 -61.469 100.000 122.943" style="border: 0px; background-color: #FFFFFF"> 
<line x1="-23.155" y1="-32.000" x2="8.189" y2="-32.000" stroke="#C0DCC0" stroke-width="0.500mm" />
<line x1="-13.522" y1="-16.000" x2="31.577" y2="-16.000" stroke="#C0DCC0" stroke-width="0.500mm" />
<line x1="-29.081" y1="0.000" x2="37.484" y2="0.000" stroke="#C0DCC0" stroke-width="0.500mm" />
<line x1="-32.269" y1="16.000" x2="39.088" y2="16.000" stroke="#C0DCC0" stroke-width="0.500mm" />
<line x1="-28.851" y1="32.000" x2="33.730" y2="32.000" stroke="#C0DCC0" stroke-width="0.500mm" />
<line x1="-21.409" y1="48.000" x2="22.610" y2="48.000" stroke="#C0DCC0" stroke-width="0.500mm" />
<polygon points="-30.454 37.468  -32.346 26.366  -33.940 22.707  -34.440 19.729  -35.829 4.452  -35.930 3.526  -29.795 -2.866  -23.650 -9.239  -15.475 -14.575  -21.524 -20.680  -21.862 -25.169  -26.161 -29.752  -25.386 -33.572  -21.692 -36.872  -17.029 -38.715  -12.261 -36.783  -6.445 -44.430  -2.848 -48.275  1.653 -47.409  8.317 -44.207  10.727 -32.051  18.449 -25.529  19.364 -25.509  31.827 -23.609  32.446 -23.494  32.562 -23.071  35.579 -9.541  36.128 -7.443  43.107 4.836  41.347 17.974  40.625 27.840  37.465 29.291  33.915 38.427  30.541 43.419  18.569 55.755  17.865 56.447  17.781 56.449  17.639 56.534  0.873 60.267  -9.310 53.710  -18.015 52.663  -27.519 47.554  -28.472 46.197  " stroke="#000000" stroke-width="0.500mm" style="fill:none" />
<polygon points="-30.374 26.030  -30.512 25.567  -32.009 22.130  -32.454 19.481  -33.837 4.271  -33.841 4.238  -28.352 -1.481  -28.352 -1.481  -22.367 -7.688  -14.382 -12.900  -13.634 -13.794  -13.511 -14.952  -14.054 -15.983  -19.585 -21.566  -19.868 -25.319  -20.403 -26.537  -23.996 -30.367  -23.558 -32.523  -20.625 -35.143  -17.039 -36.561  -13.012 -34.929  -11.732 -34.854  -10.669 -35.572  -4.914 -43.139  -2.142 -46.102  1.020 -45.494  6.549 -42.837  8.765 -31.662  9.436 -30.523  17.158 -24.001  18.405 -23.529  19.196 -23.512  30.810 -21.741  33.627 -9.106  33.644 -9.035  34.193 -6.937  34.389 -6.455  41.035 5.239  39.365 17.708  39.352 17.828  38.716 26.515  36.630 27.473  35.601 28.567  32.133 37.492  28.983 42.153  17.146 54.350  16.823 54.667  1.254 58.133  -8.227 52.028  -9.071 51.724  -17.401 50.722  -26.155 46.016  -26.609 45.369  -28.489 37.091  " stroke="#000000" stroke-width="0.500mm" style="fill:none" />
</svg>
