<?xml version="1.0" encoding="UTF-8"?>
<!-- netfabb SVG Slice Export -->
<!-- Layer: 16 -->
<!-- Z-Height: 6.400 -->


<svg xmlns="http://www.w3.org/2000/svg"	xmlns:xlink="http://www.w3.org/1999/xlink" xmlns:ev="http://www.w3.org/2001/xml-events" version="1.1" baseProfile="full" width="100.000mm" height="122.943mm" viewBox="-49.999 -61.469 100.000 122.943" style="border: 0px; background-color: #FFFFFF"> 
<line x1="-21.185" y1="-32.000" x2="8.680" y2="-32.000" stroke="#C0DCC0" stroke-width="0.500mm" />
<line x1="-13.823" y1="-16.000" x2="30.305" y2="-16.000" stroke="#C0DCC0" stroke-width="0.500mm" />
<line x1="-29.811" y1="0.000" x2="38.321" y2="0.000" stroke="#C0DCC0" stroke-width="0.500mm" />
<line x1="-33.062" y1="16.000" x2="39.976" y2="16.000" stroke="#C0DCC0" stroke-width="0.500mm" />
<line x1="-28.177" y1="32.000" x2="34.227" y2="32.000" stroke="#C0DCC0" stroke-width="0.500mm" />
<line x1="-23.422" y1="48.000" x2="23.145" y2="48.000" stroke="#C0DCC0" stroke-width="0.500mm" />
<polygon points="8.571 -43.130  10.454 -33.636  17.159 -27.972  18.827 -26.068  18.924 -25.370  20.011 -24.163  31.228 -22.077  34.688 -9.491  35.997 -8.895  36.395 -8.377  37.134 -7.150  43.976 4.889  42.478 16.070  41.607 27.970  37.796 29.720  33.514 40.738  32.649 42.019  29.578 45.183  18.445 56.126  17.111 56.147  14.867 57.493  1.356 60.501  -6.849 55.218  -17.705 53.912  -26.574 49.144  -28.385 47.353  -28.197 45.146  -30.138 33.757  -34.224 24.381  -35.504 16.750  -36.626 4.409  -32.335 -0.979  -28.914 -4.544  -25.565 -8.016  -15.710 -14.449  -20.537 -19.320  -20.949 -24.798  -24.441 -28.520  -23.159 -34.841  -21.171 -36.617  -18.662 -37.609  -12.291 -35.028  -4.521 -45.245  -2.334 -47.582  0.402 -47.056  " stroke="#000000" stroke-width="0.500mm" style="fill:none" />
<polygon points="6.804 -41.760  8.492 -33.247  9.163 -32.108  15.756 -26.538  16.928 -25.201  16.943 -25.095  17.438 -24.032  18.525 -22.825  19.645 -22.197  29.632 -20.340  32.760 -8.961  33.166 -8.194  33.859 -7.671  34.714 -7.282  34.742 -7.245  35.403 -6.147  41.904 5.292  40.496 15.804  40.483 15.924  39.698 26.645  36.961 27.902  35.932 28.996  31.732 39.802  31.089 40.755  28.155 43.778  17.614 54.139  17.080 54.147  16.082 54.432  14.116 55.611  1.737 58.367  -5.766 53.536  -6.610 53.232  -17.091 51.971  -25.375 47.518  -26.313 46.590  -26.204 45.316  -26.225 44.810  -28.166 33.421  -28.305 32.958  -32.293 23.808  -33.518 16.502  -34.561 5.026  -30.831 0.343  -27.471 -3.159  -27.472 -3.160  -24.285 -6.463  -14.617 -12.774  -13.869 -13.668  -13.746 -14.826  -14.289 -15.857  -18.598 -20.206  -18.955 -24.948  -19.490 -26.166  -22.276 -29.135  -21.331 -33.792  -20.104 -34.888  -18.672 -35.455  -13.042 -33.174  -11.762 -33.099  -10.699 -33.817  -2.990 -43.954  -1.628 -45.410  -0.231 -45.141  " stroke="#000000" stroke-width="0.500mm" style="fill:none" />
</svg>
