<?xml version="1.0" encoding="UTF-8"?>
<!-- netfabb SVG Slice Export -->
<!-- Layer: 19 -->
<!-- Z-Height: 7.600 -->


<svg xmlns="http://www.w3.org/2000/svg"	xmlns:xlink="http://www.w3.org/1999/xlink" xmlns:ev="http://www.w3.org/2001/xml-events" version="1.1" baseProfile="full" width="100.000mm" height="122.943mm" viewBox="-49.999 -61.469 100.000 122.943" style="border: 0px; background-color: #FFFFFF"> 
<line x1="2.876" y1="-42.379" x2="7.024" y2="-38.231" stroke="#C0DCC0" stroke-width="0.500mm" />
<line x1="25.976" y1="-19.278" x2="29.041" y2="-16.214" stroke="#C0DCC0" stroke-width="0.500mm" />
<line x1="-9.998" y1="-32.625" x2="40.577" y2="17.950" stroke="#C0DCC0" stroke-width="0.500mm" />
<line x1="-13.565" y1="-13.565" x2="33.873" y2="33.873" stroke="#C0DCC0" stroke-width="0.500mm" />
<line x1="-26.570" y1="-3.942" x2="24.363" y2="46.990" stroke="#C0DCC0" stroke-width="0.500mm" />
<line x1="-34.097" y1="11.158" x2="10.832" y2="56.086" stroke="#C0DCC0" stroke-width="0.500mm" />
<line x1="-25.517" y1="42.365" x2="-15.289" y2="52.593" stroke="#C0DCC0" stroke-width="0.500mm" />
<polygon points="8.761 -42.323  10.248 -34.824  15.544 -30.351  18.896 -26.523  19.091 -25.121  21.277 -22.695  30.315 -21.014  33.102 -10.874  36.090 -9.513  36.997 -8.331  38.683 -5.530  44.628 4.929  43.326 14.643  42.344 28.067  38.044 30.042  33.755 41.080  33.546 41.436  33.271 41.740  18.880 55.885  16.608 55.920  12.788 58.212  1.719 60.677  -5.004 56.348  -17.472 54.849  -24.327 51.164  -28.430 47.104  -28.004 42.105  -28.482 39.300  -34.436 25.637  -36.302 14.515  -37.157 5.105  -29.531 -4.469  -27.001 -7.099  -15.886 -14.355  -19.796 -18.300  -20.264 -24.519  -23.151 -27.596  -21.488 -35.793  -20.780 -36.426  -19.886 -36.779  -12.313 -33.711  -3.077 -45.856  -1.948 -47.062  -0.536 -46.791  " stroke="#000000" stroke-width="0.500mm" style="fill:none" />
<polygon points="6.993 -40.953  8.286 -34.435  8.958 -33.296  14.135 -28.924  16.997 -25.654  17.110 -24.845  17.605 -23.782  19.791 -21.356  20.911 -20.729  28.719 -19.277  31.174 -10.344  31.580 -9.577  32.273 -9.054  34.806 -7.900  35.343 -7.200  36.959 -4.516  42.556 5.332  41.344 14.377  41.331 14.497  40.435 26.743  37.209 28.225  36.180 29.318  31.951 40.202  31.924 40.248  31.824 40.358  18.049 53.897  16.577 53.920  15.579 54.205  12.037 56.330  2.100 58.543  -3.921 54.666  -4.765 54.362  -16.858 52.908  -23.125 49.539  -26.357 46.341  -26.011 42.275  -26.032 41.769  -26.510 38.964  -26.649 38.501  -32.505 25.064  -34.316 14.267  -35.092 5.723  -28.028 -3.147  -25.717 -5.549  -14.793 -12.680  -14.045 -13.574  -13.922 -14.732  -14.465 -15.763  -17.857 -19.185  -18.270 -24.669  -18.805 -25.887  -20.985 -28.211  -19.700 -34.546  -13.064 -31.857  -11.784 -31.782  -10.721 -32.500  -1.546 -44.565  -1.242 -44.890  -1.169 -44.876  " stroke="#000000" stroke-width="0.500mm" style="fill:none" />
</svg>
