<?xml version="1.0" encoding="UTF-8"?>
<!-- netfabb SVG Slice Export -->
<!-- Layer: 41 -->
<!-- Z-Height: 16.400 -->


<svg xmlns="http://www.w3.org/2000/svg"	xmlns:xlink="http://www.w3.org/1999/xlink" xmlns:ev="http://www.w3.org/2001/xml-events" version="1.1" baseProfile="full" width="100.000mm" height="122.943mm" viewBox="-49.999 -61.469 100.000 122.943" style="border: 0px; background-color: #FFFFFF"> 
<line x1="-35.407" y1="12.779" x2="11.950" y2="-34.577" stroke="#C0DCC0" stroke-width="0.500mm" />
<line x1="-30.899" y1="30.899" x2="19.957" y2="-19.957" stroke="#C0DCC0" stroke-width="0.500mm" />
<line x1="-23.206" y1="45.833" x2="34.815" y2="-12.188" stroke="#C0DCC0" stroke-width="0.500mm" />
<line x1="-7.995" y1="53.250" x2="44.039" y2="1.215" stroke="#C0DCC0" stroke-width="0.500mm" />
<line x1="16.174" y1="51.709" x2="45.724" y2="22.159" stroke="#C0DCC0" stroke-width="0.500mm" />
<polygon points="47.746 28.781  39.864 32.400  38.900 34.881  35.851 40.083  31.848 44.503  22.068 54.116  12.923 54.260  8.847 56.706  0.217 52.530  -2.173 53.621  -3.649 56.826  -17.603 53.584  -27.367 45.680  -29.081 41.858  -31.025 37.632  -36.408 23.397  -37.975 12.481  -35.558 2.325  -30.584 -7.785  -30.457 -7.852  -30.343 -8.022  -17.269 -14.103  -16.776 -16.261  -17.043 -23.294  -13.792 -27.737  -12.983 -29.509  -8.724 -28.409  -1.785 -27.481  0.269 -33.996  1.377 -35.990  1.680 -36.775  9.040 -39.170  10.213 -39.518  12.937 -37.247  19.404 -29.860  20.318 -23.291  25.791 -17.220  29.086 -17.544  36.771 -14.045  41.415 -7.995  48.907 4.454  48.988 5.151  48.864 13.498  " stroke="#000000" stroke-width="0.500mm" style="fill:none" />
<polygon points="39.029 30.582  38.000 31.676  37.093 34.009  34.232 38.891  30.402 43.120  21.237 52.129  12.892 52.260  11.894 52.545  8.745 54.435  1.088 50.730  0.239 50.530  -0.614 50.711  -3.004 51.802  -3.990 52.784  -4.784 54.509  -16.702 51.740  -25.738 44.426  -27.256 41.040  -27.264 41.022  -29.179 36.860  -34.459 22.896  -35.941 12.574  -33.664 3.007  -29.020 -6.432  -16.426 -12.290  -15.714 -12.845  -15.319 -13.658  -14.826 -15.816  -14.777 -16.337  -15.018 -22.675  -12.178 -26.556  -11.973 -26.906  -11.860 -27.154  -9.224 -26.473  -8.989 -26.427  -2.050 -25.499  -0.712 -25.793  0.122 -26.880  2.115 -33.201  3.125 -35.019  3.193 -35.164  9.653 -37.266  9.755 -37.296  11.537 -35.811  17.505 -28.993  18.337 -23.015  18.833 -21.952  24.306 -15.881  25.069 -15.355  25.987 -15.230  28.746 -15.501  35.489 -12.431  39.757 -6.870  46.970 5.114  46.986 5.253  46.865 13.408  45.837 27.456  " stroke="#000000" stroke-width="0.500mm" style="fill:none" />
</svg>
