<?xml version="1.0" encoding="UTF-8"?>
<!-- netfabb SVG Slice Export -->
<!-- Layer: 4 -->
<!-- Z-Height: 1.600 -->


<svg xmlns="http://www.w3.org/2000/svg"	xmlns:xlink="http://www.w3.org/1999/xlink" xmlns:ev="http://www.w3.org/2001/xml-events" version="1.1" baseProfile="full" width="100.000mm" height="122.943mm" viewBox="-49.999 -61.469 100.000 122.943" style="border: 0px; background-color: #FFFFFF"> 
<line x1="-25.006" y1="-32.000" x2="8.108" y2="-32.000" stroke="#C0DCC0" stroke-width="0.500mm" />
<line x1="-12.919" y1="-16.000" x2="31.123" y2="-16.000" stroke="#C0DCC0" stroke-width="0.500mm" />
<line x1="-27.616" y1="0.000" x2="35.806" y2="0.000" stroke="#C0DCC0" stroke-width="0.500mm" />
<line x1="-31.461" y1="16.000" x2="37.337" y2="16.000" stroke="#C0DCC0" stroke-width="0.500mm" />
<line x1="-28.230" y1="32.000" x2="32.734" y2="32.000" stroke="#C0DCC0" stroke-width="0.500mm" />
<line x1="-15.700" y1="48.000" x2="21.111" y2="48.000" stroke="#C0DCC0" stroke-width="0.500mm" />
<polygon points="6.072 57.409  1.373 58.453  -8.976 54.079  -14.231 50.695  -18.636 50.166  -23.444 47.580  -29.076 39.562  -32.580 24.129  -33.904 16.656  -35.253 4.338  -31.558 0.488  -19.819 -11.684  -15.005 -14.827  -23.500 -23.400  -23.689 -25.912  -28.352 -30.884  -28.123 -32.567  -22.733 -37.382  -13.764 -40.927  -12.201 -40.294  -10.295 -42.800  -3.875 -49.661  4.154 -48.116  7.808 -46.360  11.275 -28.882  16.050 -24.849  24.071 -24.670  32.021 -23.458  33.912 -14.979  37.107 -2.769  41.370 4.731  39.085 21.781  38.661 27.580  36.803 28.434  34.716 33.803  26.325 46.218  18.697 54.078  11.831 56.131  " stroke="#000000" stroke-width="0.500mm" style="fill:none" />
<polygon points="5.639 55.456  5.638 55.457  1.563 56.362  -8.035 52.305  -13.148 49.013  -13.993 48.709  -18.024 48.225  -22.078 46.044  -27.214 38.733  -30.619 23.733  -31.923 16.376  -33.163 5.049  -30.115 1.873  -30.115 1.873  -18.536 -10.133  -13.912 -13.152  -13.164 -14.046  -13.041 -15.204  -13.584 -16.235  -21.561 -24.286  -21.695 -26.062  -22.230 -27.280  -26.242 -31.557  -26.240 -31.567  -21.666 -35.653  -13.774 -38.773  -12.952 -38.440  -11.672 -38.365  -10.609 -39.083  -8.760 -41.515  -3.169 -47.488  3.521 -46.201  6.041 -44.990  9.313 -28.493  9.984 -27.354  14.759 -23.321  16.005 -22.849  23.903 -22.673  30.367 -21.687  31.960 -14.544  31.977 -14.473  35.172 -2.263  35.368 -1.781  39.298 5.134  37.103 21.515  37.090 21.635  36.752 26.257  35.968 26.617  34.939 27.709  32.933 32.869  24.767 44.952  17.625 52.311  11.335 54.192  " stroke="#000000" stroke-width="0.500mm" style="fill:none" />
</svg>
