<?xml version="1.0" encoding="UTF-8"?>
<!-- netfabb SVG Slice Export -->
<!-- Layer: 13 -->
<!-- Z-Height: 5.200 -->


<svg xmlns="http://www.w3.org/2000/svg"	xmlns:xlink="http://www.w3.org/1999/xlink" xmlns:ev="http://www.w3.org/2001/xml-events" version="1.1" baseProfile="full" width="100.000mm" height="122.943mm" viewBox="-49.999 -61.469 100.000 122.943" style="border: 0px; background-color: #FFFFFF"> 
<line x1="-19.402" y1="-25.853" x2="-10.727" y2="-34.528" stroke="#C0DCC0" stroke-width="0.500mm" />
<line x1="-9.816" y1="-35.439" x2="-0.186" y2="-45.069" stroke="#C0DCC0" stroke-width="0.500mm" />
<line x1="-32.980" y1="10.353" x2="8.624" y2="-31.252" stroke="#C0DCC0" stroke-width="0.500mm" />
<line x1="-29.107" y1="29.107" x2="22.408" y2="-22.408" stroke="#C0DCC0" stroke-width="0.500mm" />
<line x1="-24.163" y1="46.791" x2="32.909" y2="-10.281" stroke="#C0DCC0" stroke-width="0.500mm" />
<line x1="-6.970" y1="52.225" x2="40.432" y2="4.823" stroke="#C0DCC0" stroke-width="0.500mm" />
<line x1="12.731" y1="55.151" x2="32.566" y2="35.317" stroke="#C0DCC0" stroke-width="0.500mm" />
<polygon points="-29.162 43.653  -31.794 28.214  -34.011 23.126  -34.706 18.984  -36.094 3.712  -35.138 2.511  -29.575 -3.286  -24.128 -8.933  -15.534 -14.544  -21.278 -20.340  -21.634 -25.076  -25.731 -29.444  -24.829 -33.889  -21.561 -36.808  -17.437 -38.438  -12.269 -36.344  -5.964 -44.633  -2.719 -48.102  1.340 -47.321  8.380 -43.938  10.659 -32.447  18.749 -25.614  19.139 -25.559  32.141 -23.140  34.588 -14.241  35.787 -8.862  36.006 -8.027  43.324 4.850  41.630 17.498  40.871 27.873  37.548 29.399  33.815 39.005  31.068 43.069  21.321 53.112  18.010 56.367  17.613 56.373  16.946 56.774  0.994 60.325  -8.695 54.087  -17.937 52.975  -28.028 47.551  -28.397 47.026  " stroke="#000000" stroke-width="0.500mm" style="fill:none" />
<polygon points="-29.822 27.878  -29.960 27.415  -32.080 22.549  -32.720 18.736  -34.029 4.330  -33.628 3.827  -28.132 -1.901  -28.133 -1.902  -22.848 -7.380  -14.441 -12.869  -13.693 -13.763  -13.570 -14.921  -14.113 -15.952  -19.339 -21.226  -19.640 -25.226  -20.175 -26.444  -23.565 -30.059  -23.001 -32.840  -20.494 -35.079  -17.447 -36.284  -13.020 -34.490  -11.740 -34.415  -10.677 -35.133  -4.433 -43.342  -2.013 -45.929  0.707 -45.406  6.613 -42.568  8.697 -32.058  9.368 -30.919  17.458 -24.086  18.470 -23.634  18.811 -23.586  30.545 -21.403  32.645 -13.765  33.835 -8.427  33.852 -8.355  34.071 -7.520  34.267 -7.039  41.253 5.253  39.648 17.233  39.635 17.352  38.962 26.548  36.713 27.581  35.684 28.675  32.033 38.070  29.510 41.803  19.898 51.707  17.023 54.533  16.582 54.659  16.193 54.893  1.375 58.191  -7.612 52.405  -8.456 52.101  -17.323 51.034  -26.564 46.067  -27.196 43.281  " stroke="#000000" stroke-width="0.500mm" style="fill:none" />
</svg>
