<?xml version="1.0" encoding="UTF-8"?>
<!-- netfabb SVG Slice Export -->
<!-- Layer: 20 -->
<!-- Z-Height: 8.000 -->


<svg xmlns="http://www.w3.org/2000/svg"	xmlns:xlink="http://www.w3.org/1999/xlink" xmlns:ev="http://www.w3.org/2001/xml-events" version="1.1" baseProfile="full" width="100.000mm" height="122.943mm" viewBox="-49.999 -61.469 100.000 122.943" style="border: 0px; background-color: #FFFFFF"> 
<line x1="-19.214" y1="-32.000" x2="-15.839" y2="-32.000" stroke="#C0DCC0" stroke-width="0.500mm" />
<line x1="-10.148" y1="-32.000" x2="10.118" y2="-32.000" stroke="#C0DCC0" stroke-width="0.500mm" />
<line x1="-14.125" y1="-16.000" x2="28.697" y2="-16.000" stroke="#C0DCC0" stroke-width="0.500mm" />
<line x1="-29.887" y1="0.000" x2="39.161" y2="0.000" stroke="#C0DCC0" stroke-width="0.500mm" />
<line x1="-33.658" y1="16.000" x2="40.968" y2="16.000" stroke="#C0DCC0" stroke-width="0.500mm" />
<line x1="-29.188" y1="32.000" x2="34.725" y2="32.000" stroke="#C0DCC0" stroke-width="0.500mm" />
<line x1="-23.902" y1="48.000" x2="23.398" y2="48.000" stroke="#C0DCC0" stroke-width="0.500mm" />
<polygon points="8.825 -42.053  10.180 -35.220  15.006 -31.144  18.919 -26.674  19.147 -25.037  21.699 -22.205  30.010 -20.660  32.574 -11.334  36.121 -9.719  37.198 -8.316  39.200 -4.990  44.845 4.942  43.609 14.167  42.590 28.100  38.127 30.149  33.989 40.798  33.651 41.375  33.207 41.865  19.025 55.804  16.441 55.845  12.095 58.452  1.840 60.735  -4.388 56.725  -17.394 55.161  -23.578 51.837  -28.445 47.021  -27.942 41.116  -34.507 26.055  -36.568 13.770  -37.334 5.338  -28.596 -5.633  -27.480 -6.793  -15.945 -14.323  -19.549 -17.960  -20.036 -24.426  -22.720 -27.288  -20.931 -36.111  -20.650 -36.362  -20.295 -36.502  -12.321 -33.272  -2.596 -46.060  -1.820 -46.889  -0.849 -46.702  " stroke="#000000" stroke-width="0.500mm" style="fill:none" />
<polygon points="7.057 -40.683  8.218 -34.831  8.890 -33.692  13.600 -29.714  17.020 -25.807  17.166 -24.761  17.661 -23.698  20.213 -20.866  21.333 -20.239  28.414 -18.923  30.646 -10.804  31.052 -10.037  31.745 -9.514  34.839 -8.105  35.540 -7.191  37.476 -3.976  42.773 5.345  41.627 13.901  41.614 14.021  40.681 26.775  37.293 28.331  36.263 29.425  32.184 39.921  32.029 40.187  31.761 40.482  18.194 53.817  16.409 53.845  15.412 54.130  11.344 56.570  2.221 58.601  -3.305 55.043  -4.149 54.739  -16.780 53.220  -22.376 50.212  -26.372 46.258  -25.949 41.286  -26.109 40.317  -32.576 25.482  -34.582 13.522  -35.269 5.956  -27.093 -4.311  -26.196 -5.242  -14.852 -12.648  -14.104 -13.542  -13.981 -14.700  -14.524 -15.731  -17.610 -18.846  -18.042 -24.576  -18.577 -25.794  -20.555 -27.903  -19.328 -33.952  -13.072 -31.418  -11.792 -31.343  -10.729 -32.061  -1.166 -44.635  " stroke="#000000" stroke-width="0.500mm" style="fill:none" />
</svg>
