<?xml version="1.0" encoding="UTF-8"?>
<!-- netfabb SVG Slice Export -->
<!-- Layer: 31 -->
<!-- Z-Height: 12.400 -->


<svg xmlns="http://www.w3.org/2000/svg"	xmlns:xlink="http://www.w3.org/1999/xlink" xmlns:ev="http://www.w3.org/2001/xml-events" version="1.1" baseProfile="full" width="100.000mm" height="122.943mm" viewBox="-49.999 -61.469 100.000 122.943" style="border: 0px; background-color: #FFFFFF"> 
<line x1="-2.885" y1="-25.513" x2="43.350" y2="20.723" stroke="#C0DCC0" stroke-width="0.500mm" />
<line x1="-14.166" y1="-14.166" x2="34.948" y2="34.948" stroke="#C0DCC0" stroke-width="0.500mm" />
<line x1="-27.744" y1="-5.117" x2="24.738" y2="47.366" stroke="#C0DCC0" stroke-width="0.500mm" />
<line x1="-36.040" y1="9.215" x2="9.752" y2="55.007" stroke="#C0DCC0" stroke-width="0.500mm" />
<line x1="-27.313" y1="40.570" x2="-11.961" y2="55.922" stroke="#C0DCC0" stroke-width="0.500mm" />
<polygon points="47.234 5.087  46.719 8.932  45.291 28.457  39.037 31.328  36.561 37.699  34.803 40.698  32.495 43.247  20.619 54.920  14.598 55.015  4.472 61.090  3.170 61.380  2.379 60.871  -6.096 59.851  -16.819 57.360  -19.127 55.492  -28.610 46.109  -28.414 43.811  -34.551 32.346  -35.287 30.658  -36.671 22.405  -38.693 8.327  -38.230 6.381  -37.153 4.192  -29.319 -7.240  -17.444 -13.421  -16.592 -13.977  -16.833 -14.221  -17.524 -23.405  -17.990 -23.901  -17.648 -25.588  -14.615 -26.396  -12.637 -29.099  -12.493 -29.414  -11.736 -29.218  -1.289 -27.821  0.569 -33.713  0.718 -38.945  7.732 -38.723  9.527 -39.305  9.712 -39.150  19.173 -28.343  19.760 -24.123  26.341 -16.821  26.661 -16.762  26.760 -16.403  36.461 -11.985  39.407 -8.148  44.881 0.948  " stroke="#000000" stroke-width="0.500mm" style="fill:none" />
<polygon points="44.737 8.666  44.724 8.786  43.382 27.132  38.203 29.510  37.173 30.604  34.755 36.827  33.184 39.506  31.048 41.865  19.788 52.933  14.566 53.015  13.569 53.300  3.721 59.208  3.550 59.246  3.461 59.189  2.618 58.885  -5.752 57.878  -15.918 55.516  -17.789 54.002  -26.537 45.346  -26.421 43.981  -26.651 42.867  -32.751 31.470  -33.356 30.085  -34.691 22.121  -34.691 22.121  -36.659 8.420  -36.336 7.063  -35.422 5.204  -27.951 -5.698  -16.521 -11.647  -16.351 -11.746  -15.499 -12.302  -14.751 -13.194  -14.627 -14.352  -14.873 -14.819  -15.530 -23.555  -15.737 -24.027  -14.100 -24.463  -13.001 -25.215  -11.565 -27.178  -1.554 -25.839  -0.216 -26.133  0.618 -27.220  2.476 -33.112  2.568 -33.656  2.660 -36.883  7.669 -36.724  8.349 -36.821  8.928 -37.009  17.274 -27.476  17.779 -23.847  18.274 -22.784  24.855 -15.482  25.115 -15.336  25.238 -15.105  25.931 -14.583  35.179 -10.371  37.749 -7.023  43.157 1.962  45.162 5.490  " stroke="#000000" stroke-width="0.500mm" style="fill:none" />
</svg>
