<?xml version="1.0" encoding="UTF-8"?>
<!-- netfabb SVG Slice Export -->
<!-- Layer: 32 -->
<!-- Z-Height: 12.800 -->


<svg xmlns="http://www.w3.org/2000/svg"	xmlns:xlink="http://www.w3.org/1999/xlink" xmlns:ev="http://www.w3.org/2001/xml-events" version="1.1" baseProfile="full" width="100.000mm" height="122.943mm" viewBox="-49.999 -61.469 100.000 122.943" style="border: 0px; background-color: #FFFFFF"> 
<line x1="2.609" y1="-32.000" x2="12.804" y2="-32.000" stroke="#C0DCC0" stroke-width="0.500mm" />
<line x1="-14.240" y1="-16.000" x2="23.697" y2="-16.000" stroke="#C0DCC0" stroke-width="0.500mm" />
<line x1="-31.440" y1="0.000" x2="41.585" y2="0.000" stroke="#C0DCC0" stroke-width="0.500mm" />
<line x1="-35.053" y1="16.000" x2="43.943" y2="16.000" stroke="#C0DCC0" stroke-width="0.500mm" />
<line x1="-32.075" y1="32.000" x2="36.218" y2="32.000" stroke="#C0DCC0" stroke-width="0.500mm" />
<line x1="-23.076" y1="48.000" x2="24.156" y2="48.000" stroke="#C0DCC0" stroke-width="0.500mm" />
<polygon points="47.451 5.100  47.001 8.456  45.536 28.489  39.120 31.435  36.795 37.417  34.908 40.637  32.430 43.373  20.764 54.840  14.431 54.939  3.779 61.330  3.290 61.439  2.994 61.248  -0.184 60.866  -16.898 56.982  -20.495 54.070  -28.625 46.026  -28.457 44.056  -35.151 31.550  -35.357 31.077  -35.746 28.761  -38.621 8.742  -37.962 5.975  -36.431 2.863  -29.462 -7.307  -16.993 -13.797  -16.652 -13.955  -16.641 -14.005  -16.688 -15.228  -17.296 -23.312  -17.560 -23.593  -17.366 -24.550  -15.646 -25.008  -12.752 -28.963  -12.542 -29.423  -11.435 -29.137  -1.339 -27.787  0.881 -34.828  0.974 -38.085  5.341 -37.947  9.596 -39.326  10.035 -38.960  19.196 -28.494  19.816 -24.040  26.484 -16.642  26.677 -16.661  36.492 -12.191  39.608 -8.133  45.398 1.488  " stroke="#000000" stroke-width="0.500mm" style="fill:none" />
<polygon points="45.019 8.190  45.006 8.310  43.627 27.164  38.285 29.617  37.256 30.710  34.989 36.542  33.286 39.449  30.984 41.990  19.933 52.853  14.400 52.939  13.402 53.224  3.299 59.286  3.233 59.262  0.160 58.893  -15.999 55.138  -19.151 52.585  -26.552 45.263  -26.464 44.226  -26.694 43.112  -33.346 30.685  -33.426 30.500  -33.766 28.477  -33.766 28.477  -36.587 8.835  -36.068 6.657  -34.699 3.875  -28.094 -5.765  -16.123 -11.996  -15.811 -12.140  -15.093 -12.703  -14.699 -13.525  -14.688 -13.575  -14.642 -14.082  -14.689 -15.305  -14.694 -15.378  -15.270 -23.038  -15.131 -23.075  -14.032 -23.827  -11.606 -27.142  -1.604 -25.805  -0.266 -26.099  0.568 -27.186  2.788 -34.227  2.880 -34.771  2.916 -36.023  5.278 -35.948  5.958 -36.044  9.052 -37.047  17.297 -27.627  17.835 -23.764  18.330 -22.701  24.998 -15.303  25.762 -14.777  26.085 -14.733  35.210 -10.577  37.951 -7.008  43.674 2.502  45.379 5.503  " stroke="#000000" stroke-width="0.500mm" style="fill:none" />
</svg>
