<?xml version="1.0" encoding="UTF-8"?>
<!-- netfabb SVG Slice Export -->
<!-- Layer: 9 -->
<!-- Z-Height: 3.600 -->


<svg xmlns="http://www.w3.org/2000/svg"	xmlns:xlink="http://www.w3.org/1999/xlink" xmlns:ev="http://www.w3.org/2001/xml-events" version="1.1" baseProfile="full" width="100.000mm" height="122.943mm" viewBox="-49.999 -61.469 100.000 122.943" style="border: 0px; background-color: #FFFFFF"> 
<line x1="-20.024" y1="-25.231" x2="0.313" y2="-45.568" stroke="#C0DCC0" stroke-width="0.500mm" />
<line x1="-32.501" y1="9.873" x2="8.359" y2="-30.987" stroke="#C0DCC0" stroke-width="0.500mm" />
<line x1="-29.387" y1="29.387" x2="22.462" y2="-22.462" stroke="#C0DCC0" stroke-width="0.500mm" />
<line x1="-23.459" y1="46.087" x2="32.750" y2="-10.123" stroke="#C0DCC0" stroke-width="0.500mm" />
<line x1="-7.016" y1="52.271" x2="39.851" y2="5.404" stroke="#C0DCC0" stroke-width="0.500mm" />
<line x1="13.632" y1="54.250" x2="31.213" y2="36.669" stroke="#C0DCC0" stroke-width="0.500mm" />
<polygon points="2.734 59.229  1.039 59.606  -2.693 58.028  -11.155 52.579  -18.248 51.727  -25.991 47.564  -28.698 43.709  -33.664 21.838  -33.771 21.233  -35.676 3.831  -30.456 -1.608  -22.213 -10.156  -15.298 -14.670  -22.265 -21.700  -22.547 -25.448  -27.451 -30.675  -27.056 -32.620  -22.082 -37.063  -15.805 -39.544  -12.239 -38.099  -7.889 -43.818  -3.233 -48.795  2.591 -47.675  8.126 -45.014  10.933 -30.863  17.549 -25.274  21.129 -25.194  32.298 -23.492  34.954 -11.580  36.495 -5.690  42.456 4.797  40.499 19.402  39.889 27.743  37.217 28.970  34.215 36.693  28.960 44.468  18.134 55.625  15.709 56.350  " stroke="#000000" stroke-width="0.500mm" style="fill:none" />
<polygon points="2.301 57.276  2.300 57.277  1.229 57.515  -1.752 56.254  -10.072 50.897  -10.916 50.593  -17.634 49.786  -24.627 46.026  -26.835 42.881  -31.704 21.439  -31.789 20.956  -33.586 4.542  -29.013 -0.223  -29.013 -0.223  -20.930 -8.605  -14.205 -12.995  -13.457 -13.889  -13.334 -15.047  -13.877 -16.078  -20.326 -22.586  -20.553 -25.598  -21.088 -26.816  -25.285 -31.290  -25.228 -31.571  -21.015 -35.334  -15.815 -37.390  -12.990 -36.245  -11.710 -36.170  -10.647 -36.888  -6.358 -42.527  -2.527 -46.622  1.956 -45.760  6.359 -43.644  8.971 -30.474  9.642 -29.335  16.258 -23.746  17.504 -23.274  20.961 -23.197  30.644 -21.721  33.002 -11.145  33.019 -11.074  34.560 -5.184  34.756 -4.702  40.384 5.200  38.517 19.136  38.504 19.256  37.980 26.418  36.382 27.152  35.353 28.245  32.432 35.759  27.401 43.202  17.062 53.858  15.213 54.411  " stroke="#000000" stroke-width="0.500mm" style="fill:none" />
</svg>
