<?xml version="1.0" encoding="UTF-8"?>
<!-- netfabb SVG Slice Export -->
<!-- Layer: 1 -->
<!-- Z-Height: 0.400 -->


<svg xmlns="http://www.w3.org/2000/svg"	xmlns:xlink="http://www.w3.org/1999/xlink" xmlns:ev="http://www.w3.org/2001/xml-events" version="1.1" baseProfile="full" width="100.000mm" height="122.943mm" viewBox="-49.999 -61.469 100.000 122.943" style="border: 0px; background-color: #FFFFFF"> 
<line x1="-24.866" y1="-31.703" x2="-20.742" y2="-35.827" stroke="#C0DCC0" stroke-width="0.500mm" />
<line x1="-23.800" y1="-29.233" x2="-14.896" y2="-38.137" stroke="#C0DCC0" stroke-width="0.500mm" />
<line x1="-22.260" y1="-27.238" x2="-2.250" y2="-47.247" stroke="#C0DCC0" stroke-width="0.500mm" />
<line x1="-21.130" y1="-24.832" x2="0.715" y2="-46.677" stroke="#C0DCC0" stroke-width="0.500mm" />
<line x1="-19.370" y1="-23.056" x2="3.681" y2="-46.107" stroke="#C0DCC0" stroke-width="0.500mm" />
<line x1="-17.610" y1="-21.280" x2="5.600" y2="-44.491" stroke="#C0DCC0" stroke-width="0.500mm" />
<line x1="-15.851" y1="-19.505" x2="6.185" y2="-41.541" stroke="#C0DCC0" stroke-width="0.500mm" />
<line x1="-14.091" y1="-17.729" x2="6.770" y2="-38.590" stroke="#C0DCC0" stroke-width="0.500mm" />
<line x1="-12.552" y1="-15.732" x2="7.355" y2="-35.640" stroke="#C0DCC0" stroke-width="0.500mm" />
<line x1="-32.180" y1="7.431" x2="7.941" y2="-32.689" stroke="#C0DCC0" stroke-width="0.500mm" />
<line x1="-31.831" y1="10.617" x2="8.526" y2="-29.739" stroke="#C0DCC0" stroke-width="0.500mm" />
<line x1="-31.467" y1="13.789" x2="9.214" y2="-26.891" stroke="#C0DCC0" stroke-width="0.500mm" />
<line x1="-30.935" y1="16.793" x2="10.828" y2="-24.971" stroke="#C0DCC0" stroke-width="0.500mm" />
<line x1="-30.403" y1="19.796" x2="12.745" y2="-23.352" stroke="#C0DCC0" stroke-width="0.500mm" />
<line x1="-29.870" y1="22.799" x2="15.042" y2="-22.113" stroke="#C0DCC0" stroke-width="0.500mm" />
<line x1="-29.306" y1="25.771" x2="18.483" y2="-22.018" stroke="#C0DCC0" stroke-width="0.500mm" />
<line x1="-28.652" y1="28.652" x2="21.941" y2="-21.941" stroke="#C0DCC0" stroke-width="0.500mm" />
<line x1="-27.997" y1="31.533" x2="25.400" y2="-21.864" stroke="#C0DCC0" stroke-width="0.500mm" />
<line x1="-27.343" y1="34.414" x2="28.493" y2="-21.422" stroke="#C0DCC0" stroke-width="0.500mm" />
<line x1="-26.338" y1="36.945" x2="30.159" y2="-19.552" stroke="#C0DCC0" stroke-width="0.500mm" />
<line x1="-24.879" y1="39.021" x2="30.804" y2="-16.662" stroke="#C0DCC0" stroke-width="0.500mm" />
<line x1="-23.421" y1="41.098" x2="31.530" y2="-13.852" stroke="#C0DCC0" stroke-width="0.500mm" />
<line x1="-21.962" y1="43.175" x2="32.263" y2="-11.050" stroke="#C0DCC0" stroke-width="0.500mm" />
<line x1="-20.504" y1="45.252" x2="32.996" y2="-8.247" stroke="#C0DCC0" stroke-width="0.500mm" />
<line x1="-18.373" y1="46.657" x2="33.729" y2="-5.445" stroke="#C0DCC0" stroke-width="0.500mm" />
<line x1="-15.399" y1="47.219" x2="34.463" y2="-2.643" stroke="#C0DCC0" stroke-width="0.500mm" />
<line x1="-13.132" y1="48.487" x2="35.253" y2="0.103" stroke="#C0DCC0" stroke-width="0.500mm" />
<line x1="-10.889" y1="49.780" x2="36.522" y2="2.369" stroke="#C0DCC0" stroke-width="0.500mm" />
<line x1="-8.404" y1="50.830" x2="37.803" y2="4.623" stroke="#C0DCC0" stroke-width="0.500mm" />
<line x1="-5.919" y1="51.881" x2="37.718" y2="8.243" stroke="#C0DCC0" stroke-width="0.500mm" />
<line x1="-3.433" y1="52.931" x2="37.171" y2="12.326" stroke="#C0DCC0" stroke-width="0.500mm" />
<line x1="-0.948" y1="53.981" x2="36.624" y2="16.409" stroke="#C0DCC0" stroke-width="0.500mm" />
<line x1="1.537" y1="55.031" x2="36.077" y2="20.491" stroke="#C0DCC0" stroke-width="0.500mm" />
<line x1="5.856" y1="54.248" x2="35.638" y2="24.466" stroke="#C0DCC0" stroke-width="0.500mm" />
<line x1="10.567" y1="53.073" x2="32.820" y2="30.819" stroke="#C0DCC0" stroke-width="0.500mm" />
<line x1="15.610" y1="51.565" x2="25.519" y2="41.656" stroke="#C0DCC0" stroke-width="0.500mm" />
<polygon points="8.075 56.317  1.573 57.761  -12.746 51.709  -16.077 49.564  -18.869 49.229  -21.916 47.590  -29.302 37.074  -31.930 25.503  -33.984 13.910  -34.999 4.643  -32.219 1.746  -18.383 -12.601  -14.828 -14.922  -24.241 -24.419  -24.374 -26.191  -27.661 -29.694  -27.068 -34.051  -23.124 -37.573  -12.539 -41.756  -12.179 -41.610  -11.739 -42.188  -4.261 -50.180  5.092 -48.382  7.618 -47.168  11.480 -27.693  15.150 -24.593  25.836 -24.355  31.855 -23.438  33.286 -17.018  37.474 -1.016  40.718 4.691  38.237 23.209  37.924 27.483  36.555 28.112  35.017 32.069  24.744 47.268  19.035 53.150  9.504 56.000  " stroke="#000000" stroke-width="0.500mm" style="fill:none" />
<polygon points="7.642 54.364  7.641 54.365  1.764 55.670  -11.805 49.935  -14.994 47.882  -15.839 47.578  -18.257 47.288  -20.550 46.055  -27.440 36.245  -29.969 25.107  -32.003 13.630  -32.909 5.354  -30.776 3.131  -30.776 3.131  -17.100 -11.050  -13.735 -13.247  -12.987 -14.141  -12.864 -15.299  -13.408 -16.330  -22.302 -25.303  -22.380 -26.341  -22.916 -27.560  -25.551 -30.368  -25.185 -33.051  -22.057 -35.844  -12.257 -39.717  -11.651 -39.681  -10.588 -40.399  -10.209 -40.897  -3.555 -48.008  4.459 -46.467  5.850 -45.798  9.518 -27.304  10.189 -26.165  13.859 -23.065  15.105 -22.593  25.668 -22.358  30.201 -21.667  31.334 -16.583  31.351 -16.512  35.539 -0.510  35.735 -0.028  38.646 5.094  36.255 22.943  36.242 23.063  36.015 26.159  35.720 26.295  34.691 27.387  33.234 31.135  23.186 46.002  17.963 51.383  9.008 54.061  " stroke="#000000" stroke-width="0.500mm" style="fill:none" />
</svg>
