<?xml version="1.0" encoding="UTF-8"?>
<!-- netfabb SVG Slice Export -->
<!-- Layer: 49 -->
<!-- Z-Height: 19.600 -->


<svg xmlns="http://www.w3.org/2000/svg"	xmlns:xlink="http://www.w3.org/1999/xlink" xmlns:ev="http://www.w3.org/2001/xml-events" version="1.1" baseProfile="full" width="100.000mm" height="122.943mm" viewBox="-49.999 -61.469 100.000 122.943" style="border: 0px; background-color: #FFFFFF"> 
<line x1="-33.709" y1="11.081" x2="12.422" y2="-35.049" stroke="#C0DCC0" stroke-width="0.500mm" />
<line x1="-28.799" y1="28.800" x2="19.876" y2="-19.876" stroke="#C0DCC0" stroke-width="0.500mm" />
<line x1="-21.775" y1="44.403" x2="35.800" y2="-13.173" stroke="#C0DCC0" stroke-width="0.500mm" />
<line x1="1.802" y1="43.453" x2="44.997" y2="0.258" stroke="#C0DCC0" stroke-width="0.500mm" />
<line x1="16.809" y1="51.074" x2="46.419" y2="21.463" stroke="#C0DCC0" stroke-width="0.500mm" />
<polygon points="-7.445 46.142  -10.326 52.399  -18.230 50.563  -23.760 46.086  -30.060 32.038  -37.207 16.507  -37.358 16.110  -37.402 15.804  -33.420 -0.919  -30.315 -7.232  -29.100 -7.866  -28.022 -9.488  -17.818 -14.234  -16.896 -18.267  -17.091 -23.403  -14.717 -26.647  -13.375 -29.585  -6.314 -27.761  -2.182 -27.209  -0.958 -31.089  1.356 -35.254  1.987 -36.893  8.714 -39.082  10.761 -39.689  15.517 -35.724  19.588 -31.073  20.764 -22.626  25.175 -17.733  31.227 -18.330  37.018 -15.693  43.021 -7.873  48.781 1.697  49.166 5.000  48.845 26.532  48.576 28.747  40.522 32.921  40.440 33.192  36.689 39.591  31.331 45.508  23.227 53.473  13.308 53.629  11.883 53.667  1.000 45.841  -2.779 44.012  " stroke="#000000" stroke-width="0.500mm" style="fill:none" />
<polygon points="-8.276 44.323  -9.262 45.306  -11.461 50.082  -17.331 48.719  -22.130 44.833  -28.235 31.220  -28.243 31.202  -35.340 15.780  -31.526 -0.237  -28.808 -5.762  -28.175 -6.093  -27.434 -6.759  -26.667 -7.913  -16.975 -12.421  -16.263 -12.976  -15.868 -13.788  -14.946 -17.821  -14.897 -18.343  -15.066 -22.784  -13.103 -25.466  -12.898 -25.816  -12.252 -27.230  -6.814 -25.825  -6.579 -25.779  -2.447 -25.227  -1.109 -25.521  -0.275 -26.607  0.889 -30.295  3.104 -34.283  3.222 -34.535  3.511 -35.285  9.327 -37.178  10.302 -37.467  14.116 -34.288  17.689 -30.206  18.783 -22.350  19.279 -21.287  23.690 -16.394  24.453 -15.868  25.371 -15.743  30.887 -16.287  35.736 -14.079  41.363 -6.748  46.844 2.357  47.164 5.103  46.846 26.402  46.718 27.457  39.602 31.145  38.984 31.643  38.608 32.342  38.595 32.387  35.070 38.399  29.884 44.126  22.396 51.486  13.277 51.629  13.255 51.630  12.505 51.650  2.168 44.217  1.871 44.041  -1.908 42.212  -2.756 42.012  -3.610 42.193  " stroke="#000000" stroke-width="0.500mm" style="fill:none" />
</svg>
