<?xml version="1.0" encoding="UTF-8"?>
<!-- netfabb SVG Slice Export -->
<!-- Layer: 7 -->
<!-- Z-Height: 2.800 -->


<svg xmlns="http://www.w3.org/2000/svg"	xmlns:xlink="http://www.w3.org/1999/xlink" xmlns:ev="http://www.w3.org/2001/xml-events" version="1.1" baseProfile="full" width="100.000mm" height="122.943mm" viewBox="-49.999 -61.469 100.000 122.943" style="border: 0px; background-color: #FFFFFF"> 
<line x1="-0.829" y1="-46.084" x2="6.873" y2="-38.382" stroke="#C0DCC0" stroke-width="0.500mm" />
<line x1="22.887" y1="-22.368" x2="31.879" y2="-13.376" stroke="#C0DCC0" stroke-width="0.500mm" />
<line x1="-14.626" y1="-37.254" x2="38.068" y2="15.441" stroke="#C0DCC0" stroke-width="0.500mm" />
<line x1="-13.279" y1="-13.279" x2="32.798" y2="32.798" stroke="#C0DCC0" stroke-width="0.500mm" />
<line x1="-25.447" y1="-2.820" x2="23.495" y2="46.123" stroke="#C0DCC0" stroke-width="0.500mm" />
<line x1="-31.980" y1="13.274" x2="9.483" y2="54.738" stroke="#C0DCC0" stroke-width="0.500mm" />
<line x1="-25.703" y1="42.180" x2="-21.034" y2="46.849" stroke="#C0DCC0" stroke-width="0.500mm" />
<polygon points="4.069 58.501  1.173 59.145  -5.206 56.449  -12.386 51.825  -18.403 51.102  -24.972 47.570  -28.849 42.050  -33.230 22.754  -33.824 19.402  -35.507 4.034  -30.897 -0.770  -21.256 -10.767  -15.181 -14.733  -22.759 -22.380  -23.004 -25.634  -28.311 -31.291  -28.170 -31.985  -22.343 -37.191  -14.988 -40.097  -12.224 -38.977  -8.852 -43.411  -3.490 -49.141  3.216 -47.851  7.999 -45.553  11.070 -30.070  16.949 -25.104  22.306 -24.984  32.187 -23.478  34.537 -12.940  36.740 -4.522  42.021 4.770  39.933 20.353  39.397 27.678  37.051 28.755  34.416 35.537  27.906 45.168  18.359 55.006  14.157 56.262  " stroke="#000000" stroke-width="0.500mm" style="fill:none" />
<polygon points="3.636 56.549  3.635 56.549  1.363 57.054  -4.270 54.673  -11.303 50.144  -12.147 49.839  -17.789 49.161  -23.607 46.033  -26.987 41.221  -31.269 22.358  -31.843 19.122  -33.417 4.745  -29.454 0.615  -29.454 0.615  -19.973 -9.216  -14.088 -13.058  -13.340 -13.952  -13.217 -15.110  -13.760 -16.141  -20.820 -23.266  -21.010 -25.784  -21.545 -27.002  -25.740 -31.474  -21.276 -35.462  -14.998 -37.943  -12.975 -37.123  -11.695 -37.048  -10.632 -37.766  -7.321 -42.120  -2.784 -46.968  2.583 -45.936  6.232 -44.183  9.108 -29.681  9.779 -28.542  15.658 -23.576  16.904 -23.105  22.130 -22.988  30.533 -21.707  32.585 -12.505  32.602 -12.434  34.805 -4.016  35.001 -3.534  39.949 5.173  37.951 20.087  37.938 20.207  37.488 26.353  36.217 26.937  35.187 28.031  32.634 34.602  26.348 43.902  17.287 53.239  13.648 54.327  " stroke="#000000" stroke-width="0.500mm" style="fill:none" />
</svg>
