<?xml version="1.0" encoding="UTF-8"?>
<!-- netfabb SVG Slice Export -->
<!-- Layer: 17 -->
<!-- Z-Height: 6.800 -->


<svg xmlns="http://www.w3.org/2000/svg"	xmlns:xlink="http://www.w3.org/1999/xlink" xmlns:ev="http://www.w3.org/2001/xml-events" version="1.1" baseProfile="full" width="100.000mm" height="122.943mm" viewBox="-49.999 -61.469 100.000 122.943" style="border: 0px; background-color: #FFFFFF"> 
<line x1="-18.881" y1="-26.374" x2="-12.997" y2="-32.258" stroke="#C0DCC0" stroke-width="0.500mm" />
<line x1="-4.368" y1="-40.887" x2="-0.687" y2="-44.568" stroke="#C0DCC0" stroke-width="0.500mm" />
<line x1="-33.708" y1="11.080" x2="9.163" y2="-31.791" stroke="#C0DCC0" stroke-width="0.500mm" />
<line x1="-29.514" y1="29.514" x2="21.022" y2="-21.022" stroke="#C0DCC0" stroke-width="0.500mm" />
<line x1="-24.744" y1="47.371" x2="31.807" y2="-9.179" stroke="#C0DCC0" stroke-width="0.500mm" />
<line x1="-7.651" y1="52.906" x2="40.968" y2="4.287" stroke="#C0DCC0" stroke-width="0.500mm" />
<line x1="12.291" y1="55.591" x2="33.379" y2="34.503" stroke="#C0DCC0" stroke-width="0.500mm" />
<polygon points="8.634 -42.861  10.385 -34.032  16.621 -28.765  18.850 -26.219  18.979 -25.287  20.433 -23.674  30.923 -21.723  34.160 -9.952  36.028 -9.101  36.596 -8.362  37.650 -6.610  44.193 4.902  42.761 15.594  41.853 28.002  37.879 29.827  33.414 41.316  33.176 41.669  32.330 42.540  18.590 56.045  16.943 56.071  14.174 57.733  1.477 60.560  -6.234 55.594  -17.627 54.224  -25.825 49.817  -28.400 47.270  -28.132 44.132  -29.586 35.605  -34.295 24.800  -35.770 16.005  -36.803 4.641  -31.400 -2.142  -26.043 -7.711  -15.769 -14.418  -20.290 -18.980  -20.721 -24.705  -24.011 -28.212  -22.602 -35.159  -21.041 -36.553  -19.070 -37.332  -12.298 -34.589  -4.039 -45.448  -2.205 -47.409  0.089 -46.968  " stroke="#000000" stroke-width="0.500mm" style="fill:none" />
<polygon points="6.866 -41.491  8.423 -33.643  9.094 -32.504  15.218 -27.332  16.951 -25.352  16.998 -25.013  17.493 -23.948  18.947 -22.335  20.067 -21.708  29.327 -19.986  32.232 -9.422  32.638 -8.655  33.331 -8.132  34.745 -7.488  34.941 -7.232  35.926 -5.596  42.122 5.305  40.779 15.329  40.766 15.448  39.944 26.677  37.044 28.009  36.015 29.103  31.631 40.383  31.618 40.403  30.907 41.135  17.759 54.058  16.911 54.071  15.914 54.356  13.422 55.851  1.857 58.426  -5.151 53.913  -5.995 53.608  -17.013 52.283  -24.626 48.191  -26.327 46.507  -26.139 44.302  -26.160 43.796  -27.614 35.269  -27.753 34.806  -32.364 24.227  -33.784 15.757  -34.738 5.259  -29.897 -0.820  -24.759 -6.161  -14.676 -12.743  -13.928 -13.637  -13.805 -14.795  -14.348 -15.826  -18.351 -19.866  -18.727 -24.855  -19.262 -26.073  -21.846 -28.827  -20.774 -34.110  -19.974 -34.824  -19.080 -35.178  -13.049 -32.735  -11.769 -32.660  -10.706 -33.378  -2.508 -44.157  -1.498 -45.236  -0.544 -45.053  " stroke="#000000" stroke-width="0.500mm" style="fill:none" />
</svg>
