<?xml version="1.0" encoding="UTF-8"?>
<!-- netfabb SVG Slice Export -->
<!-- Layer: 3 -->
<!-- Z-Height: 1.200 -->


<svg xmlns="http://www.w3.org/2000/svg"	xmlns:xlink="http://www.w3.org/1999/xlink" xmlns:ev="http://www.w3.org/2001/xml-events" version="1.1" baseProfile="full" width="100.000mm" height="122.943mm" viewBox="-49.999 -61.469 100.000 122.943" style="border: 0px; background-color: #FFFFFF"> 
<line x1="3.693" y1="-45.804" x2="5.772" y2="-43.725" stroke="#C0DCC0" stroke-width="0.500mm" />
<line x1="27.964" y1="-21.533" x2="30.368" y2="-19.129" stroke="#C0DCC0" stroke-width="0.500mm" />
<line x1="-0.690" y1="-46.652" x2="6.647" y2="-39.315" stroke="#C0DCC0" stroke-width="0.500mm" />
<line x1="23.879" y1="-22.083" x2="31.408" y2="-14.554" stroke="#C0DCC0" stroke-width="0.500mm" />
<line x1="-3.881" y1="-46.307" x2="7.521" y2="-34.905" stroke="#C0DCC0" stroke-width="0.500mm" />
<line x1="20.263" y1="-22.163" x2="32.661" y2="-9.765" stroke="#C0DCC0" stroke-width="0.500mm" />
<line x1="-5.590" y1="-44.481" x2="8.396" y2="-30.495" stroke="#C0DCC0" stroke-width="0.500mm" />
<line x1="16.647" y1="-22.243" x2="33.914" y2="-4.977" stroke="#C0DCC0" stroke-width="0.500mm" />
<line x1="-7.299" y1="-42.654" x2="35.915" y2="0.559" stroke="#C0DCC0" stroke-width="0.500mm" />
<line x1="-8.992" y1="-40.812" x2="38.382" y2="6.562" stroke="#C0DCC0" stroke-width="0.500mm" />
<line x1="-10.640" y1="-38.924" x2="37.964" y2="9.680" stroke="#C0DCC0" stroke-width="0.500mm" />
<line x1="-13.651" y1="-38.399" x2="37.547" y2="12.798" stroke="#C0DCC0" stroke-width="0.500mm" />
<line x1="-16.184" y1="-37.398" x2="37.129" y2="15.916" stroke="#C0DCC0" stroke-width="0.500mm" />
<line x1="-18.718" y1="-36.396" x2="36.711" y2="19.034" stroke="#C0DCC0" stroke-width="0.500mm" />
<line x1="-21.252" y1="-35.394" x2="36.302" y2="22.160" stroke="#C0DCC0" stroke-width="0.500mm" />
<line x1="-23.193" y1="-33.800" x2="36.062" y2="25.455" stroke="#C0DCC0" stroke-width="0.500mm" />
<line x1="-25.061" y1="-32.132" x2="34.439" y2="27.368" stroke="#C0DCC0" stroke-width="0.500mm" />
<line x1="-21.324" y1="-24.859" x2="33.429" y2="29.893" stroke="#C0DCC0" stroke-width="0.500mm" />
<line x1="-13.209" y1="-13.209" x2="32.374" y2="32.374" stroke="#C0DCC0" stroke-width="0.500mm" />
<line x1="-15.227" y1="-11.691" x2="30.948" y2="34.484" stroke="#C0DCC0" stroke-width="0.500mm" />
<line x1="-17.366" y1="-10.295" x2="29.522" y2="36.593" stroke="#C0DCC0" stroke-width="0.500mm" />
<line x1="-19.171" y1="-8.565" x2="28.096" y2="38.703" stroke="#C0DCC0" stroke-width="0.500mm" />
<line x1="-20.907" y1="-6.765" x2="26.670" y2="40.813" stroke="#C0DCC0" stroke-width="0.500mm" />
<line x1="-22.643" y1="-4.965" x2="25.245" y2="42.922" stroke="#C0DCC0" stroke-width="0.500mm" />
<line x1="-24.378" y1="-3.165" x2="23.812" y2="45.025" stroke="#C0DCC0" stroke-width="0.500mm" />
<line x1="-26.114" y1="-1.365" x2="22.070" y2="46.819" stroke="#C0DCC0" stroke-width="0.500mm" />
<line x1="-27.850" y1="0.434" x2="20.329" y2="48.613" stroke="#C0DCC0" stroke-width="0.500mm" />
<line x1="-29.585" y1="2.234" x2="18.588" y2="50.408" stroke="#C0DCC0" stroke-width="0.500mm" />
<line x1="-31.318" y1="4.038" x2="16.496" y2="51.851" stroke="#C0DCC0" stroke-width="0.500mm" />
<line x1="-32.432" y1="6.459" x2="13.774" y2="52.665" stroke="#C0DCC0" stroke-width="0.500mm" />
<line x1="-31.997" y1="10.430" x2="11.052" y2="53.479" stroke="#C0DCC0" stroke-width="0.500mm" />
<line x1="-31.561" y1="14.400" x2="8.198" y2="54.160" stroke="#C0DCC0" stroke-width="0.500mm" />
<line x1="-30.881" y1="18.617" x2="5.304" y2="54.802" stroke="#C0DCC0" stroke-width="0.500mm" />
<line x1="-30.120" y1="22.913" x2="2.411" y2="55.444" stroke="#C0DCC0" stroke-width="0.500mm" />
<line x1="-29.158" y1="27.411" x2="-2.892" y2="53.677" stroke="#C0DCC0" stroke-width="0.500mm" />
<line x1="-28.119" y1="31.985" x2="-9.016" y2="51.088" stroke="#C0DCC0" stroke-width="0.500mm" />
<line x1="-27.081" y1="36.559" x2="-15.976" y2="47.664" stroke="#C0DCC0" stroke-width="0.500mm" />
<polygon points="6.740 57.045  1.439 58.222  -10.233 53.289  -14.847 50.318  -18.714 49.853  -22.935 47.583  -29.151 38.733  -32.363 24.587  -33.930 15.741  -35.168 4.440  -31.778 0.907  -19.341 -11.990  -14.946 -14.859  -23.747 -23.740  -23.917 -26.005  -28.122 -30.487  -27.772 -33.062  -22.864 -37.445  -13.356 -41.203  -12.194 -40.732  -10.776 -42.596  -4.004 -49.834  4.467 -48.205  7.745 -46.629  11.343 -28.486  15.750 -24.763  24.660 -24.565  31.966 -23.451  33.703 -15.659  37.229 -2.185  41.152 4.717  38.802 22.257  38.415 27.548  36.720 28.327  34.816 33.225  25.798 46.568  18.810 53.769  11.055 56.088  " stroke="#000000" stroke-width="0.500mm" style="fill:none" />
<polygon points="6.307 55.092  6.306 55.093  1.630 56.131  -9.292 51.515  -13.764 48.636  -14.608 48.332  -18.102 47.912  -21.569 46.047  -27.289 37.904  -30.402 24.191  -31.949 15.461  -33.078 5.151  -30.335 2.292  -30.335 2.292  -18.058 -10.439  -13.853 -13.184  -13.105 -14.078  -12.982 -15.236  -13.525 -16.267  -21.808 -24.625  -21.923 -26.155  -22.458 -27.373  -26.012 -31.161  -25.889 -32.062  -21.797 -35.716  -13.366 -39.049  -12.945 -38.878  -11.665 -38.803  -10.602 -39.521  -9.241 -41.311  -3.298 -47.662  3.836 -46.290  5.977 -45.260  9.381 -28.097  10.052 -26.958  14.459 -23.235  15.706 -22.763  24.492 -22.568  30.312 -21.680  31.751 -15.224  31.768 -15.153  35.294 -1.679  35.490 -1.197  39.080 5.120  36.820 21.991  36.807 22.111  36.506 26.225  35.885 26.510  34.856 27.602  33.033 32.291  24.239 45.302  17.738 52.002  10.559 54.149  " stroke="#000000" stroke-width="0.500mm" style="fill:none" />
</svg>
