<?xml version="1.0" encoding="UTF-8"?>
<!-- netfabb SVG Slice Export -->
<!-- Layer: 46 -->
<!-- Z-Height: 18.400 -->


<svg xmlns="http://www.w3.org/2000/svg"	xmlns:xlink="http://www.w3.org/1999/xlink" xmlns:ev="http://www.w3.org/2001/xml-events" version="1.1" baseProfile="full" width="100.000mm" height="122.943mm" viewBox="-49.999 -61.469 100.000 122.943" style="border: 0px; background-color: #FFFFFF"> 
<line x1="-32.000" y1="24.728" x2="-32.000" y2="1.759" stroke="#C0DCC0" stroke-width="0.500mm" />
<line x1="-16.000" y1="49.594" x2="-16.000" y2="-12.354" stroke="#C0DCC0" stroke-width="0.500mm" />
<line x1="0.000" y1="45.231" x2="0.000" y2="-26.103" stroke="#C0DCC0" stroke-width="0.500mm" />
<line x1="16.000" y1="51.321" x2="16.000" y2="-30.840" stroke="#C0DCC0" stroke-width="0.500mm" />
<line x1="32.000" y1="40.882" x2="32.000" y2="-14.570" stroke="#C0DCC0" stroke-width="0.500mm" />
<polygon points="40.278 32.936  40.069 33.473  36.375 39.775  31.525 45.131  22.793 53.714  12.089 53.883  11.981 53.805  -1.656 47.207  -5.468 48.947  -7.822 54.059  -17.995 51.696  -25.113 45.934  -29.693 35.720  -34.889 24.429  -37.001 18.842  -37.617 14.558  -34.222 0.298  -30.416 -7.439  -29.609 -7.860  -28.892 -8.939  -17.612 -14.185  -16.851 -17.515  -17.073 -23.362  -14.370 -27.056  -13.228 -29.557  -7.218 -28.004  -2.033 -27.311  -0.498 -32.179  1.364 -35.530  1.872 -36.849  8.836 -39.115  10.556 -39.625  14.549 -36.295  19.519 -30.618  20.597 -22.876  25.406 -17.541  30.424 -18.035  36.925 -15.075  42.419 -7.919  48.828 2.731  49.099 5.056  48.753 28.302  48.684 28.868  45.161 30.694  " stroke="#000000" stroke-width="0.500mm" style="fill:none" />
<polygon points="39.443 31.118  38.414 32.211  38.262 32.603  34.756 38.583  30.078 43.749  21.962 51.727  12.583 51.875  -0.785 45.407  -1.634 45.207  -2.486 45.388  -6.298 47.128  -7.285 48.110  -8.957 51.742  -17.094 49.852  -23.484 44.680  -27.868 34.902  -27.876 34.884  -33.043 23.657  -35.052 18.341  -35.583 14.650  -32.328 0.980  -28.910 -5.969  -28.684 -6.087  -27.943 -6.753  -27.537 -7.364  -16.769 -12.372  -16.057 -12.927  -15.662 -13.739  -14.901 -17.069  -14.852 -17.591  -15.048 -22.743  -12.756 -25.875  -12.551 -26.225  -12.105 -27.202  -7.718 -26.068  -7.483 -26.022  -2.298 -25.329  -0.960 -25.623  -0.126 -26.710  1.348 -31.384  3.112 -34.559  3.230 -34.811  3.396 -35.241  9.449 -37.211  10.097 -37.403  13.148 -34.859  17.620 -29.751  18.616 -22.600  19.111 -21.537  23.920 -16.202  24.684 -15.676  25.602 -15.551  30.084 -15.992  35.643 -13.461  40.761 -6.794  46.891 3.391  47.097 5.159  46.763 27.611  44.291 28.892  " stroke="#000000" stroke-width="0.500mm" style="fill:none" />
</svg>
