<?xml version="1.0" encoding="UTF-8"?>
<!-- netfabb SVG Slice Export -->
<!-- Layer: 14 -->
<!-- Z-Height: 5.600 -->


<svg xmlns="http://www.w3.org/2000/svg"	xmlns:xlink="http://www.w3.org/1999/xlink" xmlns:ev="http://www.w3.org/2001/xml-events" version="1.1" baseProfile="full" width="100.000mm" height="122.943mm" viewBox="-49.999 -61.469 100.000 122.943" style="border: 0px; background-color: #FFFFFF"> 
<line x1="-32.000" y1="20.843" x2="-32.000" y2="2.662" stroke="#C0DCC0" stroke-width="0.500mm" />
<line x1="-16.000" y1="50.994" x2="-16.000" y2="-11.260" stroke="#C0DCC0" stroke-width="0.500mm" />
<line x1="-16.000" y1="-18.474" x2="-16.000" y2="-34.715" stroke="#C0DCC0" stroke-width="0.500mm" />
<line x1="0.000" y1="56.694" x2="0.000" y2="-44.884" stroke="#C0DCC0" stroke-width="0.500mm" />
<line x1="16.000" y1="54.250" x2="16.000" y2="-25.002" stroke="#C0DCC0" stroke-width="0.500mm" />
<line x1="32.000" y1="37.095" x2="32.000" y2="-12.756" stroke="#C0DCC0" stroke-width="0.500mm" />
<polygon points="8.444 -43.668  10.591 -32.843  18.236 -26.386  18.780 -25.764  18.812 -25.536  19.167 -25.142  31.837 -22.786  35.745 -8.570  35.936 -8.483  35.993 -8.408  36.101 -8.229  43.542 4.863  41.912 17.022  41.116 27.905  37.630 29.506  33.715 39.583  31.595 42.719  24.074 50.469  18.155 56.287  17.446 56.298  16.253 57.013  1.115 60.384  -8.080 54.464  -17.860 53.288  -28.072 47.798  -28.355 47.518  -28.325 47.174  -31.242 30.062  -34.082 23.544  -34.972 18.239  -36.271 3.944  -34.204 1.348  -29.354 -3.705  -24.607 -8.628  -15.592 -14.512  -21.031 -20.000  -21.406 -24.984  -25.301 -29.136  -24.272 -34.207  -21.431 -36.744  -17.846 -38.162  -12.276 -35.905  -5.483 -44.837  -2.591 -47.928  1.027 -47.233  " stroke="#000000" stroke-width="0.500mm" style="fill:none" />
<polygon points="6.677 -42.298  8.629 -32.454  9.300 -31.315  16.832 -24.953  17.134 -24.608  17.326 -24.197  17.681 -23.803  18.801 -23.176  30.241 -21.049  33.817 -8.040  34.223 -7.273  34.435 -7.113  41.470 5.266  39.930 16.756  39.917 16.876  39.207 26.581  36.795 27.689  35.766 28.782  31.933 38.648  30.037 41.453  22.651 49.064  17.289 54.334  16.418 54.583  15.504 55.131  1.496 58.250  -6.997 52.782  -7.841 52.478  -17.246 51.347  -26.426 46.412  -29.270 29.726  -29.408 29.263  -32.151 22.967  -32.986 17.991  -34.206 4.562  -32.695 2.664  -27.911 -2.320  -27.911 -2.320  -23.324 -7.077  -14.499 -12.837  -13.751 -13.731  -13.628 -14.889  -14.171 -15.920  -19.092 -20.886  -19.412 -25.134  -19.947 -26.352  -23.135 -29.751  -22.444 -33.158  -20.365 -35.015  -17.855 -36.007  -13.027 -34.051  -11.747 -33.976  -10.684 -34.694  -3.948 -43.552  -1.885 -45.756  0.393 -45.318  " stroke="#000000" stroke-width="0.500mm" style="fill:none" />
</svg>
