<?xml version="1.0" encoding="UTF-8"?>
<!-- netfabb SVG Slice Export -->
<!-- Layer: 34 -->
<!-- Z-Height: 13.600 -->


<svg xmlns="http://www.w3.org/2000/svg"	xmlns:xlink="http://www.w3.org/1999/xlink" xmlns:ev="http://www.w3.org/2001/xml-events" version="1.1" baseProfile="full" width="100.000mm" height="122.943mm" viewBox="-49.999 -61.469 100.000 122.943" style="border: 0px; background-color: #FFFFFF"> 
<line x1="-32.000" y1="32.165" x2="-32.000" y2="0.265" stroke="#C0DCC0" stroke-width="0.500mm" />
<line x1="-16.000" y1="53.866" x2="-16.000" y2="-11.597" stroke="#C0DCC0" stroke-width="0.500mm" />
<line x1="0.000" y1="57.623" x2="0.000" y2="-25.737" stroke="#C0DCC0" stroke-width="0.500mm" />
<line x1="16.000" y1="52.258" x2="16.000" y2="-28.705" stroke="#C0DCC0" stroke-width="0.500mm" />
<line x1="32.000" y1="40.232" x2="32.000" y2="-11.929" stroke="#C0DCC0" stroke-width="0.500mm" />
<polygon points="47.885 5.127  47.567 7.504  46.027 28.554  39.285 31.650  37.263 36.854  35.117 40.513  32.301 43.624  21.053 54.679  14.096 54.788  4.277 60.679  2.839 59.983  2.440 60.165  2.194 60.699  -17.054 56.227  -23.230 51.228  -28.655 45.860  -28.543 44.546  -33.474 35.333  -35.576 29.773  -38.478 9.573  -37.428 5.164  -34.988 0.205  -29.749 -7.442  -20.373 -12.321  -16.790 -13.988  -16.671 -14.506  -17.001 -23.199  -12.983 -28.690  -12.640 -29.442  -10.833 -28.975  -1.438 -27.719  1.343 -36.540  1.410 -36.672  9.325 -39.248  9.733 -39.369  10.680 -38.579  19.242 -28.798  19.928 -23.873  26.330 -16.770  27.212 -16.857  36.554 -12.603  40.009 -8.102  46.431 2.567  " stroke="#000000" stroke-width="0.500mm" style="fill:none" />
<polygon points="45.585 7.239  45.572 7.358  44.118 27.229  38.450 29.832  37.421 30.926  35.458 35.979  33.496 39.323  30.854 42.242  20.222 52.692  14.065 52.788  13.067 53.073  4.175 58.408  3.710 58.183  2.862 57.983  2.009 58.163  1.610 58.345  1.476 58.479  -16.153 54.383  -21.892 49.738  -26.582 45.097  -26.550 44.716  -26.780 43.602  -31.648 34.506  -33.627 29.272  -36.444 9.666  -35.534 5.846  -33.255 1.213  -28.382 -5.899  -19.491 -10.526  -15.946 -12.175  -15.236 -12.730  -14.841 -13.540  -14.722 -14.058  -14.672 -14.582  -14.976 -22.580  -11.652 -27.122  -11.333 -27.039  -11.098 -26.993  -1.703 -25.737  -0.365 -26.031  0.469 -27.118  2.979 -35.079  9.288 -37.133  17.343 -27.931  17.947 -23.597  18.442 -22.534  24.844 -15.431  25.608 -14.905  26.526 -14.780  26.872 -14.814  35.272 -10.989  38.351 -6.977  44.707 3.581  45.814 5.530  " stroke="#000000" stroke-width="0.500mm" style="fill:none" />
</svg>
