<?xml version="1.0" encoding="UTF-8"?>
<!-- netfabb SVG Slice Export -->
<!-- Layer: 15 -->
<!-- Z-Height: 6.000 -->


<svg xmlns="http://www.w3.org/2000/svg"	xmlns:xlink="http://www.w3.org/1999/xlink" xmlns:ev="http://www.w3.org/2001/xml-events" version="1.1" baseProfile="full" width="100.000mm" height="122.943mm" viewBox="-49.999 -61.469 100.000 122.943" style="border: 0px; background-color: #FFFFFF"> 
<line x1="1.039" y1="-44.216" x2="6.974" y2="-38.281" stroke="#C0DCC0" stroke-width="0.500mm" />
<line x1="23.957" y1="-21.298" x2="31.258" y2="-13.997" stroke="#C0DCC0" stroke-width="0.500mm" />
<line x1="-10.909" y1="-33.537" x2="39.653" y2="17.026" stroke="#C0DCC0" stroke-width="0.500mm" />
<line x1="-13.420" y1="-13.420" x2="33.514" y2="33.514" stroke="#C0DCC0" stroke-width="0.500mm" />
<line x1="-26.197" y1="-3.569" x2="24.237" y2="46.864" stroke="#C0DCC0" stroke-width="0.500mm" />
<line x1="-33.224" y1="12.031" x2="10.552" y2="55.807" stroke="#C0DCC0" stroke-width="0.500mm" />
<line x1="-26.548" y1="41.334" x2="-16.667" y2="51.216" stroke="#C0DCC0" stroke-width="0.500mm" />
<polygon points="8.507 -43.399  10.522 -33.240  17.697 -27.179  18.803 -25.916  18.868 -25.453  19.589 -24.653  31.532 -22.431  35.217 -9.030  35.966 -8.689  36.194 -8.393  36.617 -7.690  43.759 4.876  42.195 16.546  41.362 27.937  37.713 29.613  33.614 40.160  32.122 42.369  26.826 47.826  18.300 56.206  17.278 56.222  15.560 57.253  1.235 60.442  -7.464 54.841  -17.782 53.600  -27.323 48.471  -28.370 47.435  -28.261 46.160  -30.690 31.909  -34.153 23.963  -35.238 17.495  -36.449 4.176  -33.269 0.184  -29.134 -4.124  -25.086 -8.322  -15.651 -14.481  -20.784 -19.660  -21.178 -24.891  -24.871 -28.828  -23.716 -34.524  -21.301 -36.681  -18.254 -37.885  -12.283 -35.466  -5.002 -45.041  -2.462 -47.755  0.715 -47.144  " stroke="#000000" stroke-width="0.500mm" style="fill:none" />
<polygon points="6.740 -42.029  8.560 -32.851  9.231 -31.712  16.290 -25.749  16.994 -24.945  17.382 -24.114  18.103 -23.314  19.223 -22.687  29.936 -20.694  33.289 -8.500  33.695 -7.732  34.388 -7.210  34.641 -7.095  34.893 -6.676  41.687 5.279  40.213 16.280  40.200 16.400  39.453 26.613  36.878 27.796  35.849 28.889  31.831 39.228  30.566 41.101  25.403 46.421  17.469 54.219  17.247 54.222  16.249 54.507  14.809 55.371  1.616 58.308  -6.381 53.159  -7.225 52.855  -17.168 51.659  -26.121 46.846  -26.297 46.672  -26.268 46.330  -26.289 45.824  -28.718 31.573  -28.857 31.110  -32.222 23.390  -33.252 17.247  -34.384 4.794  -31.766 1.506  -27.691 -2.739  -27.691 -2.739  -23.803 -6.771  -14.558 -12.806  -13.810 -13.700  -13.687 -14.858  -14.230 -15.889  -18.845 -20.546  -19.184 -25.041  -19.719 -26.259  -22.706 -29.443  -21.888 -33.475  -20.234 -34.952  -18.264 -35.731  -13.034 -33.612  -11.754 -33.537  -10.691 -34.255  -3.471 -43.750  -1.756 -45.583  0.082 -45.229  " stroke="#000000" stroke-width="0.500mm" style="fill:none" />
</svg>
