<?xml version="1.0" encoding="UTF-8"?>
<!-- netfabb SVG Slice Export -->
<!-- Layer: 37 -->
<!-- Z-Height: 14.800 -->


<svg xmlns="http://www.w3.org/2000/svg"	xmlns:xlink="http://www.w3.org/1999/xlink" xmlns:ev="http://www.w3.org/2001/xml-events" version="1.1" baseProfile="full" width="100.000mm" height="122.943mm" viewBox="-49.999 -61.469 100.000 122.943" style="border: 0px; background-color: #FFFFFF"> 
<line x1="-35.449" y1="12.822" x2="11.617" y2="-34.245" stroke="#C0DCC0" stroke-width="0.500mm" />
<line x1="-31.555" y1="31.555" x2="19.997" y2="-19.997" stroke="#C0DCC0" stroke-width="0.500mm" />
<line x1="-23.900" y1="46.527" x2="34.211" y2="-11.584" stroke="#C0DCC0" stroke-width="0.500mm" />
<line x1="-9.161" y1="54.416" x2="43.561" y2="1.694" stroke="#C0DCC0" stroke-width="0.500mm" />
<line x1="15.856" y1="52.026" x2="44.654" y2="23.228" stroke="#C0DCC0" stroke-width="0.500mm" />
<polygon points="48.537 5.166  48.415 6.076  46.764 28.651  39.533 31.971  37.964 36.008  35.432 40.329  32.107 44.001  21.488 54.438  13.593 54.562  6.235 58.976  1.715 56.789  0.463 57.361  -0.310 59.039  -17.290 55.094  -27.334 46.964  -28.700 45.612  -28.672 45.281  -29.914 42.960  -35.933 27.041  -38.262 10.819  -36.626 3.948  -32.824 -3.783  -30.178 -7.644  -25.444 -10.108  -16.995 -14.037  -16.716 -15.258  -17.019 -23.240  -13.330 -28.282  -12.787 -29.471  -9.929 -28.733  -1.587 -27.617  0.883 -35.450  1.388 -36.359  1.526 -36.716  9.203 -39.215  9.938 -39.433  11.647 -38.008  19.311 -29.253  20.095 -23.624  26.099 -16.963  28.015 -17.152  36.647 -13.221  40.611 -8.057  47.980 4.187  " stroke="#000000" stroke-width="0.500mm" style="fill:none" />
<polygon points="46.433 5.810  46.420 5.930  44.855 27.326  38.698 30.153  37.669 31.246  36.158 35.133  33.810 39.140  30.660 42.619  20.657 52.451  13.562 52.562  12.564 52.847  6.133 56.705  2.586 54.989  1.737 54.789  0.884 54.970  -0.368 55.542  -1.354 56.524  -1.445 56.722  -16.389 53.250  -26.001 45.469  -26.848 44.631  -26.909 44.337  -28.088 42.133  -33.984 26.540  -36.228 10.912  -34.732 4.630  -31.092 -2.771  -28.810 -6.102  -24.571 -8.308  -16.152 -12.223  -15.440 -12.779  -15.045 -13.591  -14.766 -14.812  -14.717 -15.334  -14.994 -22.621  -11.716 -27.101  -11.702 -27.126  -10.429 -26.797  -10.194 -26.751  -1.852 -25.635  -0.514 -25.929  0.320 -27.016  2.729 -34.655  2.965 -35.081  9.488 -37.204  10.246 -36.572  17.412 -28.386  18.114 -23.348  18.609 -22.285  24.613 -15.624  25.377 -15.098  26.295 -14.973  27.675 -15.109  35.365 -11.607  38.953 -6.932  46.264 5.215  46.465 5.569  " stroke="#000000" stroke-width="0.500mm" style="fill:none" />
</svg>
