<?xml version="1.0" encoding="UTF-8"?>
<!-- netfabb SVG Slice Export -->
<!-- Layer: 39 -->
<!-- Z-Height: 15.600 -->


<svg xmlns="http://www.w3.org/2000/svg"	xmlns:xlink="http://www.w3.org/1999/xlink" xmlns:ev="http://www.w3.org/2001/xml-events" version="1.1" baseProfile="full" width="100.000mm" height="122.943mm" viewBox="-49.999 -61.469 100.000 122.943" style="border: 0px; background-color: #FFFFFF"> 
<line x1="8.796" y1="-36.459" x2="17.017" y2="-28.238" stroke="#C0DCC0" stroke-width="0.500mm" />
<line x1="32.410" y1="-12.845" x2="39.407" y2="-5.848" stroke="#C0DCC0" stroke-width="0.500mm" />
<line x1="-2.510" y1="-25.138" x2="45.198" y2="22.571" stroke="#C0DCC0" stroke-width="0.500mm" />
<line x1="-14.475" y1="-14.475" x2="35.501" y2="35.501" stroke="#C0DCC0" stroke-width="0.500mm" />
<line x1="-28.573" y1="-5.945" x2="24.989" y2="47.616" stroke="#C0DCC0" stroke-width="0.500mm" />
<line x1="-35.176" y1="10.079" x2="8.872" y2="54.126" stroke="#C0DCC0" stroke-width="0.500mm" />
<line x1="-27.925" y1="39.958" x2="-15.707" y2="52.176" stroke="#C0DCC0" stroke-width="0.500mm" />
<polygon points="47.255 28.716  39.699 32.186  38.432 35.445  35.641 40.206  31.978 44.252  21.778 54.277  13.258 54.411  7.541 57.841  0.966 54.660  -0.855 55.491  -1.979 57.933  -17.446 54.339  -28.269 45.578  -28.836 44.313  -29.480 42.914  -36.170 25.219  -38.119 11.650  -36.092 3.136  -31.381 -6.441  -30.464 -7.779  -28.824 -8.632  -17.132 -14.070  -16.746 -15.760  -17.031 -23.267  -13.561 -28.009  -12.885 -29.490  -9.327 -28.571  -1.686 -27.549  0.576 -34.723  1.383 -36.174  1.603 -36.746  9.121 -39.193  10.076 -39.476  12.292 -37.628  19.357 -29.556  20.207 -23.458  25.945 -17.091  28.551 -17.348  36.709 -13.633  41.013 -8.026  48.939 5.143  48.944 5.188  48.936 5.734  " stroke="#000000" stroke-width="0.500mm" style="fill:none" />
<polygon points="38.864 30.368  37.835 31.461  36.624 34.575  34.022 39.014  30.531 42.870  20.947 52.290  13.227 52.411  12.229 52.696  7.439 55.570  1.837 52.860  0.988 52.660  0.136 52.840  -1.685 53.672  -2.672 54.655  -3.114 55.616  -16.545 52.495  -26.640 44.324  -27.011 43.495  -27.019 43.477  -27.634 42.142  -34.221 24.718  -36.085 11.743  -34.198 3.818  -29.649 -5.429  -29.096 -6.236  -27.934 -6.841  -16.289 -12.257  -15.577 -12.812  -15.182 -13.625  -14.796 -15.315  -14.747 -15.836  -15.006 -22.648  -11.947 -26.828  -11.767 -27.136  -9.827 -26.635  -9.592 -26.589  -1.951 -25.567  -0.613 -25.861  0.221 -26.948  2.421 -33.925  3.089 -35.126  9.620 -37.252  10.891 -36.192  17.458 -28.689  18.226 -23.182  18.721 -22.119  24.459 -15.752  25.223 -15.226  26.141 -15.101  28.211 -15.305  35.427 -12.019  39.355 -6.901  46.934 5.690  45.346 27.391  " stroke="#000000" stroke-width="0.500mm" style="fill:none" />
</svg>
