<?xml version="1.0" encoding="UTF-8"?>
<!-- netfabb SVG Slice Export -->
<!-- Layer: 2 -->
<!-- Z-Height: 0.800 -->


<svg xmlns="http://www.w3.org/2000/svg"	xmlns:xlink="http://www.w3.org/1999/xlink" xmlns:ev="http://www.w3.org/2001/xml-events" version="1.1" baseProfile="full" width="100.000mm" height="122.943mm" viewBox="-49.999 -61.469 100.000 122.943" style="border: 0px; background-color: #FFFFFF"> 
<line x1="37.500" y1="3.718" x2="37.500" y2="11.520" stroke="#C0DCC0" stroke-width="0.500mm" />
<line x1="35.000" y1="-0.806" x2="35.000" y2="26.580" stroke="#C0DCC0" stroke-width="0.500mm" />
<line x1="32.500" y1="-10.268" x2="32.500" y2="31.760" stroke="#C0DCC0" stroke-width="0.500mm" />
<line x1="30.000" y1="-20.527" x2="30.000" y2="35.458" stroke="#C0DCC0" stroke-width="0.500mm" />
<line x1="27.500" y1="-21.588" x2="27.500" y2="39.156" stroke="#C0DCC0" stroke-width="0.500mm" />
<line x1="25.000" y1="-21.966" x2="25.000" y2="42.855" stroke="#C0DCC0" stroke-width="0.500mm" />
<line x1="22.500" y1="-22.021" x2="22.500" y2="46.183" stroke="#C0DCC0" stroke-width="0.500mm" />
<line x1="20.000" y1="-22.077" x2="20.000" y2="48.760" stroke="#C0DCC0" stroke-width="0.500mm" />
<line x1="17.500" y1="-22.132" x2="17.500" y2="51.276" stroke="#C0DCC0" stroke-width="0.500mm" />
<line x1="15.000" y1="-22.328" x2="15.000" y2="52.023" stroke="#C0DCC0" stroke-width="0.500mm" />
<line x1="12.500" y1="-23.898" x2="12.500" y2="52.771" stroke="#C0DCC0" stroke-width="0.500mm" />
<line x1="10.000" y1="-26.010" x2="10.000" y2="53.518" stroke="#C0DCC0" stroke-width="0.500mm" />
<line x1="7.500" y1="-34.965" x2="7.500" y2="54.100" stroke="#C0DCC0" stroke-width="0.500mm" />
<line x1="5.000" y1="-45.414" x2="5.000" y2="54.655" stroke="#C0DCC0" stroke-width="0.500mm" />
<line x1="2.500" y1="-46.187" x2="2.500" y2="55.210" stroke="#C0DCC0" stroke-width="0.500mm" />
<line x1="0.000" y1="-46.667" x2="0.000" y2="54.640" stroke="#C0DCC0" stroke-width="0.500mm" />
<line x1="-2.500" y1="-47.148" x2="-2.500" y2="53.584" stroke="#C0DCC0" stroke-width="0.500mm" />
<line x1="-5.000" y1="-45.421" x2="-5.000" y2="52.527" stroke="#C0DCC0" stroke-width="0.500mm" />
<line x1="-7.500" y1="-42.749" x2="-7.500" y2="51.470" stroke="#C0DCC0" stroke-width="0.500mm" />
<line x1="-10.000" y1="-39.915" x2="-10.000" y2="50.413" stroke="#C0DCC0" stroke-width="0.500mm" />
<line x1="-12.500" y1="-38.817" x2="-12.500" y2="-15.493" stroke="#C0DCC0" stroke-width="0.500mm" />
<line x1="-12.500" y1="-14.713" x2="-12.500" y2="48.875" stroke="#C0DCC0" stroke-width="0.500mm" />
<line x1="-15.000" y1="-37.980" x2="-15.000" y2="-18.557" stroke="#C0DCC0" stroke-width="0.500mm" />
<line x1="-15.000" y1="-11.831" x2="-15.000" y2="47.518" stroke="#C0DCC0" stroke-width="0.500mm" />
<line x1="-17.500" y1="-36.992" x2="-17.500" y2="-21.079" stroke="#C0DCC0" stroke-width="0.500mm" />
<line x1="-17.500" y1="-10.107" x2="-17.500" y2="47.178" stroke="#C0DCC0" stroke-width="0.500mm" />
<line x1="-20.000" y1="-36.004" x2="-20.000" y2="-23.602" stroke="#C0DCC0" stroke-width="0.500mm" />
<line x1="-20.000" y1="-7.514" x2="-20.000" y2="46.052" stroke="#C0DCC0" stroke-width="0.500mm" />
<line x1="-22.500" y1="-34.598" x2="-22.500" y2="-27.997" stroke="#C0DCC0" stroke-width="0.500mm" />
<line x1="-22.500" y1="-4.922" x2="-22.500" y2="43.130" stroke="#C0DCC0" stroke-width="0.500mm" />
<line x1="-25.000" y1="-32.366" x2="-25.000" y2="-30.662" stroke="#C0DCC0" stroke-width="0.500mm" />
<line x1="-25.000" y1="-2.329" x2="-25.000" y2="39.571" stroke="#C0DCC0" stroke-width="0.500mm" />
<line x1="-27.500" y1="0.263" x2="-27.500" y2="34.216" stroke="#C0DCC0" stroke-width="0.500mm" />
<line x1="-30.000" y1="2.856" x2="-30.000" y2="22.824" stroke="#C0DCC0" stroke-width="0.500mm" />
<polygon points="7.407 56.681  1.506 57.992  -11.489 52.499  -15.462 49.941  -18.792 49.541  -22.426 47.587  -29.227 37.903  -32.146 25.045  -33.957 14.826  -35.083 4.541  -31.998 1.327  -18.862 -12.296  -14.887 -14.890  -23.994 -24.079  -24.146 -26.098  -27.892 -30.091  -27.420 -33.556  -22.994 -37.509  -12.948 -41.480  -12.186 -41.171  -11.258 -42.392  -4.132 -50.007  4.780 -48.293  7.681 -46.898  11.412 -28.089  15.450 -24.678  25.248 -24.460  31.910 -23.444  33.495 -16.338  37.352 -1.601  40.935 4.704  38.520 22.733  38.170 27.516  36.638 28.219  34.917 32.647  25.271 46.918  18.923 53.460  10.279 56.044  " stroke="#000000" stroke-width="0.500mm" style="fill:none" />
<polygon points="6.974 54.728  6.973 54.729  1.697 55.901  -10.548 50.725  -14.379 48.259  -15.223 47.955  -18.178 47.600  -21.062 46.049  -27.364 37.075  -30.185 24.649  -31.976 14.546  -32.993 5.252  -30.555 2.712  -30.555 2.712  -17.579 -10.745  -13.794 -13.215  -13.046 -14.109  -12.923 -15.267  -13.466 -16.298  -22.055 -24.965  -22.152 -26.248  -22.687 -27.466  -25.781 -30.765  -25.537 -32.556  -21.927 -35.780  -12.957 -39.326  -12.938 -39.318  -11.657 -39.242  -10.594 -39.961  -9.731 -41.097  -3.426 -47.834  4.149 -46.378  5.913 -45.529  9.450 -27.700  10.121 -26.561  14.159 -23.150  15.406 -22.678  25.079 -22.463  30.256 -21.673  31.543 -15.903  31.560 -15.832  35.417 -1.095  35.613 -0.613  38.863 5.107  36.538 22.467  36.525 22.587  36.261 26.191  35.804 26.401  34.774 27.494  33.134 31.713  23.712 45.652  17.851 51.693  9.783 54.105  " stroke="#000000" stroke-width="0.500mm" style="fill:none" />
</svg>
