<?xml version="1.0" encoding="UTF-8"?>
<!-- netfabb SVG Slice Export -->
<!-- Layer: 5 -->
<!-- Z-Height: 2.000 -->


<svg xmlns="http://www.w3.org/2000/svg"	xmlns:xlink="http://www.w3.org/1999/xlink" xmlns:ev="http://www.w3.org/2001/xml-events" version="1.1" baseProfile="full" width="100.000mm" height="122.943mm" viewBox="-49.999 -61.469 100.000 122.943" style="border: 0px; background-color: #FFFFFF"> 
<line x1="-20.848" y1="-24.407" x2="0.811" y2="-46.066" stroke="#C0DCC0" stroke-width="0.500mm" />
<line x1="-32.235" y1="9.608" x2="8.325" y2="-30.952" stroke="#C0DCC0" stroke-width="0.500mm" />
<line x1="-29.019" y1="29.019" x2="22.301" y2="-22.301" stroke="#C0DCC0" stroke-width="0.500mm" />
<line x1="-22.571" y1="45.198" x2="32.653" y2="-10.026" stroke="#C0DCC0" stroke-width="0.500mm" />
<line x1="-7.064" y1="52.319" x2="38.840" y2="6.415" stroke="#C0DCC0" stroke-width="0.500mm" />
<line x1="15.046" y1="52.836" x2="27.630" y2="40.253" stroke="#C0DCC0" stroke-width="0.500mm" />
<polygon points="5.404 57.773  1.306 58.684  -7.719 54.869  -13.616 51.072  -18.559 50.478  -23.954 47.577  -29.000 40.392  -32.797 23.670  -33.877 17.572  -35.337 4.237  -31.337 0.069  -20.298 -11.379  -15.063 -14.796  -23.253 -23.060  -23.461 -25.820  -28.583 -31.280  -28.475 -32.073  -22.603 -37.318  -14.172 -40.650  -12.209 -39.855  -9.814 -43.003  -3.747 -49.488  3.842 -48.028  7.872 -46.091  11.206 -29.278  16.350 -24.934  23.483 -24.775  32.076 -23.465  34.120 -14.299  36.984 -3.353  41.587 4.744  39.368 21.305  38.906 27.613  36.886 28.541  34.616 34.381  26.852 45.868  18.585 54.387  12.606 56.175  " stroke="#000000" stroke-width="0.500mm" style="fill:none" />
<polygon points="4.971 55.820  4.970 55.821  1.496 56.593  -6.778 53.095  -12.533 49.390  -13.377 49.086  -17.947 48.537  -22.589 46.041  -27.137 39.564  -30.836 23.274  -31.896 17.292  -33.247 4.948  -29.894 1.454  -29.894 1.454  -19.015 -9.828  -13.970 -13.121  -13.222 -14.015  -13.099 -15.173  -13.642 -16.204  -21.314 -23.946  -21.467 -25.970  -22.002 -27.188  -26.078 -31.533  -21.536 -35.589  -14.182 -38.496  -12.960 -38.001  -11.680 -37.926  -10.617 -38.644  -8.279 -41.718  -3.041 -47.316  3.209 -46.113  6.104 -44.721  9.244 -28.889  9.916 -27.750  15.060 -23.406  16.305 -22.934  23.315 -22.778  30.422 -21.694  32.168 -13.864  32.185 -13.793  35.049 -2.847  35.245 -2.365  39.515 5.147  37.386 21.039  37.373 21.159  36.997 26.289  36.051 26.724  35.022 27.816  32.833 33.447  25.294 44.602  17.513 52.620  12.110 54.236  " stroke="#000000" stroke-width="0.500mm" style="fill:none" />
</svg>
