<?xml version="1.0" encoding="UTF-8"?>
<!-- netfabb SVG Slice Export -->
<!-- Layer: 44 -->
<!-- Z-Height: 17.600 -->


<svg xmlns="http://www.w3.org/2000/svg"	xmlns:xlink="http://www.w3.org/1999/xlink" xmlns:ev="http://www.w3.org/2001/xml-events" version="1.1" baseProfile="full" width="100.000mm" height="122.943mm" viewBox="-49.999 -61.469 100.000 122.943" style="border: 0px; background-color: #FFFFFF"> 
<line x1="2.165" y1="-32.000" x2="14.675" y2="-32.000" stroke="#C0DCC0" stroke-width="0.500mm" />
<line x1="-14.489" y1="-16.000" x2="23.467" y2="-16.000" stroke="#C0DCC0" stroke-width="0.500mm" />
<line x1="-31.426" y1="0.000" x2="43.884" y2="0.000" stroke="#C0DCC0" stroke-width="0.500mm" />
<line x1="-34.908" y1="16.000" x2="46.391" y2="16.000" stroke="#C0DCC0" stroke-width="0.500mm" />
<line x1="-29.538" y1="32.000" x2="37.709" y2="32.000" stroke="#C0DCC0" stroke-width="0.500mm" />
<line x1="-19.363" y1="48.000" x2="-4.000" y2="48.000" stroke="#C0DCC0" stroke-width="0.500mm" />
<line x1="2.073" y1="48.000" x2="24.912" y2="48.000" stroke="#C0DCC0" stroke-width="0.500mm" />
<polygon points="48.483 28.879  40.112 32.722  39.602 34.036  36.165 39.898  31.654 44.880  22.503 53.875  12.421 54.034  10.805 55.003  -0.907 49.336  -4.150 50.816  -6.153 55.166  -17.838 52.451  -26.014 45.832  -29.448 38.175  -33.344 29.711  -36.764 20.664  -37.760 13.727  -34.756 1.109  -30.483 -7.578  -29.948 -7.857  -29.473 -8.572  -17.475 -14.152  -16.821 -17.013  -17.061 -23.335  -14.139 -27.328  -13.130 -29.538  -7.820 -28.166  -1.934 -27.379  -0.191 -32.906  1.369 -35.714  1.795 -36.819  8.918 -39.137  10.418 -39.582  13.904 -36.676  19.473 -30.315  20.486 -23.042  25.560 -17.412  29.889 -17.839  36.864 -14.663  42.017 -7.950  48.860 3.420  49.055 5.094  48.756 25.144  " stroke="#000000" stroke-width="0.500mm" style="fill:none" />
<polygon points="39.278 30.904  38.248 31.998  37.796 33.161  34.544 38.708  30.207 43.498  21.672 51.888  12.389 52.034  11.392 52.319  10.703 52.732  -0.036 47.536  -0.884 47.336  -1.737 47.517  -4.980 48.997  -5.967 49.980  -7.288 52.849  -16.939 50.607  -24.384 44.579  -27.623 37.357  -27.631 37.339  -31.498 28.939  -34.815 20.163  -35.726 13.820  -32.862 1.791  -28.961 -6.140  -28.282 -6.750  -28.118 -6.997  -16.632 -12.339  -15.920 -12.894  -15.525 -13.706  -14.871 -16.567  -14.822 -17.089  -15.036 -22.716  -12.525 -26.147  -12.320 -26.497  -12.007 -27.183  -8.320 -26.230  -8.085 -26.184  -2.199 -25.397  -0.861 -25.691  -0.027 -26.777  1.656 -32.112  3.117 -34.743  3.235 -34.995  3.318 -35.211  9.531 -37.233  9.960 -37.360  12.504 -35.240  17.574 -29.448  18.505 -22.766  19.000 -21.703  24.074 -16.073  24.838 -15.547  25.756 -15.422  29.549 -15.796  35.582 -13.049  40.359 -6.825  46.923 4.081  47.053 5.196  46.757 25.054  46.574 27.554  " stroke="#000000" stroke-width="0.500mm" style="fill:none" />
</svg>
