<?xml version="1.0" encoding="UTF-8"?>
<!-- netfabb SVG Slice Export -->
<!-- Layer: 24 -->
<!-- Z-Height: 9.600 -->


<svg xmlns="http://www.w3.org/2000/svg"	xmlns:xlink="http://www.w3.org/1999/xlink" xmlns:ev="http://www.w3.org/2001/xml-events" version="1.1" baseProfile="full" width="100.000mm" height="122.943mm" viewBox="-49.999 -61.469 100.000 122.943" style="border: 0px; background-color: #FFFFFF"> 
<line x1="-8.844" y1="-32.000" x2="11.558" y2="-32.000" stroke="#C0DCC0" stroke-width="0.500mm" />
<line x1="-14.448" y1="-16.000" x2="27.091" y2="-16.000" stroke="#C0DCC0" stroke-width="0.500mm" />
<line x1="-29.925" y1="0.000" x2="39.999" y2="0.000" stroke="#C0DCC0" stroke-width="0.500mm" />
<line x1="-34.223" y1="16.000" x2="41.960" y2="16.000" stroke="#C0DCC0" stroke-width="0.500mm" />
<line x1="-30.202" y1="32.000" x2="35.223" y2="32.000" stroke="#C0DCC0" stroke-width="0.500mm" />
<line x1="-23.626" y1="48.000" x2="23.650" y2="48.000" stroke="#C0DCC0" stroke-width="0.500mm" />
<polygon points="9.079 -40.977  9.906 -36.805  12.852 -34.317  19.011 -27.281  19.370 -24.705  23.387 -20.248  28.792 -19.242  30.460 -13.178  36.245 -10.543  38.001 -8.255  41.266 -2.831  45.713 4.995  44.740 12.263  43.572 28.230  38.458 30.578  34.924 39.671  34.070 41.129  32.948 42.368  19.604 55.483  15.771 55.543  9.323 59.412  2.323 60.970  -1.928 58.233  -17.083 56.409  -20.581 54.529  -28.505 46.689  -28.114 42.096  -30.352 37.913  -34.791 27.729  -37.632 10.791  -38.043 6.267  -32.364 -0.863  -28.317 -6.768  -24.584 -8.711  -16.180 -14.197  -18.561 -16.600  -19.123 -24.055  -21.000 -26.057  -19.622 -32.853  -17.225 -33.492  -12.351 -31.517  -4.478 -41.868  -1.291 -37.428  -1.076 -44.961  0.920 -44.898  " stroke="#000000" stroke-width="0.500mm" style="fill:none" />
<polygon points="7.311 -39.607  7.944 -36.416  8.616 -35.277  11.446 -32.887  17.112 -26.414  17.389 -24.429  17.884 -23.366  21.901 -18.909  23.021 -18.282  27.196 -17.505  28.532 -12.648  28.938 -11.881  29.631 -11.358  34.961 -8.930  36.347 -7.124  39.542 -1.817  43.642 5.398  42.758 11.998  42.745 12.117  41.663 26.905  37.623 28.760  36.594 29.853  33.118 38.796  32.446 39.944  31.510 40.977  18.773 53.496  15.740 53.543  14.742 53.828  8.572 57.530  2.704 58.836  -0.845 56.551  -1.689 56.247  -16.469 54.468  -19.379 52.904  -26.433 45.925  -26.121 42.266  -26.351 41.153  -28.550 37.043  -32.860 27.156  -35.646 10.543  -35.978 6.885  -30.800 0.383  -30.714 0.268  -26.949 -5.226  -23.661 -6.937  -23.491 -7.036  -15.087 -12.522  -14.339 -13.416  -14.216 -14.574  -14.759 -15.605  -16.622 -17.486  -17.129 -24.205  -17.664 -25.423  -18.835 -26.672  -17.909 -31.239  -17.356 -31.387  -13.102 -29.663  -11.822 -29.588  -10.759 -30.306  -4.524 -38.503  -2.916 -36.262  -1.931 -35.533  -0.706 -35.516  0.300 -36.216  0.708 -37.371  0.860 -42.708  " stroke="#000000" stroke-width="0.500mm" style="fill:none" />
</svg>
