<svg viewBox="0 0 200 200" xmlns:xlink="http://www.w3.org/1999/xlink" height="200pt" xmlns="http://www.w3.org/2000/svg" width="100%" version="1.1"><defs>
<path d="M0.00 0.00 L200.00 0.00 L200.00 200.00 L0.00 200.00 L0.00 0.00" id="p1" />
<path d="M93.35 23.38 C94.91 22.26 96.92 20.38 98.78 22.12 C99.69 24.68 98.92 27.38 97.61 29.63 C97.99 30.71 100.16 31.76 98.99 32.92 C97.05 36.47 91.47 34.59 89.64 38.12 C89.47 41.21 92.33 39.41 93.44 38.12 C95.16 37.32 96.91 36.60 98.73 36.04 C98.36 38.15 97.90 40.23 97.31 42.29 C97.60 43.99 97.86 45.69 98.11 47.39 C95.69 47.93 93.28 48.48 90.89 49.12 C90.13 48.02 89.36 46.94 88.60 45.85 C91.39 44.38 94.46 43.20 96.61 40.79 C92.61 41.82 89.13 44.14 85.31 45.60 C86.72 38.93 90.29 33.08 93.94 27.43 C88.59 30.66 86.83 37.18 84.52 42.60 C83.46 39.31 82.71 35.61 79.86 33.33 C81.07 37.18 82.56 40.93 83.67 44.82 C83.40 45.09 82.86 45.64 82.58 45.92 C79.07 39.69 75.00 33.80 70.53 28.22 C73.08 26.21 76.24 25.97 79.26 26.92 C81.18 26.15 83.28 23.99 85.41 24.80 C84.95 27.22 84.18 29.57 83.63 31.96 C84.41 31.93 85.96 31.86 86.73 31.82 C87.46 29.28 86.93 25.90 89.24 24.11 C90.59 23.77 91.97 23.60 93.35 23.38" id="p2" />
<path d="M102.06 20.57 C103.86 21.35 105.66 22.19 107.44 23.03 C108.88 23.25 110.35 23.38 111.73 23.90 C113.79 25.87 112.98 29.22 114.49 31.51 C115.45 32.05 116.28 31.86 116.98 30.95 C116.57 28.47 115.65 26.12 114.97 23.72 C117.25 24.40 119.43 25.39 121.43 26.69 C124.69 25.59 128.29 25.43 130.93 28.00 C127.93 31.58 124.75 35.05 122.27 39.04 C120.70 41.37 119.56 44.18 116.99 45.62 C117.70 41.30 119.50 37.28 120.72 33.10 C118.12 35.42 117.30 38.87 116.24 42.04 C113.83 36.72 112.01 30.52 106.95 27.06 C110.21 32.92 114.25 38.59 115.21 45.40 C111.74 43.77 108.36 41.94 104.88 40.30 L104.40 41.54 C106.96 42.87 109.53 44.16 112.14 45.38 C111.37 46.48 110.61 47.59 109.84 48.69 C107.48 48.12 105.12 47.59 102.75 47.07 C102.88 45.45 103.01 43.84 103.16 42.22 C102.70 40.11 102.31 37.99 101.99 35.86 C102.60 35.98 103.83 36.22 104.44 36.33 C104.75 36.72 105.37 37.49 105.69 37.87 C107.09 38.47 108.47 39.14 109.84 39.83 C110.33 38.98 110.82 38.14 111.31 37.29 C107.84 36.22 104.38 35.02 101.33 32.99 C102.15 31.64 103.01 30.32 103.91 29.02 C103.45 28.94 102.52 28.76 102.05 28.68 C101.47 26.01 100.86 23.18 102.06 20.57" id="p3" />
<path d="M47.69 41.90 C53.63 36.10 61.03 32.07 68.79 29.26 C74.86 35.98 80.43 43.40 83.36 52.08 C78.41 54.79 73.97 58.33 70.02 62.36 C63.80 54.31 56.05 47.63 47.69 41.90" id="p4" />
<path d="M117.30 51.74 C120.31 43.09 125.78 35.59 131.94 28.92 C139.82 31.62 147.24 35.75 153.30 41.51 C144.75 47.14 136.85 53.87 130.65 62.06 C126.81 57.89 122.22 54.51 117.30 51.74" id="p5" />
<path d="M55.52 47.45 C57.82 41.32 63.37 37.15 68.71 33.73 C73.31 39.37 77.59 45.64 79.10 52.89 C76.92 50.84 76.18 47.87 74.86 45.29 C73.38 42.23 71.34 39.49 69.37 36.73 C69.72 42.95 69.79 49.21 68.89 55.38 C68.56 55.31 67.90 55.15 67.57 55.07 C68.32 48.64 68.17 42.16 67.93 35.71 C63.06 38.83 59.66 43.53 55.52 47.45" id="p6" />
<path d="M121.85 52.61 C122.72 45.17 127.62 39.11 131.96 33.31 C137.25 36.81 142.80 40.92 145.26 46.98 C141.06 43.25 137.80 38.51 132.93 35.54 C132.24 42.26 132.85 48.99 132.80 55.72 C129.85 49.90 131.91 43.05 131.16 36.81 C126.98 41.43 125.21 47.50 121.85 52.61" id="p7" />
<path d="M26.78 66.96 C31.32 57.77 38.00 49.67 45.83 43.10 C60.87 51.00 73.14 65.01 77.26 81.69 C71.79 83.90 66.45 86.54 61.81 90.23 C55.44 81.69 46.49 75.51 37.03 70.85 C39.03 63.98 43.12 57.98 47.88 52.73 C49.67 57.01 50.84 61.53 51.69 66.09 C52.52 70.54 52.13 75.12 52.94 79.58 C53.76 77.48 54.12 75.23 53.94 72.99 C53.52 66.34 51.96 59.81 49.83 53.52 C55.94 58.93 61.88 64.73 66.10 71.79 C67.92 74.87 69.10 78.28 71.03 81.30 C70.70 75.73 67.47 70.95 64.30 66.57 C59.63 60.54 54.11 55.17 48.13 50.43 C42.63 56.12 38.07 62.79 35.61 70.37 C32.68 69.19 29.74 68.06 26.78 66.96" id="p8" />
<path d="M123.35 81.36 C127.64 64.62 139.84 50.74 154.83 42.55 C162.52 49.31 169.73 56.90 174.18 66.24 C171.11 67.44 168.06 68.69 165.06 70.07 C162.69 62.45 158.09 55.75 152.53 50.11 C145.37 55.73 138.77 62.22 133.87 69.94 C131.79 73.26 129.99 76.86 129.52 80.80 C131.82 78.09 132.61 74.54 134.49 71.58 C138.91 64.46 144.75 58.33 151.14 52.96 C148.87 60.10 146.85 67.45 146.73 74.99 C146.58 76.36 147.39 77.51 148.14 78.57 C147.96 69.63 149.75 60.78 153.01 52.48 C157.74 57.72 161.62 63.78 163.64 70.59 C154.03 74.98 145.41 81.55 138.82 89.83 C134.15 86.19 128.84 83.52 123.35 81.36" id="p9" />
<path d="M82.70 46.57 C85.46 46.27 88.11 46.93 89.63 49.44 C87.98 50.14 86.33 50.83 84.68 51.52 C84.02 49.87 83.35 48.22 82.70 46.57" id="p10" />
<path d="M111.08 48.91 C112.76 46.68 115.33 45.90 118.02 45.96 C117.35 47.72 116.64 49.47 115.92 51.21 C114.30 50.45 112.69 49.69 111.08 48.91" id="p11" />
<path d="M70.79 63.46 C78.36 55.50 88.69 50.24 99.64 49.05 C98.50 59.08 96.69 69.16 92.64 78.47 C87.92 79.18 83.25 80.12 78.58 81.06 C77.15 74.74 74.07 68.99 70.79 63.46" id="p12" />
<path d="M101.02 48.55 C111.93 50.12 122.40 55.07 129.96 63.18 C127.20 67.40 124.91 71.92 123.39 76.73 C120.91 68.57 116.26 61.29 110.81 54.80 C116.06 57.45 120.27 61.70 125.42 64.49 C120.86 58.48 113.99 54.75 107.24 51.70 C107.07 57.04 106.70 62.55 108.37 67.72 C109.26 70.38 110.18 73.34 112.76 74.85 C109.74 68.43 107.77 61.48 108.34 54.32 C111.95 58.27 115.25 62.55 117.86 67.24 C119.75 70.65 120.96 74.40 122.88 77.81 C122.58 78.86 122.28 79.91 121.98 80.96 C117.45 79.63 112.80 78.78 108.13 78.11 C104.00 68.78 102.01 58.66 101.02 48.55" id="p13" />
<path d="M75.53 64.98 C79.53 58.55 86.87 55.25 93.42 51.98 C94.23 59.96 94.04 69.39 88.06 75.47 C90.77 68.94 93.06 62.09 92.21 54.89 C88.54 58.75 85.36 63.05 82.79 67.71 C80.93 71.06 79.81 74.77 77.75 78.02 C78.76 69.31 84.56 62.12 89.68 55.34 C84.56 57.94 80.25 61.77 75.53 64.98" id="p14" />
<path d="M25.92 68.32 C40.02 72.67 53.64 80.62 62.11 92.99 C64.85 96.86 66.75 101.23 68.51 105.62 C61.83 107.84 55.59 111.34 50.51 116.25 C40.84 108.76 28.59 105.72 16.56 105.07 C16.66 92.31 19.62 79.48 25.92 68.32" id="p15" />
<path d="M132.18 105.21 C138.84 86.55 155.84 72.58 174.92 68.03 C181.69 78.97 184.77 91.81 184.95 104.61 C172.58 104.30 159.78 107.61 150.40 116.00 C145.17 111.14 138.97 107.42 132.18 105.21" id="p16" />
<path d="M162.65 77.61 C165.13 76.48 167.72 75.19 170.50 75.24 C173.44 80.45 174.97 86.37 175.69 92.27 C176.07 95.04 175.72 97.87 174.46 100.37 C174.30 92.46 173.90 84.20 169.70 77.22 C163.91 85.45 160.23 94.90 157.56 104.55 C157.24 104.35 156.61 103.95 156.30 103.75 C159.02 94.21 162.71 84.89 168.32 76.65 C158.39 80.21 150.22 87.44 144.17 95.94 C142.22 98.68 140.78 101.90 137.93 103.86 C143.23 92.91 151.77 83.25 162.65 77.61" id="p17" />
<path d="M30.22 75.61 C37.98 76.43 44.57 81.66 50.19 86.76 C55.10 92.00 60.40 97.54 62.44 104.60 C59.16 101.10 57.14 96.67 54.06 93.02 C48.48 85.91 41.04 80.26 32.51 77.19 C37.88 85.86 42.99 95.31 44.00 105.61 C43.13 104.16 42.40 102.63 41.93 101.01 C39.54 92.60 35.98 84.41 30.65 77.44 C29.06 81.54 27.51 85.70 26.81 90.06 C26.22 93.61 26.73 97.24 26.03 100.77 C23.56 92.30 26.29 83.19 30.22 75.61" id="p18" />
<path d="M102.82 79.19 C115.29 79.99 128.03 83.14 138.04 90.97 C135.00 95.25 132.71 100.00 130.86 104.90 C124.17 103.52 117.30 103.22 110.51 103.87 C106.02 96.39 103.80 87.80 102.82 79.19" id="p19" />
<path d="M62.66 91.19 C72.84 83.56 85.62 80.20 98.18 79.66 C97.06 88.24 94.70 96.80 90.14 104.21 C83.36 104.03 76.50 103.71 69.83 105.18 C68.05 100.22 65.56 95.58 62.66 91.19" id="p20" />
<path d="M108.57 82.11 C115.68 83.85 122.65 86.29 129.05 89.88 C130.50 90.66 131.65 91.86 132.55 93.23 C126.38 90.07 120.24 86.81 113.54 84.90 C119.23 90.46 125.93 95.85 128.53 103.65 C125.93 101.13 124.13 97.95 121.83 95.18 C118.54 91.24 114.70 87.81 110.65 84.69 C111.88 91.08 114.84 96.88 117.78 102.62 C114.69 100.67 113.32 97.17 112.00 93.94 C110.47 90.12 109.43 86.13 108.57 82.11" id="p21" />
<path d="M78.06 87.08 C82.60 85.06 87.38 83.64 92.20 82.45 C90.87 88.27 89.27 94.12 86.34 99.36 C85.63 100.82 84.30 101.78 83.05 102.75 C86.07 97.04 88.86 91.18 90.22 84.81 C85.75 88.48 81.34 92.30 77.78 96.89 C75.93 99.25 74.57 102.13 71.87 103.69 C75.29 96.13 81.71 90.63 87.52 84.95 C80.75 87.09 74.53 90.47 68.11 93.41 C70.59 90.19 74.48 88.71 78.06 87.08" id="p22" />
<path d="M51.58 117.25 C63.01 105.51 81.03 103.10 96.37 107.03 C87.67 115.41 80.80 126.59 80.43 138.95 C80.24 149.73 80.68 161.36 87.06 170.55 C85.01 171.57 83.05 172.74 81.19 174.08 C77.57 171.30 74.20 168.00 72.15 163.87 C70.32 159.49 70.67 154.63 70.00 150.01 C68.87 139.88 63.48 130.84 57.22 123.02 C64.24 116.50 73.50 112.38 83.11 111.94 C75.36 116.56 67.58 123.24 66.19 132.67 C68.41 130.44 69.03 127.23 70.74 124.66 C73.63 120.23 77.95 117.02 82.20 113.99 C76.16 123.10 73.29 134.09 73.96 144.99 C74.39 149.53 73.87 154.68 76.68 158.58 C75.48 148.00 74.15 137.01 77.65 126.70 C79.46 120.43 83.12 114.92 87.57 110.20 C76.20 110.15 64.62 113.98 56.42 122.04 C54.82 120.43 53.20 118.84 51.58 117.25" id="p23" />
<path d="M104.18 106.56 C119.67 102.53 137.47 105.36 149.22 116.79 C147.59 118.38 146.00 119.99 144.44 121.64 C136.00 113.90 124.61 109.55 113.14 109.95 C122.45 118.90 125.95 132.30 125.37 144.90 C125.20 149.43 124.07 153.88 124.19 158.43 C126.48 154.76 126.24 150.24 126.69 146.09 C127.51 134.81 124.96 123.24 118.67 113.75 C122.34 116.53 126.34 119.08 129.01 122.91 C131.17 125.78 132.35 129.21 133.98 132.37 C133.86 122.63 124.85 116.47 117.69 111.38 C127.18 112.36 136.56 115.98 143.44 122.74 C137.49 130.12 132.42 138.58 130.92 148.08 C129.95 152.71 130.53 157.56 129.16 162.12 C127.33 166.92 123.40 170.48 119.60 173.76 C117.69 172.46 115.74 171.20 113.76 170.00 C120.22 160.70 120.51 148.93 120.23 138.03 C119.83 125.77 112.72 114.88 104.18 106.56" id="p24" />
<path d="M16.25 106.75 C27.63 106.63 39.41 109.43 48.49 116.57 C56.07 122.47 61.84 130.57 65.69 139.34 C68.39 145.30 68.93 151.91 69.40 158.35 C69.78 165.90 75.54 171.78 81.44 175.82 C84.26 173.08 88.36 170.60 92.32 172.60 C96.88 174.01 99.63 179.28 97.68 183.75 C95.62 188.03 90.15 188.94 85.90 188.06 C71.01 185.37 56.86 178.61 45.45 168.67 C27.59 153.32 16.82 130.27 16.25 106.75" id="p25" />
<path d="M152.20 116.21 C161.56 108.80 173.78 106.13 185.52 106.34 C185.37 125.23 178.62 143.98 166.35 158.38 C153.03 174.68 133.47 185.84 112.55 188.54 C108.80 188.99 105.01 186.85 103.14 183.63 C101.81 180.49 102.40 176.40 105.10 174.15 C107.68 171.97 111.48 170.87 114.72 172.15 C116.34 172.98 117.67 174.26 119.07 175.41 C125.88 171.27 131.63 164.22 131.57 155.90 C131.65 140.31 140.37 125.89 152.20 116.21" id="p26" />
<path d="M21.14 111.20 C33.51 114.30 45.81 120.04 54.14 129.98 C57.62 134.39 60.67 139.55 60.86 145.32 C58.38 141.22 57.37 136.36 54.36 132.55 C47.01 122.46 35.17 116.92 23.58 113.21 C30.11 123.00 36.63 132.81 43.72 142.21 C45.96 145.29 48.69 148.06 50.39 151.51 C48.62 150.32 47.07 148.83 45.76 147.15 C37.57 136.80 30.44 125.68 22.86 114.89 C24.82 129.58 32.01 143.18 41.71 154.23 C44.34 157.29 47.59 159.85 49.55 163.44 C48.16 162.53 46.79 161.58 45.61 160.43 C32.47 147.29 22.22 130.10 21.14 111.20" id="p27" />
<path d="M151.54 124.57 C159.47 117.67 169.36 113.39 179.47 110.82 C178.83 126.36 171.46 140.91 161.72 152.74 C158.55 156.45 155.52 160.43 151.30 163.02 C152.71 160.58 154.60 158.50 156.56 156.51 C167.63 144.95 175.68 130.26 178.02 114.32 C170.16 125.41 162.88 136.92 154.34 147.52 C153.16 148.97 151.79 150.26 150.36 151.47 C152.14 147.45 155.25 144.29 157.81 140.79 C164.54 131.67 170.84 122.25 177.17 112.86 C164.82 116.62 152.37 122.89 145.10 134.01 C142.75 137.31 142.30 141.58 139.75 144.77 C140.56 136.72 145.59 129.75 151.54 124.57" id="p28" /></defs><g stroke-width="10pt">
<use stroke="#fefe9a" xlink:href="#p1" />
<use stroke="#eb2e4f" xlink:href="#p2" />
<use stroke="#eb2e4f" xlink:href="#p3" />
<use stroke="#eb2e4f" xlink:href="#p4" />
<use stroke="#eb2e4f" xlink:href="#p5" />
<use stroke="#fefe9a" xlink:href="#p6" />
<use stroke="#fefe9a" xlink:href="#p7" />
<use stroke="#eb2e4f" xlink:href="#p8" />
<use stroke="#eb2e4f" xlink:href="#p9" />
<use stroke="#eb2e4f" xlink:href="#p10" />
<use stroke="#eb2e4f" xlink:href="#p11" />
<use stroke="#eb2e4f" xlink:href="#p12" />
<use stroke="#eb2e4f" xlink:href="#p13" />
<use stroke="#fefe9a" xlink:href="#p14" />
<use stroke="#eb2e4f" xlink:href="#p15" />
<use stroke="#eb2e4f" xlink:href="#p16" />
<use stroke="#fefe9a" xlink:href="#p17" />
<use stroke="#fefe9a" xlink:href="#p18" />
<use stroke="#eb2e4f" xlink:href="#p19" />
<use stroke="#eb2e4f" xlink:href="#p20" />
<use stroke="#fefe9a" xlink:href="#p21" />
<use stroke="#fefe9a" xlink:href="#p22" />
<use stroke="#eb2e4f" xlink:href="#p23" />
<use stroke="#eb2e4f" xlink:href="#p24" />
<use stroke="#eb2e4f" xlink:href="#p25" />
<use stroke="#eb2e4f" xlink:href="#p26" />
<use stroke="#fefe9a" xlink:href="#p27" />
<use stroke="#fefe9a" xlink:href="#p28" /></g>
<g>
<use xlink:href="#p1" fill="#fefe9a" />
<use xlink:href="#p2" fill="#eb2e4f" />
<use xlink:href="#p3" fill="#eb2e4f" />
<use xlink:href="#p4" fill="#eb2e4f" />
<use xlink:href="#p5" fill="#eb2e4f" />
<use xlink:href="#p6" fill="#fefe9a" />
<use xlink:href="#p7" fill="#fefe9a" />
<use xlink:href="#p8" fill="#eb2e4f" />
<use xlink:href="#p9" fill="#eb2e4f" />
<use xlink:href="#p10" fill="#eb2e4f" />
<use xlink:href="#p11" fill="#eb2e4f" />
<use xlink:href="#p12" fill="#eb2e4f" />
<use xlink:href="#p13" fill="#eb2e4f" />
<use xlink:href="#p14" fill="#fefe9a" />
<use xlink:href="#p15" fill="#eb2e4f" />
<use xlink:href="#p16" fill="#eb2e4f" />
<use xlink:href="#p17" fill="#fefe9a" />
<use xlink:href="#p18" fill="#fefe9a" />
<use xlink:href="#p19" fill="#eb2e4f" />
<use xlink:href="#p20" fill="#eb2e4f" />
<use xlink:href="#p21" fill="#fefe9a" />
<use xlink:href="#p22" fill="#fefe9a" />
<use xlink:href="#p23" fill="#eb2e4f" />
<use xlink:href="#p24" fill="#eb2e4f" />
<use xlink:href="#p25" fill="#eb2e4f" />
<use xlink:href="#p26" fill="#eb2e4f" />
<use xlink:href="#p27" fill="#fefe9a" />
<use xlink:href="#p28" fill="#fefe9a" /></g></svg>