<svg viewBox="0 0 400 393" xmlns:xlink="http://www.w3.org/1999/xlink" height="393pt" xmlns="http://www.w3.org/2000/svg" width="100%" version="1.1"><defs>
<path d="M0.00 0.00 L400.00 0.00 L400.00 393.00 L0.00 393.00 L0.00 0.00" id="p1" />
<path d="M11.50 22.86 C12.96 15.13 20.24 9.22 28.05 8.94 C52.03 8.30 76.03 8.96 100.03 8.78 C124.80 8.57 149.49 19.09 166.27 37.36 C175.15 35.94 184.07 34.62 193.08 34.28 C206.01 34.27 218.98 35.01 231.68 37.61 C246.65 21.26 267.88 10.76 289.99 9.01 C304.98 8.48 319.99 8.99 334.99 8.72 C344.66 8.34 354.33 8.89 364.00 8.78 C367.30 8.79 370.68 8.52 373.89 9.54 C381.11 11.03 386.78 17.76 387.28 25.08 C388.12 31.05 384.94 36.69 380.87 40.80 C362.70 58.92 344.55 77.07 326.39 95.21 C347.36 121.58 359.93 154.56 361.63 188.22 C346.09 188.22 330.54 188.22 315.00 188.22 C302.16 188.14 289.11 188.89 276.56 185.62 C266.47 183.25 256.91 178.91 248.21 173.31 C240.32 181.19 232.41 189.05 224.56 196.96 C232.37 204.81 240.23 212.62 248.06 220.46 C262.02 211.50 278.33 205.92 295.00 205.75 C317.21 205.67 339.42 205.74 361.63 205.72 C359.90 239.32 347.47 272.38 326.22 298.52 C343.42 315.73 360.64 332.91 377.85 350.11 C380.35 352.67 383.23 354.98 384.86 358.25 C388.62 364.11 388.16 372.40 383.81 377.84 C380.54 382.62 374.68 384.90 369.04 385.11 C345.02 385.40 321.01 385.11 296.99 385.11 C272.60 385.01 248.59 374.37 232.02 356.50 C210.53 360.75 188.26 360.52 166.79 356.31 C153.74 370.47 136.07 380.28 117.12 383.76 C106.54 385.83 95.70 384.95 84.98 385.16 C65.95 385.15 46.92 385.41 27.89 385.08 C21.97 384.48 16.13 381.28 13.35 375.88 C9.07 368.86 11.08 359.46 16.82 353.86 C35.20 335.44 53.64 317.07 72.06 298.68 C51.05 272.37 38.49 239.35 36.79 205.72 C52.51 205.72 68.24 205.72 83.97 205.72 C96.38 205.80 108.98 205.06 121.13 208.11 C131.47 210.49 141.28 214.84 150.18 220.59 C158.12 212.76 165.98 204.83 173.88 196.95 C166.04 189.11 158.19 181.28 150.35 173.44 C136.03 182.72 119.12 188.28 101.99 188.17 C80.26 188.28 58.52 188.19 36.79 188.22 C38.48 154.60 50.98 121.54 72.21 95.38 C53.75 76.98 35.34 58.53 16.86 40.14 C12.51 35.68 9.85 29.07 11.50 22.86" id="p2" />
<path d="M22.71 22.68 C24.35 19.79 27.94 19.21 30.98 19.20 C54.66 19.26 78.34 19.13 102.02 19.28 C121.57 19.45 140.67 27.47 155.00 40.66 C149.17 41.81 143.71 44.20 138.12 46.15 C127.33 38.47 114.21 34.20 100.96 34.15 C82.90 34.08 64.83 34.16 46.77 34.13 C79.06 66.43 111.42 98.68 143.71 130.99 C140.64 134.92 137.10 138.47 133.16 141.51 C96.99 105.42 60.86 69.29 24.69 33.20 C21.85 30.61 20.20 26.02 22.71 22.68" id="p3" />
<path d="M286.95 20.00 C295.24 18.79 303.63 19.32 311.98 19.22 C331.22 19.27 350.47 19.09 369.70 19.31 C374.30 19.38 377.47 23.70 377.08 28.09 C376.04 29.99 375.05 31.97 373.45 33.47 C355.43 51.42 337.46 69.42 319.45 87.39 C316.12 83.69 312.59 80.19 308.91 76.85 C323.16 62.61 337.43 48.37 351.68 34.13 C334.43 34.15 317.18 34.11 299.93 34.13 C293.96 34.11 287.97 34.60 282.18 36.09 C263.57 40.60 247.38 53.97 239.40 71.37 C230.68 89.63 231.65 111.90 241.31 129.60 C237.71 133.23 234.06 136.81 230.48 140.46 C220.47 124.42 216.38 104.74 219.46 86.07 C222.50 66.22 233.54 47.77 249.53 35.62 C260.37 27.30 273.39 21.80 286.95 20.00" id="p4" />
<path d="M291.94 45.06 C303.51 44.09 315.13 44.83 326.72 44.49 C317.99 52.78 309.65 61.47 301.08 69.92 C292.03 62.64 282.13 56.46 271.63 51.49 C277.93 48.10 284.83 45.86 291.94 45.06" id="p5" />
<path d="M71.79 44.51 C81.86 44.67 91.94 44.44 102.00 44.63 C110.59 44.81 119.07 47.14 126.62 51.21 C116.41 56.65 106.53 62.78 97.51 70.06 C88.91 61.57 80.50 52.90 71.79 44.51" id="p6" />
<path d="M104.94 77.50 C138.04 51.04 182.54 39.73 224.28 46.88 C221.37 51.38 218.53 55.93 216.32 60.83 C180.88 56.19 143.80 66.16 115.59 88.14 C112.05 84.58 108.50 81.04 104.94 77.50" id="p7" />
<path d="M251.85 70.24 C254.60 65.78 257.98 61.71 261.92 58.25 C300.00 75.33 330.50 108.69 343.49 148.41 C346.94 157.94 348.57 167.98 351.06 177.78 C333.69 177.78 316.33 177.80 298.96 177.77 C283.81 177.88 268.62 173.81 255.78 165.71 C259.42 162.12 263.03 158.50 266.64 154.88 C275.96 159.82 286.37 162.72 296.94 162.81 C308.72 162.95 320.50 162.85 332.28 162.87 C329.26 151.17 324.81 139.80 318.71 129.35 C303.97 102.83 279.90 81.72 251.85 70.24" id="p8" />
<path d="M186.16 70.97 C194.82 70.28 203.50 69.86 212.17 70.76 C203.90 96.38 208.01 125.59 222.91 147.99 C215.00 155.87 207.12 163.78 199.21 171.65 C191.35 163.82 183.52 155.98 175.67 148.14 C185.85 132.50 191.44 113.72 190.29 95.02 C190.09 86.84 188.45 78.79 186.16 70.97" id="p9" />
<path d="M161.02 76.03 C165.77 74.51 170.64 73.37 175.51 72.31 C181.58 89.55 181.42 108.90 175.02 126.02 C167.91 145.32 152.97 161.61 134.29 170.24 C123.01 175.62 110.44 177.97 97.99 177.80 C81.12 177.76 64.25 177.81 47.38 177.78 C50.44 164.77 52.96 151.53 58.33 139.21 C63.65 126.17 70.84 113.89 79.57 102.84 C83.21 106.28 86.68 109.89 90.25 113.41 C78.93 128.01 70.76 145.00 66.12 162.87 C77.74 162.84 89.38 162.97 101.01 162.80 C114.61 162.76 128.19 158.30 139.06 150.09 C152.05 140.52 161.21 125.89 164.01 109.99 C165.97 98.67 165.06 86.81 161.02 76.03" id="p10" />
<path d="M123.03 95.56 C131.64 88.99 141.27 83.86 151.26 79.74 C156.31 93.23 155.34 108.70 149.17 121.66 C140.44 112.98 131.75 104.26 123.03 95.56" id="p11" />
<path d="M247.28 79.70 C257.39 83.50 266.59 89.31 275.31 95.61 C266.63 104.38 257.85 113.06 249.13 121.80 C242.64 108.78 242.45 93.29 247.28 79.70" id="p12" />
<path d="M206.62 179.03 C232.25 153.38 257.95 127.78 283.58 102.12 C287.28 105.46 290.78 109.01 294.15 112.67 C268.47 138.29 242.84 163.95 217.14 189.56 C213.63 186.06 210.10 182.56 206.62 179.03" id="p13" />
<path d="M97.64 120.81 C106.39 129.51 115.11 138.25 123.84 146.97 C110.35 153.79 94.88 152.28 80.28 152.43 C84.67 141.19 90.43 130.50 97.64 120.81" id="p14" />
<path d="M300.57 120.89 C307.92 130.48 313.83 141.13 318.13 152.43 C303.50 152.20 287.98 154.02 274.47 147.10 C283.12 138.32 291.98 129.74 300.57 120.89" id="p15" />
<path d="M158.65 166.97 C162.39 163.69 165.92 160.19 169.17 156.43 C192.74 179.92 216.26 203.45 239.80 226.97 C236.02 230.21 232.51 233.74 229.24 237.49 C205.71 213.98 182.17 190.49 158.65 166.97" id="p16" />
<path d="M104.29 281.22 C129.95 255.59 155.60 229.96 181.27 204.34 C184.79 207.84 188.31 211.35 191.82 214.87 C166.17 240.50 140.52 266.13 114.86 291.74 C111.18 288.39 107.59 284.95 104.29 281.22" id="p17" />
<path d="M47.37 216.18 C60.90 216.12 74.42 216.17 87.95 216.15 C94.98 216.19 102.03 215.96 109.04 216.63 C120.89 217.92 132.54 221.79 142.58 228.26 C138.94 231.82 135.36 235.45 131.75 239.04 C122.33 233.99 111.73 231.15 101.02 231.09 C89.38 231.02 77.75 231.07 66.11 231.07 C70.27 247.15 77.37 262.42 86.88 276.02 C101.75 297.15 122.71 313.94 146.64 323.69 C143.74 328.10 140.47 332.33 136.36 335.68 C101.93 319.94 73.42 291.24 58.96 256.16 C53.19 243.44 50.56 229.68 47.37 216.18" id="p18" />
<path d="M263.16 224.15 C273.93 218.82 285.94 216.24 297.93 216.13 C315.64 216.18 333.35 216.14 351.06 216.16 C348.66 225.44 347.15 234.98 343.97 244.04 C338.53 261.08 329.94 277.13 318.78 291.10 C315.25 287.57 311.71 284.03 308.17 280.50 C319.51 265.93 327.68 248.94 332.28 231.07 C320.49 231.08 308.70 231.00 296.92 231.12 C279.31 231.27 261.96 239.08 250.16 252.15 C234.06 269.44 229.03 295.83 237.41 317.89 C232.66 319.43 227.80 320.57 222.91 321.58 C216.96 304.69 216.98 285.79 223.04 268.93 C229.82 249.50 244.62 233.07 263.16 224.15" id="p19" />
<path d="M175.55 245.93 C183.39 237.99 191.33 230.15 199.21 222.25 C207.08 230.07 214.87 237.96 222.78 245.74 C214.23 258.90 208.88 274.23 208.05 289.94 C207.60 301.10 209.00 312.30 212.26 322.99 C203.60 323.55 194.95 324.04 186.29 323.18 C194.41 297.52 190.45 268.37 175.55 245.93" id="p20" />
<path d="M80.27 241.51 C94.91 241.72 110.43 239.89 123.97 246.79 C115.26 255.54 106.51 264.24 97.78 272.97 C90.53 263.34 84.61 252.76 80.27 241.51" id="p21" />
<path d="M274.67 247.02 C288.06 240.02 303.59 241.73 318.15 241.50 C313.74 252.73 308.00 263.43 300.75 273.09 C292.06 264.40 283.35 255.72 274.67 247.02" id="p22" />
<path d="M254.71 262.91 C257.77 258.99 261.32 255.47 265.24 252.41 C301.05 288.06 336.72 323.83 372.51 359.49 C374.78 361.73 377.53 364.59 376.85 368.08 C376.68 372.44 372.07 374.95 368.08 374.72 C344.14 374.69 320.20 374.81 296.26 374.66 C276.86 374.36 257.80 366.57 243.61 353.37 C249.26 351.86 254.74 349.83 260.20 347.77 C266.61 352.07 273.56 355.65 281.08 357.55 C289.17 359.85 297.66 359.89 306.01 359.81 C321.25 359.82 336.48 359.79 351.72 359.81 C319.39 327.51 287.03 295.23 254.71 262.91" id="p23" />
<path d="M157.08 264.34 C160.69 260.74 164.29 257.11 167.92 253.53 C178.09 269.55 182.02 289.38 178.91 308.09 C175.77 328.44 164.12 347.26 147.49 359.37 C133.32 369.88 115.55 375.12 97.96 374.74 C75.29 374.69 52.61 374.76 29.93 374.71 C26.01 374.86 21.70 372.20 21.58 367.98 C21.00 365.17 22.93 362.65 24.70 360.69 C42.80 342.66 60.85 324.57 78.95 306.55 C82.30 310.21 85.84 313.69 89.48 317.07 C75.26 331.35 60.97 345.55 46.73 359.81 C63.14 359.79 79.56 359.82 95.97 359.82 C102.42 359.76 108.94 359.67 115.23 358.09 C134.13 353.83 150.64 340.45 158.87 322.95 C167.68 304.60 166.93 282.12 157.08 264.34" id="p24" />
<path d="M247.14 314.19 C242.15 300.67 242.95 285.08 249.39 272.19 C257.88 281.09 266.77 289.60 275.41 298.36 C266.79 304.94 257.14 310.04 247.14 314.19" id="p25" />
<path d="M123.14 298.24 C131.87 289.52 140.59 280.78 149.34 272.08 C155.64 285.14 156.12 300.70 151.00 314.22 C140.97 310.32 131.75 304.64 123.14 298.24" id="p26" />
<path d="M182.10 333.08 C217.55 337.77 254.61 327.71 282.85 305.79 C286.40 309.32 289.94 312.88 293.49 316.41 C260.39 342.89 215.87 354.15 174.11 347.05 C177.08 342.57 179.90 337.99 182.10 333.08" id="p27" />
<path d="M97.33 323.97 C106.37 331.29 116.32 337.41 126.78 342.48 C120.06 346.00 112.70 348.38 105.12 348.99 C94.01 349.76 82.86 349.15 71.74 349.43 C80.41 341.09 88.83 332.48 97.33 323.97" id="p28" />
<path d="M271.70 342.65 C282.06 337.43 291.82 331.03 300.94 323.86 C309.55 332.36 317.98 341.06 326.71 349.45 C316.47 349.21 306.22 349.55 295.98 349.27 C287.49 349.07 279.17 346.63 271.70 342.65" id="p29" /></defs><g stroke-width="10pt">
<use stroke="#fff" xlink:href="#p1" />
<use stroke="#000" xlink:href="#p2" />
<use stroke="#fff" xlink:href="#p3" />
<use stroke="#fff" xlink:href="#p4" />
<use stroke="#fff" xlink:href="#p5" />
<use stroke="#fff" xlink:href="#p6" />
<use stroke="#fff" xlink:href="#p7" />
<use stroke="#fff" xlink:href="#p8" />
<use stroke="#fff" xlink:href="#p9" />
<use stroke="#fff" xlink:href="#p10" />
<use stroke="#fff" xlink:href="#p11" />
<use stroke="#fff" xlink:href="#p12" />
<use stroke="#fff" xlink:href="#p13" />
<use stroke="#fff" xlink:href="#p14" />
<use stroke="#fff" xlink:href="#p15" />
<use stroke="#fff" xlink:href="#p16" />
<use stroke="#fff" xlink:href="#p17" />
<use stroke="#fff" xlink:href="#p18" />
<use stroke="#fff" xlink:href="#p19" />
<use stroke="#fff" xlink:href="#p20" />
<use stroke="#fff" xlink:href="#p21" />
<use stroke="#fff" xlink:href="#p22" />
<use stroke="#fff" xlink:href="#p23" />
<use stroke="#fff" xlink:href="#p24" />
<use stroke="#fff" xlink:href="#p25" />
<use stroke="#fff" xlink:href="#p26" />
<use stroke="#fff" xlink:href="#p27" />
<use stroke="#fff" xlink:href="#p28" />
<use stroke="#fff" xlink:href="#p29" /></g>
<g>
<use xlink:href="#p1" fill="#fff" />
<use xlink:href="#p2" fill="#000" />
<use xlink:href="#p3" fill="#fff" />
<use xlink:href="#p4" fill="#fff" />
<use xlink:href="#p5" fill="#fff" />
<use xlink:href="#p6" fill="#fff" />
<use xlink:href="#p7" fill="#fff" />
<use xlink:href="#p8" fill="#fff" />
<use xlink:href="#p9" fill="#fff" />
<use xlink:href="#p10" fill="#fff" />
<use xlink:href="#p11" fill="#fff" />
<use xlink:href="#p12" fill="#fff" />
<use xlink:href="#p13" fill="#fff" />
<use xlink:href="#p14" fill="#fff" />
<use xlink:href="#p15" fill="#fff" />
<use xlink:href="#p16" fill="#fff" />
<use xlink:href="#p17" fill="#fff" />
<use xlink:href="#p18" fill="#fff" />
<use xlink:href="#p19" fill="#fff" />
<use xlink:href="#p20" fill="#fff" />
<use xlink:href="#p21" fill="#fff" />
<use xlink:href="#p22" fill="#fff" />
<use xlink:href="#p23" fill="#fff" />
<use xlink:href="#p24" fill="#fff" />
<use xlink:href="#p25" fill="#fff" />
<use xlink:href="#p26" fill="#fff" />
<use xlink:href="#p27" fill="#fff" />
<use xlink:href="#p28" fill="#fff" />
<use xlink:href="#p29" fill="#fff" /></g></svg>